<svg width="111" height="111" viewBox="0 0 111 111" fill="none" xmlns="http://www.w3.org/2000/svg">
<g clip-path="url(#clip0_78_32)">
<path d="M109.5 3.69996C109.2 2.99996 108.5 2.39996 107.7 2.49996C107.2 2.49996 106.8 2.69996 106.5 3.09996L89.8 20.5C89.9 20.4 89.9 20.4 90 20.3H110.3V5.29996L109.5 3.69996Z" fill="url(#paint0_linear_78_32)"/>
<path d="M3.60006 106.7C1.30006 109 2.40006 110.1 3.60006 110.3H23.5001L23.3001 86.7C19.9001 89.8 3.60006 106.7 3.60006 106.7Z" fill="url(#paint1_linear_78_32)"/>
<path d="M105.7 0C93.4 0 61.1 0 61.1 0C57.7 0 54.3 1.4 51.9 3.8L3.8 51.9C1.4 54.3 0 57.6 0 61.1C0 61.1 0 98.9 0 108.2C0 109.3 0.9 110.3 2.1 110.3H3.9H3.7C1.6 109.9 2.5 107.9 3.4 107L20.4 89.9C43.5 66.8 66.7 43.6 89.8 20.5L106.5 3.1C106.8 2.7 107.3 2.6 107.7 2.5C108.5 2.4 109.2 3 109.5 3.7L110.3 5.3V4.6C110.3 2.1 108.2 0 105.7 0Z" fill="url(#paint2_linear_78_32)"/>
<path d="M12.3 62L19.3 72.7L16.3 75.7L11.1 67.7L9.60005 69.2L7.80005 66.5L12.3 62Z" fill="white"/>
<path d="M22.7001 69.1C21.9001 69.3 21.1001 69.3 20.3001 69.1C19.5001 68.9 18.7001 68.4 18.0001 67.6C16.9001 66.5 16.1001 65.3 15.7001 64C15.2001 62.7 15.1001 61.4 15.4001 60.2C15.6001 59 16.2001 57.9 17.1001 57C17.8001 56.3 18.5001 55.9 19.3001 55.6C20.1001 55.4 20.9001 55.4 21.7001 55.6C22.5001 55.8 23.3001 56.3 24.0001 57.1C25.1001 58.2 25.9001 59.4 26.3001 60.7C26.8001 62 26.9001 63.3 26.6001 64.5C26.4001 65.7 25.8001 66.7999 24.9001 67.6999C24.2001 68.3999 23.5001 68.8 22.7001 69.1ZM23.1001 63.6C23.0001 63 22.7001 62.4 22.3001 61.7C21.9001 61.1 21.5001 60.5 21.0001 60.1C20.2001 59.3 19.6001 59.2 19.1001 59.7C18.8001 60 18.7001 60.5 18.8001 61.1C18.9001 61.7 19.2001 62.3 19.6001 63C20.0001 63.7 20.4001 64.2 20.9001 64.6C21.7001 65.4 22.3001 65.5 22.8001 65C23.2001 64.6 23.3001 64.2 23.1001 63.6Z" fill="white"/>
<path d="M26.5001 56.5999C25.7001 56.5999 25.0001 56.2999 24.4001 55.5999C23.9001 54.9999 23.5001 54.4 23.3001 53.7999C23.1001 53.1999 23.1001 52.5 23.2001 51.9C23.4001 51.3 23.7001 50.6999 24.3001 50.0999C24.9001 49.4999 25.6001 49.1999 26.4001 49.0999C27.2001 49.0999 27.9001 49.3999 28.5001 50.0999C29.0001 50.6999 29.4001 51.3 29.6001 51.9C29.8001 52.6 29.8001 53.1999 29.7001 53.7999C29.5001 54.4 29.2001 54.9999 28.6001 55.5999C27.9001 56.2999 27.2001 56.5999 26.5001 56.5999ZM27.5001 53.2C27.3001 52.8 27.0001 52.4 26.7001 52C26.4001 51.7 26.2001 51.6 26.0001 51.5C25.8001 51.5 25.6001 51.4999 25.5001 51.5999C25.2001 51.8999 25.2001 52.1999 25.4001 52.5999C25.6001 52.9999 25.9001 53.4 26.2001 53.7999C26.5001 54.0999 26.7001 54.1999 26.9001 54.2999C27.1001 54.4 27.3001 54.3 27.4001 54.2C27.6001 53.9 27.7001 53.6 27.5001 53.2ZM29.7001 45L32.0001 42.7L33.0001 59.2999L30.7001 61.5L29.7001 45ZM36.3001 55.2C35.5001 55.2 34.8001 54.9 34.2001 54.2C33.7001 53.6 33.3001 53 33.1001 52.4C32.9001 51.8 32.9001 51.1 33.0001 50.5C33.2001 49.9 33.5001 49.3 34.1001 48.7C34.7001 48.1 35.4001 47.8 36.2001 47.7C37.0001 47.7 37.7001 48 38.3001 48.7C38.8001 49.3 39.2001 49.9 39.4001 50.5C39.6001 51.2 39.6001 51.8 39.5001 52.4C39.3001 53 39.0001 53.6 38.4001 54.2C37.8001 54.9 37.1001 55.2 36.3001 55.2ZM37.4001 51.7999C37.2001 51.4 36.9001 50.9999 36.6001 50.5999C36.3001 50.2999 36.1001 50.1999 35.9001 50.0999C35.7001 50.0999 35.5001 50.1 35.4001 50.2C35.1001 50.5 35.1001 50.8 35.3001 51.2C35.5001 51.6 35.8001 52 36.1001 52.4C36.4001 52.7 36.6001 52.8 36.8001 52.9C37.0001 52.9 37.2001 52.9 37.3001 52.7999C37.5001 52.4999 37.5001 52.1999 37.4001 51.7999Z" fill="white"/>
<path d="M47.6001 44.3999C46.6001 44.6999 45.6001 44.7999 44.6001 44.4999C43.6001 44.2999 42.8001 43.6999 42.0001 42.9999C41.0001 41.9999 40.3001 40.7999 40.0001 39.4999C39.7001 38.1999 39.7001 36.8999 40.1001 35.5999C40.5001 34.2999 41.3001 33.0999 42.4001 32.0999C43.3001 31.1999 44.3001 30.5999 45.3001 30.2999C46.3001 29.9999 47.3001 29.8999 48.3001 30.1999C49.3001 30.3999 50.1001 30.9999 50.9001 31.6999C51.9001 32.6999 52.6001 33.8999 52.9001 35.1999C53.2001 36.4999 53.2001 37.7999 52.8001 39.0999C52.4001 40.3999 51.6001 41.5999 50.5001 42.5999C49.6001 43.4999 48.7001 44.0999 47.6001 44.3999ZM49.3001 38.2999C49.4001 37.6999 49.4001 37.0999 49.1001 36.4999C48.9001 35.8999 48.5001 35.2999 48.0001 34.8999C47.5001 34.2999 47.0001 33.9999 46.3001 33.9999C45.6001 33.9999 45.1001 34.2999 44.5001 34.7999C44.0001 35.2999 43.7001 35.7999 43.6001 36.3999C43.5001 36.9999 43.5001 37.5999 43.8001 38.1999C44.0001 38.7999 44.4001 39.3999 44.9001 39.7999C45.4001 40.2999 46.0001 40.5999 46.6001 40.5999C47.2001 40.5999 47.8001 40.2999 48.4001 39.7999C48.9001 39.3999 49.2001 38.8999 49.3001 38.2999Z" fill="white"/>
<path d="M54.0001 25.7L55.2001 27.5L58.9001 23.8L60.7001 26.5L57.0001 30.3L59.2001 33.7L56.2001 36.7L49.2001 26L56.5001 18.9L58.3001 21.6L54.0001 25.7Z" fill="white"/>
<path d="M62.2 17.6L63.4 19.4L67.1 15.7L68.9 18.4L65.2 22.1L67.4 25.5L64.4 28.5L57.4 17.8L64.7 10.6L66.5 13.3L62.2 17.6Z" fill="white"/>
</g>
<defs>
<linearGradient id="paint0_linear_78_32" x1="100.016" y1="-0.666743" x2="100.016" y2="60.7971" gradientUnits="userSpaceOnUse">
<stop stop-color="#7B0612"/>
<stop offset="0.9935" stop-color="#D9122A"/>
</linearGradient>
<linearGradient id="paint1_linear_78_32" x1="2.25306" y1="98.5095" x2="23.4896" y2="98.5095" gradientUnits="userSpaceOnUse">
<stop stop-color="#7B0612"/>
<stop offset="0.9935" stop-color="#D9122A"/>
</linearGradient>
<linearGradient id="paint2_linear_78_32" x1="55.0583" y1="55.9077" x2="25.0583" y2="15.241" gradientUnits="userSpaceOnUse">
<stop stop-color="#FF1C3D"/>
<stop offset="1" stop-color="#D41128"/>
</linearGradient>
<clipPath id="clip0_78_32">
<rect width="110.3" height="110.3" fill="white"/>
</clipPath>
</defs>
</svg>
