<svg width="111" height="111" viewBox="0 0 111 111" fill="none" xmlns="http://www.w3.org/2000/svg">
<g clip-path="url(#clip0_78_49)">
<path d="M109.5 3.69996C109.2 2.99996 108.5 2.39996 107.7 2.49996C107.2 2.49996 106.8 2.69996 106.5 3.09996L89.8 20.5C89.9 20.4 89.9 20.4 90 20.3H110.3V5.29996L109.5 3.69996Z" fill="url(#paint0_linear_78_49)"/>
<path d="M3.60006 106.7C1.30006 109 2.40006 110.1 3.60006 110.3H23.5001L23.3001 86.7C19.9001 89.8 3.60006 106.7 3.60006 106.7Z" fill="url(#paint1_linear_78_49)"/>
<path d="M105.7 0C93.4 0 61.1 0 61.1 0C57.7 0 54.3 1.4 51.9 3.8L3.8 51.9C1.4 54.3 0 57.6 0 61.1C0 61.1 0 98.9 0 108.2C0 109.3 0.9 110.3 2.1 110.3H3.9H3.7C1.6 109.9 2.5 107.9 3.4 107L20.4 89.9C43.5 66.8 66.7 43.6 89.8 20.5L106.5 3.1C106.8 2.7 107.3 2.6 107.7 2.5C108.5 2.4 109.2 3 109.5 3.7L110.3 5.3V4.6C110.3 2.1 108.2 0 105.7 0Z" fill="url(#paint2_linear_78_49)"/>
<path d="M19.4 55L20.9 57.2L23.6 68.5L20.2 71.8L17.8 61.2L16.2 62.8L17.2 64.4L14.7 66.9L11.8 62.5L19.4 55Z" fill="white"/>
<path d="M24.4001 58.5999C23.6001 58.5999 22.9001 58.2999 22.3001 57.5999C21.8001 56.9999 21.4001 56.3999 21.2001 55.7999C21.0001 55.0999 21.0001 54.4999 21.1001 53.8999C21.3001 53.2999 21.6001 52.6999 22.2001 52.0999C22.8001 51.4999 23.5001 51.1999 24.3001 51.0999C25.1001 51.0999 25.8001 51.3999 26.4001 52.0999C26.9001 52.6999 27.3001 53.2999 27.5001 53.8999C27.7001 54.4999 27.7001 55.1999 27.6001 55.7999C27.4001 56.3999 27.1001 56.9999 26.5001 57.5999C25.8001 58.2999 25.1001 58.5999 24.4001 58.5999ZM25.4001 55.0999C25.2001 54.6999 24.9001 54.2999 24.6001 53.8999C24.3001 53.5999 24.1001 53.4999 23.9001 53.3999C23.7001 53.2999 23.5001 53.3999 23.4001 53.4999C23.1001 53.7999 23.1001 54.0999 23.3001 54.4999C23.5001 54.8999 23.8001 55.2999 24.1001 55.6999C24.4001 55.9999 24.6001 56.0999 24.8001 56.1999C25.0001 56.1999 25.2001 56.1999 25.3001 56.0999C25.5001 55.7999 25.6001 55.4999 25.4001 55.0999ZM27.6001 46.9999L29.9001 44.7999L30.9001 61.3999L28.6001 63.6999L27.6001 46.9999ZM34.3001 57.1999C33.5001 57.1999 32.8001 56.8999 32.2001 56.1999C31.7001 55.5999 31.3001 54.9999 31.1001 54.3999C30.9001 53.6999 30.9001 53.0999 31.0001 52.4999C31.2001 51.8999 31.5001 51.2999 32.1001 50.6999C32.7001 50.0999 33.4001 49.7999 34.2001 49.6999C35.0001 49.6999 35.7001 49.9999 36.3001 50.6999C36.8001 51.2999 37.2001 51.8999 37.4001 52.4999C37.6001 53.1999 37.6001 53.7999 37.5001 54.3999C37.3001 54.9999 37.0001 55.5999 36.4001 56.1999C35.7001 56.8999 35.0001 57.1999 34.3001 57.1999ZM35.3001 53.6999C35.1001 53.2999 34.8001 52.8999 34.5001 52.4999C34.2001 52.1999 34.0001 52.0999 33.8001 51.9999C33.6001 51.9999 33.4001 51.9999 33.3001 52.0999C33.0001 52.3999 33.0001 52.6999 33.2001 53.0999C33.4001 53.4999 33.7001 53.8999 34.0001 54.2999C34.3001 54.5999 34.5001 54.6999 34.7001 54.7999C34.9001 54.7999 35.1001 54.7999 35.2001 54.6999C35.4001 54.3999 35.5001 54.0999 35.3001 53.6999Z" fill="white"/>
<path d="M45.6001 46.3999C44.6001 46.6999 43.6001 46.7999 42.6001 46.4999C41.6001 46.2999 40.8001 45.6999 40.0001 44.9999C39.0001 43.9999 38.3001 42.7999 38.0001 41.4999C37.7001 40.1999 37.7001 38.8999 38.1001 37.5999C38.5001 36.2999 39.3001 35.0999 40.4001 34.0999C41.3001 33.1999 42.3001 32.5999 43.3001 32.2999C44.3001 31.9999 45.3001 31.8999 46.3001 32.1999C47.3001 32.3999 48.1001 32.9999 48.9001 33.6999C49.9001 34.6999 50.6001 35.8999 50.9001 37.1999C51.2001 38.4999 51.2001 39.7999 50.8001 41.0999C50.4001 42.3999 49.6001 43.5999 48.5001 44.5999C47.6001 45.3999 46.6001 45.9999 45.6001 46.3999ZM47.2001 40.1999C47.3001 39.5999 47.3001 38.9999 47.0001 38.3999C46.8001 37.7999 46.4001 37.1999 45.9001 36.7999C45.4001 36.2999 44.8001 35.9999 44.2001 35.9999C43.6001 35.9999 43.0001 36.2999 42.4001 36.7999C41.9001 37.2999 41.6001 37.7999 41.5001 38.3999C41.4001 38.9999 41.4001 39.5999 41.7001 40.1999C41.9001 40.7999 42.3001 41.3999 42.8001 41.7999C43.3001 42.2999 43.9001 42.5999 44.5001 42.5999C45.1001 42.5999 45.7001 42.2999 46.3001 41.7999C46.8001 41.3999 47.1001 40.7999 47.2001 40.1999Z" fill="white"/>
<path d="M51.9001 27.7L53.1001 29.5L56.8001 25.7999L58.6001 28.5L54.9001 32.2L57.1001 35.5999L54.1001 38.5999L47.1001 27.9L54.4001 20.7L56.2001 23.4L51.9001 27.7Z" fill="white"/>
<path d="M60.2 19.6L61.4 21.4L65.1 17.7L66.9 20.4L63.2 24.1L65.4 27.5L62.4 30.5L55.4 19.8L62.7 12.7L64.5 15.4L60.2 19.6Z" fill="white"/>
</g>
<defs>
<linearGradient id="paint0_linear_78_49" x1="100.016" y1="-0.666743" x2="100.016" y2="60.7971" gradientUnits="userSpaceOnUse">
<stop stop-color="#7B0612"/>
<stop offset="0.9935" stop-color="#D9122A"/>
</linearGradient>
<linearGradient id="paint1_linear_78_49" x1="2.25306" y1="98.5095" x2="23.4896" y2="98.5095" gradientUnits="userSpaceOnUse">
<stop stop-color="#7B0612"/>
<stop offset="0.9935" stop-color="#D9122A"/>
</linearGradient>
<linearGradient id="paint2_linear_78_49" x1="55.0583" y1="55.9077" x2="25.0583" y2="15.241" gradientUnits="userSpaceOnUse">
<stop stop-color="#FF1C3D"/>
<stop offset="1" stop-color="#D41128"/>
</linearGradient>
<clipPath id="clip0_78_49">
<rect width="110.3" height="110.3" fill="white"/>
</clipPath>
</defs>
</svg>
