<svg width="200" height="176" viewBox="0 0 200 176" fill="none" xmlns="http://www.w3.org/2000/svg">
<path d="M115.186 16.983C121.541 13.3141 129.667 15.4914 133.336 21.8461V21.8461C137.004 28.2009 134.827 36.3266 128.472 39.9956L24.7929 99.8549C18.4382 103.524 10.3124 101.347 6.64352 94.9918V94.9918C2.9746 88.637 5.1519 80.5113 11.5066 76.8424L115.186 16.983Z" fill="white" fill-opacity="0.2"/>
<path d="M140.43 56.2486C146.785 52.5797 154.911 54.757 158.58 61.1117V61.1117C162.249 67.4665 160.071 75.5923 153.717 79.2612L49.3193 139.535C42.9645 143.204 34.8387 141.027 31.1698 134.672V134.672C27.5009 128.317 29.6782 120.191 36.033 116.522L140.43 56.2486Z" fill="white" fill-opacity="0.2"/>
<path d="M175.207 34.5338C181.561 30.8649 189.687 33.0422 193.356 39.3969V39.3969C197.025 45.7516 194.848 53.8774 188.493 57.5463L181.578 61.5385C175.224 65.2074 167.098 63.0301 163.429 56.6754V56.6754C159.76 50.3206 161.937 42.1948 168.292 38.5259L175.207 34.5338Z" fill="white" fill-opacity="0.2"/>
<path d="M152.388 100.682C158.743 97.0133 166.869 99.1906 170.538 105.545V105.545C174.207 111.9 172.029 120.026 165.675 123.695L87.108 169.055C80.7532 172.724 72.6275 170.547 68.9586 164.192V164.192C65.2896 157.837 67.4669 149.712 73.8217 146.043L152.388 100.682Z" fill="white" fill-opacity="0.2"/>
<path fill-rule="evenodd" clip-rule="evenodd" d="M95.6622 14.3233C97.1297 14.3233 98.3194 13.1337 98.3194 11.6661C98.3194 10.1985 97.1297 9.00882 95.6622 9.00882C94.1946 9.00882 93.0049 10.1985 93.0049 11.6661C93.0049 13.1337 94.1946 14.3233 95.6622 14.3233ZM95.6622 16.9806C98.5973 16.9806 100.977 14.6012 100.977 11.6661C100.977 8.73096 98.5973 6.35156 95.6622 6.35156C92.727 6.35156 90.3477 8.73096 90.3477 11.6661C90.3477 14.6012 92.727 16.9806 95.6622 16.9806Z" fill="white" fill-opacity="0.2"/>
<path fill-rule="evenodd" clip-rule="evenodd" d="M7.97171 60.8257C8.7055 60.8257 9.30035 60.2309 9.30035 59.4971C9.30035 58.7633 8.7055 58.1685 7.97171 58.1685C7.23793 58.1685 6.64308 58.7633 6.64308 59.4971C6.64308 60.2309 7.23793 60.8257 7.97171 60.8257ZM7.97171 62.1544C9.43928 62.1544 10.629 60.9647 10.629 59.4971C10.629 58.0295 9.43928 56.8398 7.97171 56.8398C6.50415 56.8398 5.31445 58.0295 5.31445 59.4971C5.31445 60.9647 6.50415 62.1544 7.97171 62.1544Z" fill="white" fill-opacity="0.2"/>
<path fill-rule="evenodd" clip-rule="evenodd" d="M179.365 119.283C180.099 119.283 180.694 118.688 180.694 117.954C180.694 117.22 180.099 116.626 179.365 116.626C178.631 116.626 178.037 117.22 178.037 117.954C178.037 118.688 178.631 119.283 179.365 119.283ZM179.365 120.611C180.833 120.611 182.023 119.422 182.023 117.954C182.023 116.487 180.833 115.297 179.365 115.297C177.898 115.297 176.708 116.487 176.708 117.954C176.708 119.422 177.898 120.611 179.365 120.611Z" fill="white" fill-opacity="0.2"/>
<path fill-rule="evenodd" clip-rule="evenodd" d="M144.821 173.759C145.555 173.759 146.15 173.164 146.15 172.431C146.15 171.697 145.555 171.102 144.821 171.102C144.088 171.102 143.493 171.697 143.493 172.431C143.493 173.164 144.088 173.759 144.821 173.759ZM144.821 175.088C146.289 175.088 147.479 173.898 147.479 172.431C147.479 170.963 146.289 169.773 144.821 169.773C143.354 169.773 142.164 170.963 142.164 172.431C142.164 173.898 143.354 175.088 144.821 175.088Z" fill="white" fill-opacity="0.2"/>
<path fill-rule="evenodd" clip-rule="evenodd" d="M43.8438 169.773C45.3114 169.773 46.5011 168.583 46.5011 167.115C46.5011 165.648 45.3114 164.458 43.8438 164.458C42.3763 164.458 41.1866 165.648 41.1866 167.115C41.1866 168.583 42.3763 169.773 43.8438 169.773ZM43.8438 172.43C46.7789 172.43 49.1583 170.05 49.1583 167.115C49.1583 164.18 46.7789 161.801 43.8438 161.801C40.9087 161.801 38.5293 164.18 38.5293 167.115C38.5293 170.05 40.9087 172.43 43.8438 172.43Z" fill="white" fill-opacity="0.2"/>
<path fill-rule="evenodd" clip-rule="evenodd" d="M165.396 1.16386C165.616 1.16386 165.794 1.34226 165.794 1.56232V7.11736C165.794 7.33743 165.616 7.51583 165.396 7.51583C165.176 7.51583 164.997 7.33743 164.997 7.11736V1.56232C164.997 1.34226 165.176 1.16386 165.396 1.16386Z" fill="white" fill-opacity="0.2"/>
<path fill-rule="evenodd" clip-rule="evenodd" d="M16.6281 114.137C16.8482 114.137 17.0266 114.315 17.0266 114.535V120.09C17.0266 120.31 16.8482 120.488 16.6281 120.488C16.4081 120.488 16.2297 120.31 16.2297 120.09V114.535C16.2297 114.315 16.4081 114.137 16.6281 114.137Z" fill="white" fill-opacity="0.2"/>
<path fill-rule="evenodd" clip-rule="evenodd" d="M162.778 146.023C162.998 146.023 163.176 146.202 163.176 146.422V151.977C163.176 152.197 162.998 152.375 162.778 152.375C162.557 152.375 162.379 152.197 162.379 151.977V146.422C162.379 146.202 162.557 146.023 162.778 146.023Z" fill="white" fill-opacity="0.2"/>
<path fill-rule="evenodd" clip-rule="evenodd" d="M162.22 4.33984C162.22 4.11978 162.398 3.94138 162.618 3.94138L168.173 3.94138C168.393 3.94138 168.572 4.11978 168.572 4.33984C168.572 4.55991 168.393 4.73831 168.173 4.73831L162.618 4.73831C162.398 4.73831 162.22 4.55991 162.22 4.33984Z" fill="white" fill-opacity="0.2"/>
<path fill-rule="evenodd" clip-rule="evenodd" d="M13.4522 117.312C13.4522 117.092 13.6306 116.914 13.8506 116.914L19.4057 116.914C19.6257 116.914 19.8041 117.092 19.8041 117.312C19.8041 117.533 19.6257 117.711 19.4057 117.711L13.8506 117.711C13.6306 117.711 13.4522 117.533 13.4522 117.312Z" fill="white" fill-opacity="0.2"/>
<path fill-rule="evenodd" clip-rule="evenodd" d="M159.602 149.199C159.602 148.979 159.78 148.801 160 148.801L165.555 148.801C165.775 148.801 165.954 148.979 165.954 149.199C165.954 149.419 165.775 149.598 165.555 149.598L160 149.598C159.78 149.598 159.602 149.419 159.602 149.199Z" fill="white" fill-opacity="0.2"/>
<path d="M148.807 86.7382C148.807 114.989 125.905 137.89 97.6542 137.89C69.4036 137.89 46.502 114.989 46.502 86.7382C46.502 58.4876 69.4036 35.5859 97.6542 35.5859C125.905 35.5859 148.807 58.4876 148.807 86.7382Z" fill="#D94141"/>
<path fill-rule="evenodd" clip-rule="evenodd" d="M97.6542 131.247C122.236 131.247 142.163 111.32 142.163 86.7382C142.163 62.1565 122.236 42.2291 97.6542 42.2291C73.0725 42.2291 53.1451 62.1565 53.1451 86.7382C53.1451 111.32 73.0725 131.247 97.6542 131.247ZM97.6542 137.89C125.905 137.89 148.807 114.989 148.807 86.7382C148.807 58.4876 125.905 35.5859 97.6542 35.5859C69.4036 35.5859 46.502 58.4876 46.502 86.7382C46.502 114.989 69.4036 137.89 97.6542 137.89Z" fill="#E76464"/>
<path fill-rule="evenodd" clip-rule="evenodd" d="M118.121 68.8787C119.293 70.0503 119.293 71.9497 118.121 73.1213L86.1213 105.121C84.9497 106.293 83.0503 106.293 81.8787 105.121C80.7071 103.95 80.7071 102.05 81.8787 100.879L113.879 68.8787C115.05 67.7071 116.95 67.7071 118.121 68.8787Z" fill="white"/>
<path fill-rule="evenodd" clip-rule="evenodd" d="M81.8787 68.8787C83.0503 67.7071 84.9497 67.7071 86.1213 68.8787L118.121 100.879C119.293 102.05 119.293 103.95 118.121 105.121C116.95 106.293 115.05 106.293 113.879 105.121L81.8787 73.1213C80.7071 71.9497 80.7071 70.0503 81.8787 68.8787Z" fill="white"/>
</svg>
