<svg width="200" height="176" viewBox="0 0 200 176" fill="none" xmlns="http://www.w3.org/2000/svg">
<path d="M115.186 16.9829C121.541 13.314 129.667 15.4913 133.336 21.8461V21.8461C137.004 28.2008 134.827 36.3266 128.472 39.9955L24.7929 99.8549C18.4382 103.524 10.3124 101.346 6.64352 94.9917V94.9917C2.9746 88.637 5.1519 80.5112 11.5066 76.8423L115.186 16.9829Z" fill="white" fill-opacity="0.2"/>
<path d="M140.43 56.2486C146.785 52.5797 154.911 54.757 158.58 61.1117V61.1117C162.249 67.4665 160.071 75.5923 153.717 79.2612L49.3193 139.535C42.9645 143.204 34.8387 141.027 31.1698 134.672V134.672C27.5009 128.317 29.6782 120.191 36.033 116.522L140.43 56.2486Z" fill="white" fill-opacity="0.2"/>
<path d="M175.207 34.5337C181.561 30.8648 189.687 33.0421 193.356 39.3968V39.3968C197.025 45.7516 194.848 53.8774 188.493 57.5463L181.578 61.5384C175.224 65.2073 167.098 63.03 163.429 56.6753V56.6753C159.76 50.3205 161.937 42.1948 168.292 38.5259L175.207 34.5337Z" fill="white" fill-opacity="0.2"/>
<path d="M152.388 100.682C158.743 97.0133 166.869 99.1906 170.538 105.545V105.545C174.207 111.9 172.029 120.026 165.675 123.695L87.108 169.055C80.7532 172.724 72.6275 170.547 68.9586 164.192V164.192C65.2896 157.837 67.4669 149.712 73.8217 146.043L152.388 100.682Z" fill="white" fill-opacity="0.2"/>
<path fill-rule="evenodd" clip-rule="evenodd" d="M95.6622 14.3233C97.1297 14.3233 98.3194 13.1336 98.3194 11.666C98.3194 10.1985 97.1297 9.00876 95.6622 9.00876C94.1946 9.00876 93.0049 10.1985 93.0049 11.666C93.0049 13.1336 94.1946 14.3233 95.6622 14.3233ZM95.6622 16.9805C98.5973 16.9805 100.977 14.6012 100.977 11.666C100.977 8.73089 98.5973 6.3515 95.6622 6.3515C92.727 6.3515 90.3477 8.73089 90.3477 11.666C90.3477 14.6012 92.727 16.9805 95.6622 16.9805Z" fill="white" fill-opacity="0.2"/>
<path fill-rule="evenodd" clip-rule="evenodd" d="M7.9722 60.8257C8.70599 60.8257 9.30083 60.2309 9.30083 59.4971C9.30083 58.7633 8.70599 58.1685 7.9722 58.1685C7.23842 58.1685 6.64357 58.7633 6.64357 59.4971C6.64357 60.2309 7.23842 60.8257 7.9722 60.8257ZM7.9722 62.1544C9.43977 62.1544 10.6295 60.9647 10.6295 59.4971C10.6295 58.0295 9.43977 56.8398 7.9722 56.8398C6.50464 56.8398 5.31494 58.0295 5.31494 59.4971C5.31494 60.9647 6.50464 62.1544 7.9722 62.1544Z" fill="white" fill-opacity="0.2"/>
<path fill-rule="evenodd" clip-rule="evenodd" d="M179.365 119.283C180.099 119.283 180.694 118.688 180.694 117.954C180.694 117.22 180.099 116.626 179.365 116.626C178.631 116.626 178.037 117.22 178.037 117.954C178.037 118.688 178.631 119.283 179.365 119.283ZM179.365 120.611C180.833 120.611 182.023 119.422 182.023 117.954C182.023 116.487 180.833 115.297 179.365 115.297C177.898 115.297 176.708 116.487 176.708 117.954C176.708 119.422 177.898 120.611 179.365 120.611Z" fill="white" fill-opacity="0.2"/>
<path fill-rule="evenodd" clip-rule="evenodd" d="M144.821 173.759C145.555 173.759 146.15 173.164 146.15 172.431C146.15 171.697 145.555 171.102 144.821 171.102C144.088 171.102 143.493 171.697 143.493 172.431C143.493 173.164 144.088 173.759 144.821 173.759ZM144.821 175.088C146.289 175.088 147.479 173.898 147.479 172.431C147.479 170.963 146.289 169.773 144.821 169.773C143.354 169.773 142.164 170.963 142.164 172.431C142.164 173.898 143.354 175.088 144.821 175.088Z" fill="white" fill-opacity="0.2"/>
<path fill-rule="evenodd" clip-rule="evenodd" d="M43.8443 169.773C45.3119 169.773 46.5016 168.583 46.5016 167.115C46.5016 165.648 45.3119 164.458 43.8443 164.458C42.3767 164.458 41.187 165.648 41.187 167.115C41.187 168.583 42.3767 169.773 43.8443 169.773ZM43.8443 172.43C46.7794 172.43 49.1588 170.05 49.1588 167.115C49.1588 164.18 46.7794 161.801 43.8443 161.801C40.9092 161.801 38.5298 164.18 38.5298 167.115C38.5298 170.05 40.9092 172.43 43.8443 172.43Z" fill="white" fill-opacity="0.2"/>
<path fill-rule="evenodd" clip-rule="evenodd" d="M165.396 1.1638C165.616 1.1638 165.794 1.3422 165.794 1.56226V7.1173C165.794 7.33737 165.616 7.51577 165.396 7.51577C165.176 7.51577 164.997 7.33737 164.997 7.1173V1.56226C164.997 1.3422 165.176 1.1638 165.396 1.1638Z" fill="white" fill-opacity="0.2"/>
<path fill-rule="evenodd" clip-rule="evenodd" d="M16.6286 114.137C16.8487 114.137 17.0271 114.315 17.0271 114.535V120.09C17.0271 120.31 16.8487 120.488 16.6286 120.488C16.4086 120.488 16.2302 120.31 16.2302 120.09V114.535C16.2302 114.315 16.4086 114.137 16.6286 114.137Z" fill="white" fill-opacity="0.2"/>
<path fill-rule="evenodd" clip-rule="evenodd" d="M162.778 146.023C162.998 146.023 163.176 146.202 163.176 146.422V151.977C163.176 152.197 162.998 152.375 162.778 152.375C162.557 152.375 162.379 152.197 162.379 151.977V146.422C162.379 146.202 162.557 146.023 162.778 146.023Z" fill="white" fill-opacity="0.2"/>
<path fill-rule="evenodd" clip-rule="evenodd" d="M162.22 4.33978C162.22 4.11972 162.398 3.94132 162.618 3.94132L168.173 3.94132C168.393 3.94132 168.572 4.11972 168.572 4.33978C168.572 4.55985 168.393 4.73825 168.173 4.73825L162.618 4.73825C162.398 4.73825 162.22 4.55985 162.22 4.33978Z" fill="white" fill-opacity="0.2"/>
<path fill-rule="evenodd" clip-rule="evenodd" d="M13.4526 117.312C13.4526 117.092 13.631 116.914 13.8511 116.914L19.4061 116.914C19.6262 116.914 19.8046 117.092 19.8046 117.312C19.8046 117.533 19.6262 117.711 19.4061 117.711L13.8511 117.711C13.631 117.711 13.4526 117.533 13.4526 117.312Z" fill="white" fill-opacity="0.2"/>
<path fill-rule="evenodd" clip-rule="evenodd" d="M159.602 149.199C159.602 148.979 159.78 148.801 160 148.801L165.555 148.801C165.775 148.801 165.954 148.979 165.954 149.199C165.954 149.419 165.775 149.598 165.555 149.598L160 149.598C159.78 149.598 159.602 149.419 159.602 149.199Z" fill="white" fill-opacity="0.2"/>
<circle cx="97.9999" cy="85.0023" r="45.6" fill="white"/>
<path d="M111.566 96.118C111.719 96.679 111.77 97.24 111.77 97.75C111.923 101.065 110.444 104.635 108.047 106.828C106.925 107.797 105.089 108.817 103.661 109.225C99.173 110.806 94.685 108.562 92.033 105.961C96.827 104.839 99.632 101.371 100.55 97.75C101.162 94.639 99.887 92.038 99.377 88.978C98.867 86.02 98.969 83.521 100.04 80.818C100.805 82.297 101.621 83.827 102.59 85C105.65 88.978 110.495 90.712 111.566 96.118ZM149 85C149 113.05 126.05 136 98 136C69.95 136 47 113.05 47 85C47 56.95 69.95 34 98 34C126.05 34 149 56.95 149 85ZM124.316 87.856L123.806 86.836C122.99 85 120.695 81.838 120.695 81.838C119.777 80.665 118.655 79.594 117.635 78.574C114.932 76.177 111.923 74.494 109.322 71.995C103.355 66.181 102.029 56.644 105.854 49.3C102.029 50.218 98.714 52.258 95.858 54.553C85.505 62.815 81.425 77.35 86.321 89.845C86.474 90.253 86.627 90.661 86.627 91.171C86.627 92.038 86.015 92.803 85.25 93.16C84.281 93.517 83.363 93.313 82.7 92.65C82.343 92.446 82.19 92.242 82.037 91.987C77.6 86.326 76.784 78.166 79.793 71.689C73.112 77.095 69.491 86.224 69.95 94.792C70.256 96.781 70.46 98.77 71.174 100.759C71.735 103.156 72.806 105.4 74.03 107.644C78.314 114.478 85.811 119.425 93.869 120.394C102.437 121.465 111.617 119.935 118.196 114.07C125.54 107.44 128.09 96.883 124.316 87.856Z" fill="#FF7245"/>
</svg>
