<svg width="200" height="175" viewBox="0 0 200 175" fill="none" xmlns="http://www.w3.org/2000/svg">
<path d="M115.186 15.9842C121.54 12.3153 129.666 14.4926 133.335 20.8473V20.8473C137.004 27.2021 134.827 35.3278 128.472 38.9967L24.7926 98.8561C18.4378 102.525 10.3121 100.348 6.64315 93.993V93.993C2.97424 87.6382 5.15153 79.5125 11.5063 75.8435L115.186 15.9842Z" fill="white" fill-opacity="0.2"/>
<path d="M140.43 55.2498C146.785 51.5809 154.91 53.7582 158.579 60.1129V60.1129C162.248 66.4677 160.071 74.5935 153.716 78.2624L49.3189 138.536C42.9642 142.205 34.8384 140.028 31.1695 133.673V133.673C27.5006 127.318 29.6778 119.193 36.0326 115.524L140.43 55.2498Z" fill="white" fill-opacity="0.2"/>
<path d="M175.206 33.535C181.561 29.8661 189.687 32.0434 193.356 38.3981V38.3981C197.025 44.7528 194.847 52.8786 188.493 56.5475L181.578 60.5397C175.223 64.2086 167.097 62.0313 163.429 55.6765V55.6765C159.76 49.3218 161.937 41.196 168.292 37.5271L175.206 33.535Z" fill="white" fill-opacity="0.2"/>
<path d="M152.388 99.6834C158.743 96.0145 166.868 98.1918 170.537 104.547V104.547C174.206 110.901 172.029 119.027 165.674 122.696L87.1076 168.056C80.7529 171.725 72.6271 169.548 68.9582 163.193V163.193C65.2893 156.839 67.4666 148.713 73.8213 145.044L152.388 99.6834Z" fill="white" fill-opacity="0.2"/>
<path fill-rule="evenodd" clip-rule="evenodd" d="M95.6618 13.3245C97.1294 13.3245 98.3191 12.1348 98.3191 10.6673C98.3191 9.19971 97.1294 8.01001 95.6618 8.01001C94.1942 8.01001 93.0046 9.19971 93.0046 10.6673C93.0046 12.1348 94.1942 13.3245 95.6618 13.3245ZM95.6618 15.9818C98.5969 15.9818 100.976 13.6024 100.976 10.6673C100.976 7.73215 98.5969 5.35275 95.6618 5.35275C92.7267 5.35275 90.3473 7.73215 90.3473 10.6673C90.3473 13.6024 92.7267 15.9818 95.6618 15.9818Z" fill="white" fill-opacity="0.2"/>
<path fill-rule="evenodd" clip-rule="evenodd" d="M7.97135 59.8269C8.70513 59.8269 9.29998 59.2321 9.29998 58.4983C9.29998 57.7645 8.70513 57.1697 7.97135 57.1697C7.23757 57.1697 6.64272 57.7645 6.64272 58.4983C6.64272 59.2321 7.23757 59.8269 7.97135 59.8269ZM7.97135 61.1556C9.43891 61.1556 10.6286 59.9659 10.6286 58.4983C10.6286 57.0307 9.43891 55.841 7.97135 55.841C6.50378 55.841 5.31409 57.0307 5.31409 58.4983C5.31409 59.9659 6.50378 61.1556 7.97135 61.1556Z" fill="white" fill-opacity="0.2"/>
<path fill-rule="evenodd" clip-rule="evenodd" d="M179.365 118.284C180.099 118.284 180.694 117.689 180.694 116.955C180.694 116.222 180.099 115.627 179.365 115.627C178.631 115.627 178.036 116.222 178.036 116.955C178.036 117.689 178.631 118.284 179.365 118.284ZM179.365 119.613C180.832 119.613 182.022 118.423 182.022 116.955C182.022 115.488 180.832 114.298 179.365 114.298C177.897 114.298 176.708 115.488 176.708 116.955C176.708 118.423 177.897 119.613 179.365 119.613Z" fill="white" fill-opacity="0.2"/>
<path fill-rule="evenodd" clip-rule="evenodd" d="M144.821 172.761C145.555 172.761 146.15 172.166 146.15 171.432C146.15 170.698 145.555 170.103 144.821 170.103C144.087 170.103 143.492 170.698 143.492 171.432C143.492 172.166 144.087 172.761 144.821 172.761ZM144.821 174.089C146.289 174.089 147.478 172.899 147.478 171.432C147.478 169.964 146.289 168.775 144.821 168.775C143.353 168.775 142.164 169.964 142.164 171.432C142.164 172.899 143.353 174.089 144.821 174.089Z" fill="white" fill-opacity="0.2"/>
<path fill-rule="evenodd" clip-rule="evenodd" d="M43.8435 168.774C45.311 168.774 46.5007 167.584 46.5007 166.116C46.5007 164.649 45.311 163.459 43.8435 163.459C42.3759 163.459 41.1862 164.649 41.1862 166.116C41.1862 167.584 42.3759 168.774 43.8435 168.774ZM43.8435 171.431C46.7786 171.431 49.158 169.052 49.158 166.116C49.158 163.181 46.7786 160.802 43.8435 160.802C40.9083 160.802 38.5289 163.181 38.5289 166.116C38.5289 169.052 40.9083 171.431 43.8435 171.431Z" fill="white" fill-opacity="0.2"/>
<path fill-rule="evenodd" clip-rule="evenodd" d="M165.395 0.16505C165.615 0.16505 165.794 0.343449 165.794 0.563515V6.11855C165.794 6.33862 165.615 6.51702 165.395 6.51702C165.175 6.51702 164.997 6.33862 164.997 6.11855V0.563514C164.997 0.343449 165.175 0.16505 165.395 0.16505Z" fill="white" fill-opacity="0.2"/>
<path fill-rule="evenodd" clip-rule="evenodd" d="M16.6278 113.138C16.8478 113.138 17.0262 113.316 17.0262 113.536V119.091C17.0262 119.311 16.8478 119.49 16.6278 119.49C16.4077 119.49 16.2293 119.311 16.2293 119.091V113.536C16.2293 113.316 16.4077 113.138 16.6278 113.138Z" fill="white" fill-opacity="0.2"/>
<path fill-rule="evenodd" clip-rule="evenodd" d="M162.777 145.024C162.997 145.024 163.176 145.203 163.176 145.423V150.978C163.176 151.198 162.997 151.376 162.777 151.376C162.557 151.376 162.379 151.198 162.379 150.978V145.423C162.379 145.203 162.557 145.024 162.777 145.024Z" fill="white" fill-opacity="0.2"/>
<path fill-rule="evenodd" clip-rule="evenodd" d="M162.219 3.34103C162.219 3.12097 162.398 2.94257 162.618 2.94257L168.173 2.94257C168.393 2.94257 168.571 3.12097 168.571 3.34103C168.571 3.5611 168.393 3.7395 168.173 3.7395L162.618 3.7395C162.398 3.7395 162.219 3.5611 162.219 3.34103Z" fill="white" fill-opacity="0.2"/>
<path fill-rule="evenodd" clip-rule="evenodd" d="M13.4518 116.314C13.4518 116.094 13.6302 115.915 13.8503 115.915L19.4053 115.915C19.6254 115.915 19.8038 116.094 19.8038 116.314C19.8038 116.534 19.6254 116.712 19.4053 116.712L13.8503 116.712C13.6302 116.712 13.4518 116.534 13.4518 116.314Z" fill="white" fill-opacity="0.2"/>
<path fill-rule="evenodd" clip-rule="evenodd" d="M159.601 148.2C159.601 147.98 159.78 147.802 160 147.802L165.555 147.802C165.775 147.802 165.953 147.98 165.953 148.2C165.953 148.42 165.775 148.599 165.555 148.599L160 148.599C159.78 148.599 159.601 148.42 159.601 148.2Z" fill="white" fill-opacity="0.2"/>
<path d="M148.806 85.7394C148.806 113.99 125.904 136.892 97.6539 136.892C69.4032 136.892 46.5016 113.99 46.5016 85.7394C46.5016 57.4888 69.4032 34.5871 97.6539 34.5871C125.904 34.5871 148.806 57.4888 148.806 85.7394Z" fill="#ED9024"/>
<path fill-rule="evenodd" clip-rule="evenodd" d="M97.6539 130.249C122.236 130.249 142.163 110.321 142.163 85.7394C142.163 61.1577 122.236 41.2303 97.6539 41.2303C73.0722 41.2303 53.1447 61.1577 53.1447 85.7394C53.1447 110.321 73.0722 130.249 97.6539 130.249ZM97.6539 136.892C125.904 136.892 148.806 113.99 148.806 85.7394C148.806 57.4888 125.904 34.5871 97.6539 34.5871C69.4032 34.5871 46.5016 57.4888 46.5016 85.7394C46.5016 113.99 69.4032 136.892 97.6539 136.892Z" fill="#FFB36D"/>
<path d="M84.3338 64H111.667V70.2941C111.667 77.842 105.548 83.9608 98.0005 83.9608C90.4526 83.9608 84.3338 77.842 84.3338 70.2941V64Z" stroke="white" stroke-width="4"/>
<path d="M84.3338 107H111.667V100.706C111.667 93.158 105.548 87.0392 98.0005 87.0392C90.4526 87.0392 84.3338 93.158 84.3338 100.706V107Z" stroke="white" stroke-width="4"/>
<circle cx="98" cy="93" r="3" fill="white"/>
<path d="M75.8828 62.9216H120.118" stroke="white" stroke-width="4" stroke-linecap="round"/>
<path d="M75.8828 108.078H120.118" stroke="white" stroke-width="4" stroke-linecap="round"/>
</svg>
