
<svg xmlns="http://www.w3.org/2000/svg" xmlns:xlink="http://www.w3.org/1999/xlink" width="109" height="109" viewBox="0 0 109 109">
  <defs>
    <linearGradient id="linear-gradient" x1="0.5" x2="0.5" y2="1" gradientUnits="objectBoundingBox">
      <stop offset="0" stop-color="#163f8c"/>
      <stop offset="0.478" stop-color="#8f65be"/>
      <stop offset="1" stop-color="#e740f0"/>
    </linearGradient>
    <filter id="Ellipse_159" x="0" y="0" width="109" height="109" filterUnits="userSpaceOnUse">
      <feOffset dy="9" input="SourceAlpha"/>
      <feGaussianBlur stdDeviation="12" result="blur"/>
      <feFlood flood-color="#fff" flood-opacity="0.475"/>
      <feComposite operator="in" in2="blur"/>
      <feComposite in="SourceGraphic"/>
    </filter>
  </defs>
  <g id="Group_1130" data-name="Group 1130" transform="translate(-1576 -23)">
    <circle id="Ellipse_158" data-name="Ellipse 158" cx="20.5" cy="20.5" r="20.5" transform="translate(1610 48)" fill="url(#linear-gradient)"/>
    <g transform="matrix(1, 0, 0, 1, 1576, 23)" filter="url(#Ellipse_159)">
      <circle id="Ellipse_159-2" data-name="Ellipse 159" cx="18.5" cy="18.5" r="18.5" transform="translate(36 27)" fill="#fff"/>
    </g>
    <path id="Icon_awesome-user-alt" data-name="Icon awesome-user-alt" d="M10.954,12.323A6.162,6.162,0,1,0,4.792,6.162,6.163,6.163,0,0,0,10.954,12.323Zm5.477,1.369H14.073a7.449,7.449,0,0,1-6.239,0H5.477A5.477,5.477,0,0,0,0,19.17v.685a2.054,2.054,0,0,0,2.054,2.054h17.8a2.054,2.054,0,0,0,2.054-2.054V19.17A5.477,5.477,0,0,0,16.431,13.693Z" transform="translate(1619.546 57.046)" fill="url(#linear-gradient)"/>
  </g>
</svg>
