<svg style="height: 40px" xmlns="http://www.w3.org/2000/svg" viewBox="0 0 125 30" class="adshares-logo"><path  style="fill:#fff;" class="adshares-signet" d="M28.678 1.007v17.487a3.011 3.011 0 0 1-.869 1.957 2.849 2.849 0 0 1-2.11.91 2.817 2.817 0 0 1-2.099-.91 3.039 3.039 0 0 1-.878-2.189v-.192a9.884 9.884 0 0 0-1.158-4.721 11.015 11.015 0 0 0-1.994-2.671q-.39-.394-.795-.732a10.1 10.1 0 0 0-6.486-2.418h-.232q-4.677 0-7.862 3.092Q1 13.712 1 18.243v.02a10.31 10.31 0 0 0 3.183 7.582 10.514 10.514 0 0 0 7.674 3.155 10.491 10.491 0 0 0 5.919-1.721q-.38-.32-.74-.676a10.934 10.934 0 0 1-3.199-6.023 2.898 2.898 0 0 1-4.096-.123 3.042 3.042 0 0 1-.878-2.194 3.053 3.053 0 0 1 .869-2.203 2.833 2.833 0 0 1 1.55-.85 3.148 3.148 0 0 1 .558-.049 2.833 2.833 0 0 1 1.83.625l.183.176a3.593 3.593 0 0 1 .927 1.696 3.435 3.435 0 0 1 .051.605 11.207 11.207 0 0 0 .232 2.224 9.613 9.613 0 0 0 2.838 5.247 22.17 22.17 0 0 0 .885.797 10.38 10.38 0 0 0 6.345 2.448h.558c2.453 0 5.096-.537 7.665-3.143a10.656 10.656 0 0 0 3.174-7.586V1zm-5.06 14.957a2.819 2.819 0 0 1 2.05-.839 2.847 2.847 0 0 1 1.879.672V7.61a10.774 10.774 0 0 0-1.682-.132h-.197a10.996 10.996 0 0 0-6.083 1.8 12.161 12.161 0 0 1 .913.839 10.934 10.934 0 0 1 3.12 5.847z" fill="#5fb2f9"></path><path  style="fill:#fff;" class="adshares-name" d="M124 13.6c-.905-.832-2.218-1.27-3.386-1.27-1.926 0-4 .95-4 3.24 0 1.868 1.328 2.54 2.64 2.962 1.357.438 2.145.686 2.145 1.474 0 .832-.67 1.124-1.43 1.124a3.06 3.06 0 0 1-2.233-1.094l-1.635 1.664c.905.95 2.393 1.488 3.867 1.488 2.043 0 3.955-1.065 3.955-3.444 0-2.058-1.8-2.656-3.21-3.108-.978-.306-1.59-.525-1.59-1.21 0-.817.803-1.036 1.445-1.036s1.416.35 1.84.9zm-8.704 9.325v-2.13h-4.8V18.65h4.3v-2h-4.3v-1.94h4.54v-2.116h-6.946v10.332zm-8.422 0l-2.7-4.422c1.328-.41 2.145-1.4 2.145-2.787 0-2.364-1.97-3.123-3.955-3.123h-3.94v10.332h2.452v-4.1h.846l2.233 4.1zm-3.02-7.165c0 1.05-1.007 1.255-1.8 1.255h-1.182v-2.408h1.328c.744 0 1.664.2 1.664 1.153zm-6.283 7.165l-4.3-10.332h-2.422l-4.334 10.332h2.714l.76-2.03h4l.803 2.03zm-4.26-4.028H90.7l1.313-3.546zm-7.642 4.028V12.593H83.16v3.91h-4.028v-3.91h-2.495v10.332h2.495v-4.32h4.028v4.32zM75.05 13.6c-.905-.832-2.218-1.27-3.386-1.27-1.926 0-4 .95-4 3.24 0 1.868 1.328 2.54 2.64 2.962 1.357.438 2.145.686 2.145 1.474 0 .832-.67 1.124-1.43 1.124a3.06 3.06 0 0 1-2.233-1.094L67.155 21.7c.905.95 2.393 1.488 3.867 1.488 2.043 0 3.955-1.065 3.955-3.444 0-2.058-1.8-2.656-3.21-3.108-.978-.306-1.59-.525-1.59-1.21 0-.817.803-1.036 1.445-1.036s1.416.35 1.84.9zm-8.7 4.13c0-3.91-2.977-5.137-5.9-5.137h-3.736v10.332h3.853c2.846 0 5.794-1.56 5.794-5.195zm-2.598 0c0 2.306-1.65 3.035-3.43 3.035H59.15v-6.042h1.24c1.722 0 3.37.686 3.37 3.006zm-7.903 5.195l-4.29-10.332h-2.422l-4.334 10.332h2.714l.76-2.03h4l.803 2.03zm-4.26-4.028H49l1.313-3.546z" fill="#0f1423"></path></svg>