<?xml version="1.0" encoding="utf-8"?>
<!-- Generator: Adobe Illustrator 23.0.1, SVG Export Plug-In . SVG Version: 6.00 Build 0)  -->
<svg version="1.1" id="Layer_1" xmlns="http://www.w3.org/2000/svg" xmlns:xlink="http://www.w3.org/1999/xlink" x="0px" y="0px"
	 viewBox="0 0 986.9 233.5" style="enable-background:new 0 0 986.9 233.5;" xml:space="preserve">
<style type="text/css">
	.st0{enable-background:new    ;}
	.st1{fill:#212529;}
	.st2{fill:#E11337;}
	.st3{fill:#FFFFFF;}
</style>
<g>
	<g class="st0">
		<path class="st1" d="M556.6,53.5v20.6h-62.5c-3.5,0-6.3,1.2-8.2,3.5c-2,2.3-3,6.3-3,12c0,10.3,3.7,15.5,11.2,15.5h43
			c4.6,0,8.7,1,12.2,3c3.5,2,6.5,4.6,9,7.9c2.4,3.3,4.3,7.3,5.6,11.8c1.3,4.5,1.9,9.5,1.9,14.8c0,13.2-2.5,23.4-7.5,30.6
			c-5,7.3-12.5,10.9-22.4,10.9h-76.1v-20.2h69.4c2.7,0,4.9-1.4,6.5-4.1c1.6-2.7,2.4-6.9,2.4-12.6c0-5.7-0.8-9.8-2.4-12.4
			c-1.6-2.6-3.8-3.9-6.5-3.9h-44.6c-4.9,0-9.2-1-12.8-3c-3.7-2-6.7-4.7-9.1-8.2c-2.4-3.5-4.2-7.7-5.4-12.5c-1.2-4.8-1.8-10-1.8-15.6
			c0-11.9,2.6-21.3,7.7-28c5.2-6.7,13.1-10.1,23.8-10.1H556.6z"/>
		<path class="st1" d="M604.4,53.5l6.3,93.3h1L625,86.3h19.8l12.8,60.1h1.2l6.1-92.8H695l-16.3,130.5h-34l-9.6-48.9h-1l-9.2,48.9
			h-34L574.7,53.5H604.4z"/>
		<path class="st1" d="M779.7,53.5c6.2,0,11.5,0.6,15.8,1.8c4.3,1.2,7.8,3.4,10.5,6.4c2.7,3.1,4.7,7.2,5.9,12.4
			c1.2,5.2,1.8,11.8,1.8,19.6v90.2h-79.4c-4.3,0-8.3-1-11.9-3.1c-3.6-2-6.7-4.9-9.4-8.5c-2.6-3.6-4.7-7.9-6.1-12.8
			c-1.4-5-2.1-10.3-2.1-16.2c0-5.7,0.7-11.1,2.1-16.1c1.4-5,3.5-9.4,6.1-13.1c2.6-3.7,5.8-6.6,9.4-8.8c3.6-2.1,7.6-3.2,11.9-3.2
			h47.8V91.2c0-6.8-0.9-11.3-2.7-13.6c-1.8-2.3-5-3.5-9.5-3.5h-48.7V53.5H779.7z M756.5,122.4c-4.2,0-7.7,0.3-10.4,1
			c-2.7,0.7-4.9,1.8-6.4,3.4c-1.6,1.6-2.6,3.6-3.3,6c-0.6,2.4-0.9,5.4-0.9,9c0,14.8,2.7,22.2,8.1,22.2H782v-41.5H756.5z"/>
		<path class="st1" d="M903.9,53.5c5.8,0,10.9,0.7,15.3,2.1c4.3,1.4,7.9,3.8,10.7,7.1c2.8,3.3,4.9,7.7,6.2,13.2
			c1.4,5.5,2,12.3,2,20.3v45c0,8-0.6,14.7-1.9,20.2c-1.3,5.4-3.3,9.8-6,13.1c-2.7,3.3-6.2,5.7-10.6,7.2c-4.3,1.5-9.6,2.2-15.7,2.2
			h-43.4v49.5h-31.4v-180H903.9z M860.6,163.9h33.4c2.3,0,4.3-0.3,5.9-0.9c1.6-0.6,2.9-1.7,3.9-3.3c0.9-1.6,1.6-3.7,2-6.3
			c0.4-2.6,0.6-6.1,0.6-10.3V93.2c0-4.6-0.3-8.2-1-10.8c-0.7-2.6-1.9-4.5-3.7-5.7c-1.8-1.2-4.2-2-7.3-2.2c-3.1-0.3-7.1-0.4-11.8-0.4
			h-22V163.9z"/>
	</g>
	<g class="st0">
		<path class="st2" d="M219.7,52.4c3.8,0,7.2,0.9,10.3,2.7c3.1,1.8,5.7,4.4,7.9,7.6c2.2,3.2,3.9,7,5.1,11.4
			c1.2,4.4,1.8,9.1,1.8,14.1c0,6.3-0.9,11.6-2.6,16.2c-1.7,4.5-4.5,8.2-8.4,11c1.9,1.2,3.7,2.9,5.3,5.3c1.6,2.3,3,4.9,4.2,7.7
			c1.2,2.8,2.1,5.8,2.7,9c0.6,3.2,1,6.2,1,9.1c0,5.2-0.6,10-1.8,14.4c-1.2,4.4-2.9,8.3-5.1,11.6c-2.2,3.3-4.8,5.9-7.9,7.8
			c-3.1,1.9-6.5,2.8-10.3,2.8h-60.4V52.4H219.7z M186.6,108.4h22.8c7.5,0,11.3-6.5,11.3-19.6c0-6.5-1-11.4-2.9-14.9
			c-1.9-3.5-4.7-5.3-8.4-5.3h-22.8V108.4z M186.6,166.9h24.9c3.4,0,6.2-2,8.3-5.9c2.1-3.9,3.2-9.1,3.2-15.4c0-2.9-0.3-5.6-0.8-8.2
			c-0.5-2.5-1.3-4.7-2.3-6.6c-1-1.9-2.2-3.4-3.6-4.4c-1.4-1.1-3-1.6-4.7-1.6h-24.9V166.9z"/>
		<path class="st2" d="M343,52.4v16.3h-54.6v40.7h39.8v16h-39.8v41.5H343v16h-80V52.4H343z"/>
		<path class="st2" d="M441.7,52.4v16.3h-54.6v40.7h39.8v16h-39.8v41.5h54.6v16h-80V52.4H441.7z"/>
	</g>
	<g>
		<path class="st1" d="M76.7,188.8c-0.4-0.3-0.5-0.7-0.6-1.1c-1.1-3.2-2.2-6.5-3.2-9.7c-0.2-0.7-0.6-1.2-1.4-1.5
			c-9.5-4-15.7-11-19-20.7c-0.6-1.7-0.6-1.7-2.4-1.7c-10.7,0-21.4,0-32.2,0c-1.8,0-1.8,0-1.8-1.8c0-10.4,0.1-20.9,0-31.3
			c0-3.7,0.8-7,2.1-10.4C22,101.3,29,96.4,38.6,94.7c4.8-0.8,9.5-0.8,14.3-0.3c0.3,0,0.5,0,0.8,0.1c1,0.1,1.4-0.3,1.4-1.3
			c0.1-3.2,0.6-6.3,1.9-9.2c1.8-4.2,4.5-7.7,8.4-10.2c0.7-0.4,1-0.9,1-1.8C66,65.3,64,59.3,59.9,53.9c-0.7-0.9-1.3-1.5-2.8-1
			c-2.3,0.9-4.9-0.9-5.5-3.5c-0.5-2.3,1.3-4.7,3.8-5.1c2.2-0.3,3.7,0.4,4.7,2.5c0.3,0.7,0.7,1.3,1.2,1.8c5.3,6.5,8.5,13.9,9.6,22.2
			c0.2,1.3,0.3,1.4,1.6,1.2c2.6-0.3,5.2-0.4,7.8,0c1,0.2,1.4-0.2,1.6-1.2c1.1-8.3,4.3-15.7,9.6-22.2c0.5-0.6,0.9-1.3,1.3-2
			c1.1-2.2,3.6-3.1,6.1-2c1.9,0.9,3,3.5,2.3,5.4c-0.8,2.2-3.6,3.6-5.7,2.7c-1-0.4-1.5-0.1-2.1,0.6c-3.8,4.8-5.9,10.2-6.7,16.3
			c-0.3,2.2,0.2,3.6,2.2,5c6,4.4,8.6,10.6,9,17.9c0.1,1.8,0.2,1.9,2,1.7c5.7-0.6,11.4-0.5,17,0.8c9.2,2.3,15.5,7.9,18.9,16.8
			c1.1,2.9,1.7,5.8,1.7,8.9c-0.1,10.4,0,20.8,0,31.2c0,1.9,0,1.9-1.9,1.9c-10.8,0-21.5,0-32.3,0c-1.7,0-1.7,0-2.2,1.6
			c-3.4,9.5-9.6,16.5-18.9,20.6c-1.2,0.5-1.8,1.2-2.2,2.4c-0.8,3-1.7,6-2.6,9C77.1,188,77.1,188.5,76.7,188.8z M66.3,103.1
			c0.1,0.1,0.2,0.2,0.2,0.2c-1.5,1.2-3,2.4-4.5,3.6c-13.9,11.1-25.2,24.3-33.8,39.9c-0.6,1.1-0.6,1.1,0.6,1.1
			c7.2,0,14.5-0.2,21.7,0.1c3.9,0.2,6.9-1.2,9.8-3.4c0.1-0.1,0.2-0.2,0.3-0.3c5.9-4.8,9.1-11,9.1-18.7s0-15.4,0-23.1
			c0-1-0.3-1.4-1.3-1.5c-7.1-0.8-14.3-1.2-21.4-0.6c-4,0.3-7.9,0.5-11.6,2.5c-7.9,4.3-12.1,10.6-12,19.7c0.1,8,0,15.9,0,23.9
			c0,0.4-0.1,0.8,0.1,1.1c0.1,0,0.2-0.1,0.2-0.1c0.3-0.5,0.5-0.9,0.8-1.4c7.9-14.1,18-26.4,31.1-36C59,107.5,62.6,105.1,66.3,103.1z
			 M86.1,103c19,10.3,33.1,25.6,43.2,44.8c0.1-0.4,0.1-0.6,0.1-0.7c0-9,0.1-18,0-27c-0.1-5.3-2.2-9.8-6.2-13.3
			c-4.8-4.3-10.5-6.2-16.9-6.5c-7.3-0.3-14.6-0.1-21.9,0.7c-0.9,0.1-1.3,0.4-1.3,1.4c0,8.3,0,16.6,0,24.8c0,0.4,0,0.7,0.1,1.1
			c1.5,8.7,6.2,15.2,14.2,19.2c0.5,0.2,0.9,0.4,1.5,0.4c8.4,0,16.9,0,25.3,0c1,0,1-0.3,0.6-1c-5.8-10.7-13-20.4-21.5-29.1
			C97.9,112.4,92.1,107.5,86.1,103z M85.6,95.6c2.2,0,4.4,0,6.5,0c0.7,0,0.9-0.2,0.7-0.9c-0.3-1.2-0.5-2.5-0.8-3.7
			c-2.1-7.3-6.6-12.3-14.2-13.9C77.2,77,76.6,76.9,76,77c-2.5,0.6-4.9,1.5-7.1,2.9c-5.2,3.4-7.8,8.3-8.8,14.3
			c-0.2,1.4-0.2,1.4,1.2,1.4c4.6,0,9.3,0,13.9,0c0.9,0,1.6,0.6,2.5,0.4C80.3,95.6,83,95.7,85.6,95.6z M69.7,151.4
			c-3,0.1-5.7,1-8.3,2.2c-0.5,0.2-0.6,0.6-0.4,1c0.4,1.5,1,2.9,1.7,4.2c3.1,5.6,7.9,9.1,13.5,11.7c0.4,0.2,0.8,0,1.1-0.1
			c2.2-1.1,4.3-2.3,6.2-3.8c3.9-3.1,6.8-6.9,8.3-11.7c0.2-0.7,0.2-1.1-0.6-1.4c-1.3-0.6-2.5-1.1-3.9-1.5c-3.6-1-7.1-0.8-10.3,1.5
			c-0.5,0.4-0.8,0.1-1.1-0.1C74.1,152.1,71.9,151.5,69.7,151.4z M63.6,147.9c3-0.6,5.8-0.9,8.5-0.6c3,0.4,6,0.4,9.1,0
			c2.6-0.3,5.3,0,8.2,0.6c-5.2-6.4-9.3-13.1-12.6-20.6C72.9,134.6,68.8,141.4,63.6,147.9z"/>
		<path class="st2" d="M66.3,103.1c-3.8,2-7.3,4.3-10.7,6.9c-13.1,9.7-23.1,22-31.1,36c-0.3,0.5-0.5,0.9-0.8,1.4
			c0,0.1-0.1,0.1-0.2,0.1c-0.2-0.4-0.1-0.8-0.1-1.1c0-8,0.1-15.9,0-23.9c-0.1-9.1,4.1-15.4,12-19.7c3.7-2,7.6-2.2,11.6-2.5
			c7.2-0.5,14.3-0.2,21.4,0.6c1,0.1,1.3,0.5,1.3,1.5c0,7.7,0,15.4,0,23.1s-3.2,13.9-9.1,18.7c-0.1,0.1-0.2,0.2-0.3,0.3
			c-2.9,2.3-5.9,3.6-9.8,3.4c-7.2-0.3-14.5-0.1-21.7-0.1c-1.2,0-1.2,0-0.6-1.1c8.6-15.6,19.9-28.8,33.8-39.9c1.5-1.2,3-2.4,4.5-3.6
			c0.1-0.1,0.3-0.2,0.2-0.3C66.6,102.9,66.5,103,66.3,103.1z"/>
		<path class="st2" d="M86.1,103c6,4.6,11.8,9.4,17.1,14.8c8.5,8.7,15.7,18.4,21.5,29.1c0.4,0.8,0.4,1-0.6,1c-8.4,0-16.9,0-25.3,0
			c-0.5,0-1-0.1-1.5-0.4c-8-4-12.6-10.5-14.2-19.2c-0.1-0.4-0.1-0.7-0.1-1.1c0-8.3,0-16.6,0-24.8c0-1,0.3-1.3,1.3-1.4
			c7.3-0.8,14.5-1,21.9-0.7c6.4,0.3,12.1,2.2,16.9,6.5c4,3.6,6.1,8,6.2,13.3c0.1,9,0,18,0,27c0,0.1,0,0.3-0.1,0.7
			C119.1,128.5,105.1,113.3,86.1,103z"/>
		<path class="st2" d="M85.6,95.6c-2.6,0.1-5.3,0.1-7.9,0.4c-0.9,0.1-1.6-0.5-2.5-0.4c-4.6,0.1-9.3,0-13.9,0c-1.4,0-1.4,0-1.2-1.4
			c1-5.9,3.6-10.9,8.8-14.3c2.2-1.4,4.6-2.3,7.1-2.9c0.6-0.1,1.2,0,1.8,0.1C85.5,78.7,90,83.7,92.1,91c0.3,1.2,0.5,2.5,0.8,3.7
			c0.2,0.7,0,0.9-0.7,0.9C90,95.6,87.8,95.6,85.6,95.6z"/>
		<path class="st2" d="M69.7,151.4c2.2,0.1,4.4,0.6,6.3,2c0.4,0.2,0.6,0.5,1.1,0.1c3.1-2.4,6.6-2.5,10.3-1.5
			c1.3,0.4,2.6,0.9,3.9,1.5c0.8,0.3,0.8,0.7,0.6,1.4c-1.5,4.8-4.4,8.6-8.3,11.7c-1.9,1.5-4,2.8-6.2,3.8c-0.4,0.2-0.7,0.3-1.1,0.1
			c-5.6-2.6-10.5-6.1-13.5-11.7c-0.7-1.3-1.3-2.8-1.7-4.2c-0.1-0.5-0.1-0.8,0.4-1C64,152.4,66.7,151.5,69.7,151.4z"/>
		<path class="st2" d="M63.6,147.9c5.3-6.5,9.3-13.3,13.1-20.6c3.4,7.4,7.4,14.2,12.6,20.6c-2.9-0.6-5.5-0.9-8.2-0.6
			c-3,0.4-6,0.4-9.1,0C69.4,146.9,66.6,147.2,63.6,147.9z"/>
		<path class="st1" d="M66.3,103.1c0.1-0.1,0.3-0.2,0.4,0c0.1,0.1-0.1,0.2-0.2,0.3C66.5,103.3,66.4,103.2,66.3,103.1z"/>
	</g>
	<g>
		<path class="st1" d="M962.7,163.9c0.2,0.4,0,0.7-0.3,1.1c-1.4,1.4-2.9,2.9-4.3,4.3c-1.7,1.8-1.5,4.6,0.6,6.1
			c-0.2-0.9-0.3-1.6-0.5-2.3c-0.1-0.6-0.1-1.1,0.6-1.4c0.6-0.2,1,0.2,1.2,1c0.4,1.8,0.8,3.5,1.3,5.3c-2-0.2-3.6-0.8-4.7-2.3
			c-1.8-2.3-1.7-5.4,0.3-7.6c1.4-1.5,2.9-3,4.4-4.4c-0.1,0-0.2,0-0.3,0c-5.5,0-10,4.5-10,10c0,5,3.6,9.1,8.4,9.9
			c-0.1-0.3,0.1-0.6,0.4-0.9c1.4-1.4,2.8-2.8,4.2-4.2c1.6-1.6,1.6-4.1,0.1-5.8c-0.1-0.2-0.3-0.3-0.5-0.4c-0.1,0-0.1,0.1-0.2,0.1
			c0.2,0.8,0.3,1.5,0.5,2.3c0.2,0.6,0,1.1-0.6,1.2c-0.6,0.2-0.9-0.3-1-0.8c-0.4-1.8-0.8-3.5-1.3-5.3c4.6,0.2,7.3,5,4.9,8.8
			c-0.4,0.6-0.9,1.1-1.5,1.7c-1.2,1.2-2.4,2.4-3.5,3.6l0,0c5.5,0,10-4.5,10-10C970.9,168.8,967.3,164.8,962.7,163.9z"/>
		<path class="st3" d="M956.7,168.2c-2,2.1-2.1,5.3-0.3,7.6c1.2,1.5,2.8,2.1,4.7,2.3c-0.4-1.8-0.8-3.6-1.3-5.3
			c-0.2-0.8-0.6-1.1-1.2-1c-0.7,0.2-0.7,0.8-0.6,1.4c0.2,0.7,0.3,1.4,0.5,2.3c-2.1-1.5-2.3-4.3-0.6-6.1c1.4-1.5,2.9-2.9,4.3-4.3
			c0.3-0.3,0.5-0.7,0.3-1.1c-0.5-0.1-1-0.1-1.6-0.2C959.6,165.2,958.1,166.7,956.7,168.2z"/>
		<path class="st3" d="M965.8,178.5c2.4-3.8-0.3-8.6-4.9-8.8c0.4,1.8,0.8,3.6,1.3,5.3c0.1,0.5,0.4,1,1,0.8s0.7-0.6,0.6-1.2
			c-0.2-0.8-0.4-1.5-0.5-2.3c0.1,0,0.1-0.1,0.2-0.1c0.2,0.1,0.4,0.3,0.5,0.4c1.5,1.7,1.5,4.2-0.1,5.8c-1.4,1.4-2.8,2.8-4.2,4.2
			c-0.3,0.3-0.5,0.6-0.4,0.9c0.5,0.1,1,0.1,1.6,0.1c1.2-1.2,2.4-2.4,3.5-3.6C964.9,179.7,965.5,179.1,965.8,178.5z"/>
	</g>
</g>
</svg>
