<svg width="240" height="73" viewBox="0 0 240 73" fill="none" xmlns="http://www.w3.org/2000/svg">
<path d="M46.9853 70.0242L48.2134 71.44C46.6586 69.7012 44.9948 70.5537 43.2635 71.0645C35.7221 73.2615 28.0869 73.2428 20.4404 71.7142C16.0763 70.8391 12.576 68.3341 9.3612 65.3747L7.92279 64.0151L3.8479 67.6393L3.6113 67.4102L7.83641 63.6921C5.89098 61.9871 4.99338 59.8839 2.82637 59.2454C2.70994 58.8135 2.72121 58.1676 2.40949 57.792C-0.151867 54.7386 -0.595034 51.5614 0.719445 47.6855C2.97284 41.0568 4.53894 34.2215 4.87695 27.1759C4.91827 26.252 4.87695 25.3244 4.87695 24.2315L2.90899 24.577C3.41976 23.4052 4.23474 22.3236 4.27229 21.2382C4.30985 20.1528 3.56999 19.0224 3.1456 17.8581C4.15962 17.8168 4.30609 16.8704 4.27229 15.5559C4.16713 12.266 4.23849 8.97226 4.23849 5.04009C6.42428 6.84656 8.2608 8.28122 10.0034 9.82479C12.1554 11.7252 14.191 13.7645 16.388 15.631C16.8612 16.0366 17.8903 16.2845 18.4198 16.0442C28.8418 11.2369 40.7547 11.0942 51.8827 15.8226C55.1914 10.4294 58.2974 4.82601 63.0483 0C63.3938 0.751131 63.6191 1.17552 63.7694 1.61493C66.6575 10.0539 68.5127 18.6881 68.8883 27.6303C69.3014 37.3124 69.7822 46.9907 70.3305 56.6691C70.4507 58.8323 69.7671 60.2632 67.8442 61.4237C62.008 64.9465 55.6797 67.23 49.2275 69.2505C48.589 69.4758 47.928 69.7012 46.9853 70.0242ZM17.6912 17.8544L5.11356 6.39588C4.02818 8.48027 5.93605 8.98352 6.42053 10.114C8.24953 14.3616 10.0898 18.598 11.9 22.8494C12.4596 24.1714 12.0841 25.2342 10.6832 25.6962C9.04573 26.237 7.35944 26.6464 5.59428 27.1421C5.19618 35.0853 3.12306 42.8032 0.813336 50.4722C0.591753 51.2234 0.479083 52.1735 0.764512 52.8308C1.59827 54.7311 2.66112 56.5263 3.89297 58.8398L10.5067 53.0524H2.0189C2.248 52.842 2.54094 52.7219 2.85266 52.7106C7.91528 52.3801 12.9929 52.3951 17.8753 50.5624C19.5616 49.9314 21.4093 51.7905 21.5445 53.6908C21.6159 54.7274 21.3568 55.3396 20.1925 55.4823C19.1597 55.6701 18.1419 55.9217 17.1392 56.2334L23.8993 55.7602L21.7473 55.2081C21.8412 54.3931 21.6422 53.2965 22.0816 52.9021C23.1482 51.9444 24.4589 50.799 25.7659 50.6487C28.2334 50.3971 30.7834 50.5886 33.0594 52.0421C33.6753 52.4364 34.7044 52.4627 35.4668 52.2975C41.0552 51.0881 46.8051 50.7952 52.4874 51.4374C46.8088 51.813 41.0664 51.5351 35.0874 52.9697C38.5915 55.3621 40.7923 58.8473 44.9948 59.6285C46.5647 59.9215 47.9994 60.9843 49.4791 61.6941L49.3138 61.9871L42.3884 59.4182C42.8128 61.8331 43.2635 64.1015 43.5902 66.3924C43.7667 67.6093 46.0539 69.4233 47.2295 69.0665C53.7568 67.0872 60.1564 64.8226 66.1655 61.4913C68.7043 60.0792 69.6808 58.2614 69.5455 55.4447C69.2263 48.632 69.1475 41.8079 68.7944 34.9989C68.5841 30.9015 68.0433 26.8229 67.6677 22.763H62.7178C63.1797 24.1676 63.5891 25.4295 64.0022 26.6877L63.698 27.1496C61.8202 26.2483 59.8785 25.4821 58.1547 24.3667C57.5951 23.9911 57.2758 22.6503 57.4411 21.8804C58.5678 16.6225 59.8522 11.4134 61.1629 6.20434C61.3695 5.38561 62.0079 4.67203 62.4474 3.90588L62.9732 4.04108C63.5252 7.16954 64.051 10.3055 64.6632 13.4302C64.7383 13.8246 65.2679 14.1288 65.5871 14.478C65.8049 14.0386 66.2969 13.5279 66.203 13.1711C65.2003 9.25768 64.1036 5.37058 63.0332 1.47222L62.2821 1.24687L51.9203 16.9418C51.2255 16.7014 50.5457 16.4047 49.896 16.0592C47.8454 14.7823 46.2192 15.462 44.4953 16.8479C41.9715 18.8834 40.458 21.5537 39.0647 24.3592C38.7492 24.9939 38.0281 25.4333 37.4948 25.9628C37.1192 25.1704 36.3381 24.3291 36.4282 23.593C36.7737 21.1931 37.2357 18.8121 37.8215 16.4573C38.0431 15.4658 38.4487 14.5156 38.768 13.5466L38.306 12.9908C37.2845 13.4941 36.0526 13.7908 35.279 14.5381C32.8678 16.8291 31.5233 19.7773 30.5318 22.9245C30.1225 24.3629 29.623 25.7713 29.0296 27.1459C28.7103 27.6266 28.1845 27.9308 27.6099 27.9646C27.3283 27.9646 26.7649 27.1459 26.7949 26.729C27.0278 23.6982 27.302 20.6674 27.7339 17.6591C27.9179 16.3521 28.485 15.1052 28.9019 13.8321L28.4287 13.4753C27.6963 13.9936 27.0015 14.5682 26.3555 15.1916C23.813 17.967 22.3257 21.3208 21.1502 24.8474C21 25.3018 20.5606 25.6586 20.2526 26.0605C19.9634 25.5873 19.5465 25.1403 19.4151 24.6258C19.325 24.0662 19.3437 23.4991 19.4639 22.947C19.7982 20.6448 20.1587 18.3426 20.5906 15.5146L17.6912 17.8544ZM63.2811 18.5492L67.6903 21.5762C67.2809 19.2365 66.9391 17.3361 66.5373 14.9888L63.2811 18.5492ZM43.3762 67.7482L39.6843 70.9105L39.812 71.1358L45.6295 69.5772L43.3762 67.7482ZM5.39899 11.5749L5.2713 11.4961V17.3624L5.88347 17.3136L5.39899 11.5749ZM5.77455 26.8341L7.90401 23.6944L5.4403 24.07L5.77455 26.8341Z" fill="url(#paint0_linear_702_185)"/>
<path d="M180.21 44.2154C179.158 48.7222 176.961 52.1736 173.934 55.1594C167.238 61.758 156.091 63.7636 147.644 59.6661C140.34 56.1358 137.275 49.77 136.963 42.0146C136.464 29.527 144.644 18.8948 156.816 16.1531C163.576 14.6321 170.043 15.3607 175.594 19.9726C179.462 23.1987 181.145 27.5365 181.554 32.8132C178.55 32.8132 175.635 32.8357 172.74 32.7719C172.496 32.7719 172.124 32.1973 172.045 31.8405C170.456 24.7048 163.204 23.0523 157.398 24.7799C151.047 26.6577 147.059 32.2161 146.638 39.502C146.638 39.6861 146.638 39.8776 146.619 40.0616C146.405 46.9645 148.955 51.2009 154.13 52.5642C160.605 54.2655 166.671 51.7192 169.638 45.8378C170.34 44.452 171.14 44.1252 172.529 44.1703C175.004 44.2717 177.483 44.2154 180.21 44.2154Z" fill="url(#paint1_linear_702_185)"/>
<path d="M240 32.5016C237.149 32.5016 234.407 32.5467 231.673 32.4453C231.298 32.4453 230.723 31.7655 230.577 31.296C229.044 26.4587 225.856 23.98 220.782 23.8298C213.646 23.627 207.945 27.7657 205.996 34.7212C204.896 38.6534 204.636 42.6606 206.176 46.529C208.46 52.2789 216.692 54.521 222.784 51.1972C225.413 49.7626 227.242 47.6406 228.556 44.9929C228.781 44.546 229.243 43.9075 229.615 43.8962C232.59 43.8061 235.572 43.8437 238.779 43.8437C237.998 47.5467 236.191 50.9531 233.566 53.6797C226.198 61.2661 217.33 63.2641 207.453 59.7864C200.614 57.3828 197.144 51.8995 195.889 45.0117C193.486 31.803 202.015 18.8573 215.043 15.8565C220.756 14.5421 226.363 14.8425 231.598 17.7794C236.676 20.6337 240.041 26.4587 240 32.5016Z" fill="url(#paint2_linear_702_185)"/>
<path d="M122.913 15.1914C122.275 17.9406 121.655 20.5921 121.009 23.3525C114.865 23.3525 108.863 23.4088 102.862 23.3149C101.258 23.2924 100.541 23.6905 100.278 25.3655C99.9025 27.6978 99.2377 29.985 98.6255 32.5876H117.941C117.287 35.3781 116.78 37.8681 116.063 40.298C115.95 40.6736 114.846 40.9627 114.185 40.9703C108.435 41.0191 102.682 41.0003 96.6989 41.0003C96.0529 43.7269 95.4107 46.4422 94.776 49.1501C94.1263 51.9518 93.4315 54.746 92.8794 57.5627C92.6315 58.8171 92.1696 59.3805 90.7988 59.3129C88.444 59.2039 86.0817 59.2828 83.4452 59.2828C84.2414 55.7375 84.9475 52.4663 85.6986 49.2026C88.1961 38.3112 90.7199 27.4011 93.1836 16.4871C93.4089 15.4919 93.6718 14.9323 94.8173 14.9361C103.831 14.9736 112.844 14.9661 121.858 14.9811C122.215 15.0187 122.568 15.09 122.913 15.1914Z" fill="url(#paint3_linear_702_185)"/>
<path d="M32.188 42.056C32.496 41.4363 32.864 40.7565 33.1757 40.0505C35.1212 35.6038 39.4777 32.8208 43.977 33.1701C47.0829 33.4142 49.3701 35.1831 50.0386 38.1313C50.3053 39.3031 50.7897 39.8552 51.954 39.9829C52.4535 40.103 52.9342 40.2833 53.3924 40.5162C53.1896 40.764 53.0168 41.0307 52.9793 41.0119C51.0038 40.2195 50.1738 41.3875 49.0246 42.8109C46.2078 46.3262 42.3658 48.0012 37.8102 47.4904C35.3052 47.2087 33.6001 45.7515 32.8978 43.2353C32.7175 42.8109 32.4772 42.4128 32.188 42.056ZM49.3063 39.2993C49.0847 36.1296 46.8463 34.0902 43.3535 33.9438C39.0759 33.7597 34.2498 37.3239 33.6414 41.0983L49.3063 39.2993ZM35.5906 41.2898C35.9662 44.7225 37.6525 46.1722 40.4204 46.0971C43.1883 46.0219 45.9637 43.5169 46.0539 40.719C44.3788 40.8279 42.7076 40.8467 41.0664 41.0758C40.1199 41.211 39.2186 41.6766 38.0994 42.0635L35.5906 41.2898Z" fill="url(#paint4_linear_702_185)"/>
<path d="M6.94995 40.6773C7.2504 40.3806 7.4795 40.0238 7.62972 39.6295C8.68506 35.4157 10.0183 33.9472 12.9515 33.9021C16.0499 33.8571 18.585 35.81 19.3999 39.3628C19.7755 41.0153 20.4741 42.7429 19.6816 44.5682C18.2319 47.9182 14.7429 49.0224 11.8961 46.6601C10.5066 45.5033 9.60144 43.772 8.44846 42.3223C7.99027 41.7402 7.44945 41.2219 6.94995 40.6773ZM19.5577 42.266C18.9455 40.5421 18.5549 38.9234 17.8151 37.4813C16.602 35.1152 14.0594 34.0073 11.8924 34.6307C9.72538 35.2542 8.39588 37.4475 8.48977 40.1816L19.5577 42.266ZM18.0554 42.5927L10.131 40.9853C10.2061 44.1213 11.7647 46.2056 13.8866 46.4047C15.8095 46.585 17.4357 45.263 18.0554 42.6077V42.5927V42.5927Z" fill="url(#paint5_linear_702_185)"/>
<path d="M36.2704 32.6854C36.2291 34.3341 33.1232 36.8805 31.85 36.5124C31.4519 36.396 30.9712 35.6373 30.9862 35.1867C31.0425 33.6018 33.6527 31.6639 35.2451 31.9831C35.677 32.0695 36.0375 32.5201 36.2704 32.6854Z" fill="url(#paint6_linear_702_185)"/>
<path d="M21.1727 35.3557C20.8948 35.6149 20.4216 36.3773 19.8169 36.5425C18.7428 36.828 17.049 34.3643 17.1128 32.5766C17.203 32.0282 17.5635 31.5663 18.0705 31.341C19.246 31.1043 21.1389 33.3502 21.1727 35.3557Z" fill="url(#paint7_linear_702_185)"/>
<path d="M51.0978 43.0513L53.5278 45.192L50.2754 45.8342C50.1852 46.4689 50.0951 47.1224 49.9787 47.9224L49.0022 47.5468C49.2914 46.7694 49.3778 45.9469 49.8059 45.5525C50.2341 45.1582 51.1317 45.0943 51.9767 44.8465L50.8049 43.2916L51.0978 43.0513Z" fill="url(#paint8_linear_702_185)"/>
<defs>
<linearGradient id="paint0_linear_702_185" x1="35.1719" y1="0" x2="35.1719" y2="72.7965" gradientUnits="userSpaceOnUse">
<stop stop-color="#F91E8E"/>
<stop offset="1" stop-color="#387FD6"/>
</linearGradient>
<linearGradient id="paint1_linear_702_185" x1="159.248" y1="15.4355" x2="159.248" y2="61.7903" gradientUnits="userSpaceOnUse">
<stop stop-color="#F91E8E"/>
<stop offset="1" stop-color="#387FD6"/>
</linearGradient>
<linearGradient id="paint2_linear_702_185" x1="217.742" y1="15.1123" x2="217.742" y2="61.4394" gradientUnits="userSpaceOnUse">
<stop stop-color="#F91E8E"/>
<stop offset="1" stop-color="#387FD6"/>
</linearGradient>
<linearGradient id="paint3_linear_702_185" x1="103.179" y1="14.936" x2="103.179" y2="59.3183" gradientUnits="userSpaceOnUse">
<stop stop-color="#F91E8E"/>
<stop offset="1" stop-color="#387FD6"/>
</linearGradient>
<linearGradient id="paint4_linear_702_185" x1="42.7902" y1="33.1406" x2="42.7902" y2="47.5805" gradientUnits="userSpaceOnUse">
<stop stop-color="#F91E8E"/>
<stop offset="1" stop-color="#387FD6"/>
</linearGradient>
<linearGradient id="paint5_linear_702_185" x1="13.4971" y1="33.9014" x2="13.4971" y2="47.9207" gradientUnits="userSpaceOnUse">
<stop stop-color="#F91E8E"/>
<stop offset="1" stop-color="#387FD6"/>
</linearGradient>
<linearGradient id="paint6_linear_702_185" x1="33.6281" y1="31.9482" x2="33.6281" y2="36.5483" gradientUnits="userSpaceOnUse">
<stop stop-color="#F91E8E"/>
<stop offset="1" stop-color="#387FD6"/>
</linearGradient>
<linearGradient id="paint7_linear_702_185" x1="19.1419" y1="31.3237" x2="19.1419" y2="36.5653" gradientUnits="userSpaceOnUse">
<stop stop-color="#F91E8E"/>
<stop offset="1" stop-color="#387FD6"/>
</linearGradient>
<linearGradient id="paint8_linear_702_185" x1="51.265" y1="43.0513" x2="51.265" y2="47.9224" gradientUnits="userSpaceOnUse">
<stop stop-color="#F91E8E"/>
<stop offset="1" stop-color="#387FD6"/>
</linearGradient>
</defs>
</svg>
