<svg width="355" height="100" viewBox="0 0 355 100" fill="none" xmlns="http://www.w3.org/2000/svg">
<path d="M98.2568 13.9625L86.2424 0.987547L12.9751 0.956055V73.5148H25.8713V13.9625H98.2568Z" fill="url(#paint0_linear_1173_1021)"/>
<path d="M12.9749 73.5165V0.989258L0 13.0036V86.4914H72.5587V73.5165H12.9749Z" fill="url(#paint1_linear_1173_1021)"/>
<path d="M25.8716 13.9629V26.9378H85.2822V99.4808L98.2571 86.2697V13.9629H25.8716Z" fill="url(#paint2_linear_1173_1021)"/>
<path d="M72.4012 26.9375V86.4898H0L13.0851 99.449L85.2817 99.4805V99.449V86.4898V26.9375H72.4012Z" fill="url(#paint3_linear_1173_1021)"/>
<path d="M165.87 54.1875H178.032L160.242 80.9537H151.032L145.755 65.6946L135.118 80.9537H126.241L117.947 54.1875H129.266L133.242 69.4465L143.529 54.1875H151.409L156.418 69.5184L165.87 54.1875Z" fill="#1A2151"/>
<path d="M177.88 80.9541C172.823 80.9541 170.729 78.405 171.596 73.3067L172.664 67.1851C173.086 64.627 173.93 62.8677 175.151 61.7995C176.372 60.7314 178.212 60.2646 180.779 60.2646H201.818C206.863 60.2646 208.999 62.8318 208.101 67.9211L207.033 74.0337C206.611 76.6008 205.768 78.3601 204.583 79.4193C203.398 80.4784 201.486 80.9451 198.928 80.9451L177.88 80.9541ZM195.589 73.6118C196.702 73.6118 197.079 73.2707 197.267 72.1577L197.806 69.097C197.994 67.9929 197.689 67.6518 196.585 67.6518H184.118C183.005 67.6518 182.619 67.9929 182.43 69.097L181.892 72.1577C181.703 73.2707 182.008 73.6118 183.121 73.6118H195.589Z" fill="#1A2151"/>
<path d="M239.616 60.3004C244.705 60.3004 246.796 62.8675 245.899 67.9569L243.601 80.954H233.503L235.568 69.2853C235.756 68.1723 235.451 67.8312 234.347 67.8312H223.333C222.592 67.7815 221.856 67.9979 221.26 68.4416L220.65 68.9442L218.513 80.9091H208.416L212.087 60.2645H220.65L220.919 62.2931C221.832 61.5664 222.869 61.01 223.98 60.6505C225.27 60.3439 226.595 60.214 227.92 60.2645L239.616 60.3004Z" fill="#1A2151"/>
<path d="M117.928 38.1821H120.334V40.103C120.334 42.5175 121.232 43.3972 123.628 43.3972H148.222C150.628 43.3972 151.507 42.4996 151.507 40.103V36.4229C151.507 34.0891 150.708 33.398 148.222 33.1377L123.278 31.7913C119.804 31.531 118.305 30.1846 118.305 26.8187V23.6143C118.305 20.2034 119.912 18.6416 123.278 18.6416H148.411C151.777 18.6416 153.383 20.2034 153.383 23.6143V25.212H150.978V23.9464C150.978 21.5318 150.08 20.6522 147.684 20.6522H124.014C121.6 20.6522 120.72 21.5498 120.72 23.9464V26.4686C120.72 28.7664 121.564 29.4845 124.014 29.7538L148.949 31.0553C152.432 31.3605 153.922 32.662 153.922 36.0279V40.462C153.922 43.8729 152.315 45.4347 148.949 45.4347H122.865C119.499 45.4347 117.893 43.8729 117.893 40.462L117.928 38.1821Z" fill="#1A2151"/>
<path d="M195.803 38.7556C195.803 43.3872 193.738 45.4068 189.152 45.4068H188.38L194.537 50.7923H191.441L185.436 45.4068H165.689C161.102 45.4068 159.038 43.3423 159.038 38.7556V25.2918C159.038 20.6602 161.102 18.6406 165.689 18.6406H189.179C193.765 18.6406 195.83 20.6602 195.83 25.2918L195.803 38.7556ZM188.496 43.3423C192.087 43.3423 193.352 42.0049 193.352 38.4864V25.561C193.352 22.0425 192.051 20.7051 188.496 20.7051H166.317C162.79 20.7051 161.452 22.0425 161.452 25.561V38.4864C161.452 42.0049 162.79 43.3423 166.317 43.3423H188.496Z" fill="#1A2151"/>
<path d="M207.544 45.4068C202.958 45.4068 200.893 43.3872 200.893 38.7556V18.6406H203.343V38.4505C203.343 41.969 204.645 43.3064 208.199 43.3064H229.239C232.758 43.3064 234.095 41.969 234.095 38.4505V18.6406H236.536V38.7556C236.536 43.3423 234.472 45.4068 229.885 45.4068H207.544Z" fill="#1A2151"/>
<path d="M276.156 45.4068L270.77 37.9568H245.566L240.181 45.4068H237.488L256.956 18.6406H259.479L278.947 45.4068H276.156ZM247.011 35.9282H269.271L258.141 20.5525L247.011 35.9282Z" fill="#1A2151"/>
<path d="M317.822 45.4068H314.644L304.053 34.2767H284.234V45.4068H281.784V18.6406H310.776C315.021 18.6406 316.664 20.2473 316.664 24.5288V28.3167C316.664 32.5982 315.021 34.2048 310.776 34.2048H307.185L317.822 45.4068ZM284.234 20.5884V32.3648H310.085C313.262 32.3648 314.214 31.3774 314.214 28.2V24.7532C314.214 21.5847 313.262 20.5884 310.085 20.5884H284.234Z" fill="#1A2151"/>
<path d="M324.554 43.3423H355V45.4068H322.104V18.6406H354.623V20.7051H324.554V30.3452H353.088V32.293H324.554V43.3423Z" fill="#1A2151"/>
<defs>
<linearGradient id="paint0_linear_1173_1021" x1="1.25989" y1="61.8153" x2="74.165" y2="-11.0898" gradientUnits="userSpaceOnUse">
<stop stop-color="#ED1E79"/>
<stop offset="0.1" stop-color="#F1485A"/>
<stop offset="0.23" stop-color="#F5723A"/>
<stop offset="0.35" stop-color="#F89421"/>
<stop offset="0.46" stop-color="#FAAC0F"/>
<stop offset="0.57" stop-color="#FCBB04"/>
<stop offset="0.65" stop-color="#FCC000"/>
<stop offset="0.74" stop-color="#FCC103"/>
<stop offset="0.81" stop-color="#FDC30E"/>
<stop offset="0.88" stop-color="#FDC720"/>
<stop offset="0.95" stop-color="#FECC39"/>
<stop offset="1" stop-color="#FFD150"/>
</linearGradient>
<linearGradient id="paint1_linear_1173_1021" x1="-8.51872" y1="16.0269" x2="51.254" y2="101.403" gradientUnits="userSpaceOnUse">
<stop stop-color="#FF61B4"/>
<stop offset="0.01" stop-color="#FD5DB0"/>
<stop offset="0.15" stop-color="#EC3791"/>
<stop offset="0.26" stop-color="#E1207D"/>
<stop offset="0.33" stop-color="#DD1776"/>
<stop offset="0.42" stop-color="#D91775"/>
<stop offset="0.51" stop-color="#CD1774"/>
<stop offset="0.6" stop-color="#BA1771"/>
<stop offset="0.69" stop-color="#9E186C"/>
<stop offset="0.78" stop-color="#7A1867"/>
<stop offset="0.87" stop-color="#4E1960"/>
<stop offset="0.96" stop-color="#1C1A58"/>
<stop offset="1" stop-color="#001A54"/>
</linearGradient>
<linearGradient id="paint2_linear_1173_1021" x1="102.099" y1="89.7811" x2="50.1995" y2="-0.0985174" gradientUnits="userSpaceOnUse">
<stop stop-color="#F97000"/>
<stop offset="0.19" stop-color="#FA9203"/>
<stop offset="0.38" stop-color="#FBAC06"/>
<stop offset="0.55" stop-color="#FCBC07"/>
<stop offset="0.68" stop-color="#FCC208"/>
<stop offset="0.89" stop-color="#FECC3A"/>
<stop offset="1" stop-color="#FFD150"/>
</linearGradient>
<linearGradient id="paint3_linear_1173_1021" x1="87.7066" y1="28.6223" x2="29.8706" y2="111.211" gradientUnits="userSpaceOnUse">
<stop stop-color="#FF9240"/>
<stop offset="0.02" stop-color="#FE8B32"/>
<stop offset="0.06" stop-color="#FB7C17"/>
<stop offset="0.1" stop-color="#FA7306"/>
<stop offset="0.13" stop-color="#F97000"/>
<stop offset="0.24" stop-color="#E06708"/>
<stop offset="0.48" stop-color="#A0511E"/>
<stop offset="0.81" stop-color="#3B2E40"/>
<stop offset="1" stop-color="#001A54"/>
</linearGradient>
</defs>
</svg>
