<svg xmlns="http://www.w3.org/2000/svg" width="765" height="216" viewBox="0 0 765 216" fill="none"><path fill-rule="evenodd" clip-rule="evenodd" d="M684.311 144.845H730.327L741.668 174.618H765L709.263 43.2266H707.967L652.23 174.295H672.321L684.311 144.845ZM707.643 87.8868L723.521 127.693H691.44L707.643 87.8868ZM380.352 44.1975V174.618H360.261V101.803L316.19 164.586H315.866L272.443 104.715V174.618H253V44.1975L315.866 133.194L379.704 44.1975H380.352ZM455.531 174.618V48.4046H435.116V174.618H455.531ZM553.719 48.4046H518.073V174.295H559.876C571.218 174.295 581.587 172.029 591.309 166.851C601.03 161.997 608.484 154.877 614.316 145.492C619.825 136.107 622.742 125.427 622.742 113.13C622.742 102.126 620.473 91.4467 615.613 81.7379C610.752 72.0292 603.299 63.9386 592.929 57.7897C582.559 51.6408 569.597 48.4046 553.719 48.4046ZM579.967 150.023C572.838 153.583 565.061 155.201 555.987 155.201H538.165V67.8221H559.228C566.033 67.8221 572.838 69.1165 579.319 72.3528C585.8 75.2654 591.309 80.4434 595.521 86.9159C599.734 93.712 602.003 101.803 602.003 111.835C602.003 120.897 600.058 128.663 596.17 135.136C592.281 141.608 586.772 146.786 579.967 150.023Z" fill="#FFEBA0"></path><path d="M155.902 36.7336C159.218 38.7258 162.534 40.0539 167.176 40.0539C177.787 40.0539 186.408 31.4211 186.408 20.7961C186.408 10.1712 177.787 1.53839 167.176 1.53839C165.85 1.53839 164.524 1.53839 163.197 2.20245C156.566 2.86651 143.966 7.51494 143.966 29.4289C143.966 38.0617 145.292 46.6945 147.944 54.6632C147.944 55.3272 148.608 56.6554 148.608 57.3194C148.608 57.9835 149.271 58.6476 149.271 59.3116C149.271 59.9757 148.608 60.6397 147.944 60.6397C147.281 60.6397 146.618 60.6397 145.955 60.6397C145.292 60.6397 143.966 60.6397 143.302 60.6397C139.323 60.6397 135.344 60.6397 131.365 60.6397C123.407 60.6397 115.449 60.6397 107.492 60.6397C106.165 60.6397 96.8809 60.6397 94.2282 60.6397C91.5756 60.6397 82.2913 60.6397 80.965 60.6397C73.007 60.6397 65.049 60.6397 57.0911 60.6397C53.1121 60.6397 49.1331 60.6397 45.1541 60.6397C44.4909 60.6397 43.1646 60.6397 42.5015 60.6397C41.8383 60.6397 41.1751 60.6397 40.512 60.6397C39.8488 60.6397 39.1857 59.9757 39.1857 59.3116C39.1857 58.6476 39.1856 57.9835 39.8488 57.3194C39.8488 56.6554 40.512 55.3272 40.512 54.6632C43.1646 46.6945 45.1541 38.0617 44.491 29.4289C44.491 7.51494 31.8908 2.86651 25.2592 2.20245C23.9329 2.20245 22.6066 1.53839 21.2802 1.53839C10.6696 1.53839 2.04846 10.1712 2.04846 20.7961C2.04846 31.4211 10.6696 40.0539 21.2802 40.0539C25.2592 40.0539 29.2382 38.7258 32.554 36.7336V37.3976C32.554 38.0617 32.554 38.0617 32.554 38.7258C30.5645 40.7179 29.9013 42.7101 29.9013 44.0382C20.6171 82.5537 -8.56216 141.655 33.2172 172.202C33.8803 172.866 34.5435 173.53 35.8698 174.194C37.1962 175.522 39.1856 176.186 40.512 177.514C41.1751 178.178 41.8383 178.178 43.1646 178.842C43.8278 179.506 44.4909 179.506 45.1541 180.171C45.8173 180.171 45.8173 180.835 46.4804 180.835H47.1436H47.8068C48.4699 181.499 49.1331 181.499 50.4594 182.163C51.1226 182.163 51.7858 182.827 52.4489 183.491C53.1121 184.155 53.7752 184.155 53.7752 185.483C54.4384 186.147 53.7752 187.475 53.7752 188.139C53.7752 188.803 53.7752 190.131 53.1121 190.795C53.1121 192.788 52.4489 194.78 51.7857 196.772C51.7857 197.436 51.1226 198.764 51.1226 199.428C51.1226 200.092 51.1226 201.42 50.4594 202.085C50.4594 202.749 50.4594 204.077 49.7963 204.741C49.1331 210.053 50.4594 215.366 57.0911 214.702C57.7542 214.702 59.0806 214.702 59.7437 214.702C67.7017 214.702 75.6596 214.702 83.6176 214.702C86.2703 214.702 89.5861 214.702 92.2388 214.702C94.8914 214.702 98.2072 214.702 100.86 214.702C108.818 214.702 116.776 214.702 124.734 214.702C125.397 214.702 126.723 214.702 127.386 214.702C134.018 215.366 136.008 210.053 134.681 204.741C134.681 204.077 134.681 202.749 134.018 202.085C134.018 201.42 134.018 200.092 133.355 199.428C133.355 198.764 132.692 197.436 132.692 196.772C132.029 194.78 132.029 192.788 131.365 190.795C131.365 190.131 131.365 188.803 130.702 188.139C130.702 187.475 130.702 186.147 130.702 185.483C130.702 184.819 131.365 184.155 132.029 183.491C132.692 182.827 133.355 182.827 134.018 182.163C134.681 182.163 135.344 181.499 136.671 180.835H137.334H137.997C138.66 180.835 138.66 180.835 139.323 180.171C139.987 179.506 140.65 179.506 141.313 178.842C141.976 178.178 142.639 178.178 143.966 177.514C145.292 176.85 147.281 175.522 148.608 174.194C149.271 173.53 149.934 172.866 151.26 172.202C193.04 141.655 163.86 82.5537 154.576 44.0382C153.913 42.0461 153.913 40.0539 153.25 38.0617C153.25 37.3976 153.25 37.3976 153.25 36.7336C155.902 37.3976 155.902 36.7336 155.902 36.7336ZM167.839 13.4915C171.818 13.4915 175.134 16.8118 175.134 20.7961C175.134 24.7805 171.818 28.1008 167.839 28.1008C163.86 28.1008 160.545 24.7805 160.545 20.7961C160.545 16.8118 163.86 13.4915 167.839 13.4915ZM19.2907 27.4367C15.3117 27.4367 11.9959 24.1164 11.9959 20.1321C11.9959 16.1477 15.3117 12.8274 19.2907 12.8274C23.2697 12.8274 26.5855 16.1477 26.5855 20.1321C26.5855 24.1164 23.2697 27.4367 19.2907 27.4367ZM136.671 73.9209C137.334 72.5928 139.323 72.5928 140.65 72.5928C142.639 72.5928 143.966 72.5928 145.955 72.5928C148.608 72.5928 153.25 71.2647 153.25 75.2491C153.25 79.2334 153.25 83.2178 153.25 86.5381C153.25 90.5224 153.25 93.8427 151.923 97.8271C151.26 101.147 150.597 103.804 149.271 107.124C148.608 109.78 147.281 112.436 145.955 115.757C145.955 116.421 145.292 116.421 145.292 117.085C143.966 118.413 143.302 120.405 141.976 121.733C141.313 123.061 139.987 124.389 138.66 125.718C137.334 127.046 136.008 125.718 136.671 124.389C136.671 120.405 136.671 116.421 136.671 112.436C136.671 105.796 136.671 99.8193 136.671 93.1787C136.671 93.8427 136.671 94.5068 136.671 95.1709C136.671 91.1865 136.671 87.8662 136.671 83.8818C136.671 81.8897 136.671 79.8975 136.671 77.9053C136.671 76.5772 136.008 75.2491 136.671 73.9209ZM111.47 132.358C111.47 130.366 111.47 128.374 111.47 126.382C111.47 120.405 111.47 114.429 111.47 108.452C111.47 113.765 111.47 105.796 111.47 105.796C111.47 105.796 111.47 83.8818 111.47 81.8897C111.47 79.8975 111.47 77.9053 111.47 75.9131C111.47 75.2491 111.471 73.2569 112.134 72.5928C112.797 72.5928 113.46 72.5928 113.46 72.5928C114.123 72.5928 115.449 72.5928 116.113 72.5928C116.776 72.5928 118.102 72.5928 118.765 72.5928C119.428 72.5928 120.755 72.5928 121.418 72.5928C122.744 72.5928 123.407 73.9209 123.407 74.585C123.407 75.249 123.407 76.5772 123.407 77.2412C123.407 77.9053 123.407 79.2334 123.407 79.8975C123.407 83.8818 123.407 87.8662 123.407 91.8506C123.407 99.8193 123.407 107.788 123.407 115.757C123.407 119.741 123.407 123.725 123.407 127.71C123.407 128.374 123.407 129.702 123.407 130.366C123.407 131.03 123.407 132.358 123.407 133.022C123.407 133.686 122.744 134.35 122.081 135.014C121.418 135.679 120.755 135.679 120.092 136.343C119.428 136.343 118.102 137.007 117.439 137.007C116.776 137.007 115.449 137.671 114.786 137.671C114.123 137.671 114.123 137.671 113.46 137.671C112.797 137.671 112.797 137.671 112.134 137.671C111.471 137.671 110.807 137.671 110.807 137.007C110.807 136.343 110.807 135.014 110.807 134.35C111.47 134.35 111.47 133.686 111.47 132.358ZM87.5966 73.9209C88.2598 72.5928 90.2492 72.5928 91.5756 72.5928C92.2387 72.5928 92.9019 72.5928 93.5651 72.5928C94.2282 72.5928 94.8914 72.5928 95.5546 72.5928C96.8809 72.5928 98.8704 72.5928 99.5335 73.9209C99.5335 74.585 99.5335 75.2491 99.5335 75.9131C99.5335 76.5772 99.5335 77.9053 99.5335 78.5694C99.5335 86.5381 99.5335 94.5068 99.5335 102.476C99.5335 103.804 99.5335 105.132 99.5335 105.796C99.5335 105.796 99.5335 127.71 99.5335 129.702C99.5335 131.694 99.5335 133.686 99.5335 135.679C99.5335 137.007 99.5336 138.999 98.8704 139.663C98.2072 140.327 98.2072 140.327 97.5441 140.327C96.8809 140.327 95.5546 140.327 94.8914 140.327H94.2282H93.5651C92.9019 140.327 91.5756 140.327 90.9124 140.327C90.2493 140.327 89.5861 140.327 89.5861 139.663C88.2598 138.335 88.9229 137.007 88.9229 135.679C88.9229 133.686 88.9229 131.694 88.9229 129.702C88.9229 127.71 88.9229 105.796 88.9229 105.796C88.9229 104.468 88.9229 103.14 88.9229 102.476C88.9229 94.5068 88.9229 86.5381 88.9229 78.5694C88.9229 77.9053 88.9229 76.5772 88.9229 75.9131C87.5966 75.2491 87.5966 74.585 87.5966 73.9209ZM62.3964 75.2491C62.3964 73.9209 63.0595 73.2569 64.3859 73.2569C65.049 73.2569 66.3753 73.2569 67.0385 73.2569C67.7017 73.2569 69.028 73.2569 69.6912 73.2569C70.3543 73.2569 71.6807 73.2569 72.3438 73.2569C73.007 73.2569 73.6701 73.2569 73.6701 73.2569C74.9965 73.9209 74.3333 75.249 74.3333 76.5772C74.3333 78.5693 74.3333 80.5615 74.3333 82.5537C74.3333 84.5459 74.3333 106.46 74.3333 106.46C74.3333 106.46 74.3333 114.429 74.3333 109.116C74.3333 115.093 74.3333 121.069 74.3333 127.046C74.3333 129.038 74.3333 131.03 74.3333 133.022C74.3333 133.686 74.3333 135.014 74.3333 135.679C74.3333 136.343 74.3333 137.671 74.3333 138.335C74.3333 138.999 73.6702 138.999 73.007 138.999C72.3438 138.999 72.3438 138.999 71.6807 138.999C71.0175 138.999 71.0175 138.999 70.3543 138.999C69.6912 138.999 68.3649 138.335 67.7017 138.335C67.0385 138.335 65.7122 137.671 65.049 137.671C64.3859 137.671 63.7227 137.007 63.0595 136.343C62.3964 135.679 61.7332 135.014 61.7332 134.35C61.7332 133.686 61.7332 132.358 61.7332 131.694C61.7332 131.03 61.7332 129.702 61.7332 129.038C61.7332 125.054 61.7332 121.069 61.7332 117.085C61.7332 109.116 61.7332 101.147 61.7332 93.1787C61.7332 89.1943 61.7332 85.2099 61.7332 81.2256C61.7332 80.5615 61.7332 79.2334 61.7332 78.5694C62.3964 76.5772 62.3964 75.9131 62.3964 75.2491ZM34.5435 75.2491C34.5435 71.9288 39.1856 72.5928 41.8383 72.5928C43.8278 72.5928 45.1541 72.5928 47.1436 72.5928C48.4699 72.5928 50.4594 72.5928 51.1226 73.9209C51.7858 75.2491 51.1226 76.5772 51.1226 77.2412C51.1226 79.2334 51.1226 81.2256 51.1226 83.2178C51.1226 87.2021 51.1226 90.5224 51.1226 94.5068C51.1226 93.8427 51.1226 93.1787 51.1226 92.5146C51.1226 99.1552 51.1226 105.132 51.1226 111.772C51.1226 115.757 51.1226 119.741 51.1226 123.725C51.1226 125.054 50.4594 126.382 49.1331 125.054C47.8068 124.39 47.1436 122.397 45.8173 121.069C44.491 119.741 43.8278 117.749 42.5015 116.421C42.5015 115.757 41.8383 115.757 41.8383 115.093C40.512 112.436 39.1856 109.78 38.5225 106.46C37.8593 103.14 36.533 100.483 35.8698 97.163C35.2067 93.8427 35.2067 89.8584 34.5435 85.874C34.5435 82.5537 34.5435 78.5694 34.5435 75.2491ZM93.5651 202.085C92.2387 202.085 91.5756 202.085 90.9124 202.085C90.9124 202.085 91.5756 202.085 93.5651 202.085ZM123.407 201.42C122.744 202.085 122.081 202.085 121.418 202.085C119.428 202.085 117.439 202.085 115.449 202.085C113.46 202.085 111.47 202.085 109.481 202.085C104.176 202.085 98.8704 202.085 94.2282 202.085C88.9229 202.085 83.6176 202.085 78.9755 202.085C76.986 202.085 74.9965 202.085 73.007 202.085C71.0175 202.085 69.028 202.085 67.0385 202.085C66.3753 202.085 65.7122 202.085 65.049 201.42C64.3859 200.756 64.3859 200.092 64.3859 199.428C64.3859 197.436 65.049 195.444 65.049 193.452C65.049 192.788 65.7122 191.46 65.7122 190.795C65.7122 190.131 65.7122 188.803 66.3754 188.139C66.3754 187.475 67.0385 186.811 67.7017 186.811C68.3649 186.811 68.3649 186.811 69.028 186.811C69.6912 186.811 69.6912 186.811 70.3543 186.811C72.3438 187.475 74.3333 187.475 76.3228 187.475C78.3123 187.475 80.3018 188.139 82.2913 188.139C86.2703 188.803 90.9124 188.803 94.8914 188.803C98.8704 188.803 103.513 188.803 107.492 188.139C109.481 188.139 111.47 187.475 113.46 187.475C115.449 187.475 117.439 186.811 119.428 186.811C120.092 186.811 120.092 186.811 120.755 186.811C121.418 186.811 121.418 186.811 122.081 186.811C122.744 186.811 122.744 187.475 123.407 188.139C123.407 188.803 124.071 190.131 124.071 190.795C124.071 191.46 124.734 192.788 124.734 193.452C124.734 195.444 125.397 197.436 125.397 199.428C123.407 200.756 123.407 201.42 123.407 201.42ZM159.881 112.436C159.881 111.772 159.881 110.444 160.545 109.78C160.545 109.116 161.208 107.788 161.871 108.452C161.871 108.452 162.534 109.116 162.534 109.78C162.534 110.444 163.197 110.444 163.197 111.108C163.197 111.772 163.86 113.1 163.86 113.765C163.86 115.757 163.86 117.749 164.524 119.741C164.524 123.725 164.524 127.71 164.524 131.03C163.86 135.014 163.197 138.335 161.871 142.319C161.871 142.983 161.871 142.983 161.208 143.647C161.208 144.311 161.208 144.311 160.545 144.975C159.881 145.639 159.881 146.968 159.218 147.632C158.555 149.624 157.229 150.952 156.566 152.944C155.902 153.608 155.902 154.272 155.239 154.936C154.576 155.6 153.913 156.264 153.25 156.928C151.923 158.257 150.597 159.585 149.271 160.913C147.945 162.241 146.618 163.569 144.629 164.897C143.302 166.225 141.313 166.889 139.987 167.553C139.323 168.217 138.66 168.217 137.334 168.882C136.671 169.546 135.344 169.546 134.681 170.21C132.692 170.874 130.702 171.538 129.376 172.202C128.713 172.202 128.713 172.202 128.05 172.202C127.386 172.202 127.386 172.202 126.723 172.866C126.06 172.866 124.734 173.53 124.071 173.53C123.407 173.53 122.081 174.194 121.418 174.194H120.755H120.092C119.428 174.194 119.428 174.194 118.765 174.858C116.776 175.522 114.786 175.522 113.46 175.522C112.797 175.522 111.47 175.522 110.807 176.186C110.144 176.186 108.818 176.85 108.155 176.85C106.165 176.85 104.176 176.85 102.186 176.85C100.197 176.85 98.2072 176.85 96.2177 176.85C95.5546 176.85 94.8914 176.85 94.2282 176.85C93.5651 176.85 92.9019 176.85 92.2388 176.85C90.2493 176.85 88.2598 176.85 86.2703 176.85C84.2808 176.85 82.2913 176.85 80.3018 176.85C79.6386 176.85 78.3123 176.85 77.6491 176.186C76.986 176.186 75.6596 176.186 74.9965 175.522C73.007 175.522 71.0175 174.858 69.6912 174.858C69.028 174.858 69.028 174.858 68.3648 174.194H67.7017H67.0385C66.3753 174.194 65.049 174.194 64.3859 173.53C63.7227 173.53 62.3964 172.866 61.7332 172.866C61.07 172.866 61.07 172.866 60.4069 172.202C59.7437 172.202 59.7437 172.202 59.0806 172.202C57.0911 171.538 55.1016 170.874 53.7752 170.21C53.1121 169.546 51.7858 169.546 51.1226 168.882C50.4594 168.217 49.7963 168.217 48.4699 167.553C46.4804 166.889 45.1541 165.561 43.8278 164.897C42.5014 163.569 41.1751 162.241 39.1857 160.913C37.8593 159.585 36.533 158.257 35.2067 156.928C34.5435 156.264 33.8803 155.6 33.2172 154.936C32.554 154.272 31.8908 153.608 31.8908 152.944C31.2277 151.616 29.9014 149.624 29.2382 147.632C28.575 146.968 28.575 145.639 27.9119 144.975C27.9119 144.311 27.2487 144.311 27.2487 143.647C27.2487 142.983 27.2487 142.983 26.5855 142.319C25.2592 138.999 24.596 135.014 23.9329 131.03C23.2697 127.046 23.2697 123.061 23.9329 119.741C23.9329 117.749 23.9329 115.757 24.596 113.765C24.596 113.1 24.596 111.772 25.2592 111.108C25.2592 110.444 25.2592 110.444 25.9224 109.78C25.9224 109.116 26.5855 109.116 26.5855 108.452C27.2487 107.788 27.9119 109.116 27.9119 109.78C27.9119 110.444 27.9119 111.772 28.575 112.436C30.5645 117.085 32.554 122.397 35.8698 127.046C37.1962 128.374 37.8593 129.702 39.1857 131.694C41.1751 134.35 43.8278 137.007 47.1436 138.999C48.4699 140.327 49.7963 140.991 51.7857 142.319C53.1121 142.983 55.1016 144.311 56.4279 144.975C58.4174 146.303 60.4069 146.968 62.3964 147.632C71.6807 151.616 83.6176 153.608 94.8914 153.608C106.828 153.608 118.102 150.952 127.386 147.632C129.376 146.968 131.365 146.303 133.355 144.975C134.681 144.311 136.671 142.983 137.997 142.319C139.323 141.655 141.313 140.327 142.639 138.999C145.292 137.007 147.945 134.35 150.597 131.694C151.923 130.366 152.587 129.038 153.913 127.046C155.902 123.061 158.555 117.749 159.881 112.436Z" fill="#FFEBA0"></path></svg>