<?xml version="1.0" encoding="utf-8"?>
<!-- Generator: Adobe Illustrator 25.0.0, SVG Export Plug-In . SVG Version: 6.00 Build 0)  -->
<svg version="1.1" id="Layer_1" xmlns="http://www.w3.org/2000/svg" xmlns:xlink="http://www.w3.org/1999/xlink" x="0px" y="0px"
	 viewBox="0 0 800 800" style="enable-background:new 0 0 800 800;" xml:space="preserve">
<style type="text/css">
	.st0{opacity:0.3;}
	.st1{fill:#FFFFFF;}
	.st2{opacity:0.5;fill:url(#SVGID_1_);}
	.st3{fill:#290726;}
	.st4{enable-background:new    ;}
	.st5{fill:url(#SVGID_2_);}
	.st6{fill:url(#SVGID_3_);}
	.st7{fill:url(#SVGID_4_);}
	.st8{fill:url(#SVGID_5_);}
	.st9{fill:url(#SVGID_6_);}
	.st10{fill:url(#SVGID_7_);}
	.st11{fill:url(#SVGID_8_);}
	.st12{fill:url(#SVGID_9_);}
	.st13{fill:url(#SVGID_10_);}
	.st14{fill:url(#SVGID_11_);}
	.st15{fill:url(#SVGID_12_);}
	.st16{fill:url(#SVGID_13_);}
	.st17{fill:url(#SVGID_14_);}
	.st18{fill:url(#SVGID_15_);}
	.st19{fill:url(#SVGID_16_);}
	.st20{fill:url(#SVGID_17_);}
	.st21{fill:url(#SVGID_18_);}
	.st22{fill:url(#SVGID_19_);}
	.st23{fill:url(#SVGID_20_);}
	.st24{fill:url(#SVGID_21_);}
	.st25{fill:url(#SVGID_22_);}
	.st26{fill:url(#SVGID_23_);}
	.st27{fill:url(#SVGID_24_);}
	.st28{fill:url(#SVGID_25_);}
	.st29{fill:url(#SVGID_26_);}
	.st30{fill:url(#SVGID_27_);}
	.st31{fill:url(#SVGID_28_);}
	.st32{fill:url(#SVGID_29_);}
	.st33{fill:url(#SVGID_30_);}
	.st34{fill:url(#SVGID_31_);}
	.st35{fill:url(#SVGID_32_);}
	.st36{fill:url(#SVGID_33_);}
	.st37{fill:url(#SVGID_34_);}
	.st38{fill:url(#SVGID_35_);}
	.st39{fill:url(#SVGID_36_);}
	.st40{fill:url(#SVGID_37_);}
	.st41{fill:url(#SVGID_38_);}
	.st42{fill:url(#SVGID_39_);}
	.st43{fill:url(#SVGID_40_);}
	.st44{fill:url(#SVGID_41_);}
	.st45{fill:url(#SVGID_42_);}
	.st46{fill:url(#SVGID_43_);}
	.st47{fill:url(#SVGID_44_);}
	.st48{fill:url(#SVGID_45_);}
	.st49{fill:url(#SVGID_46_);}
	.st50{fill:url(#SVGID_47_);}
	.st51{fill:url(#SVGID_48_);}
	.st52{fill:url(#SVGID_49_);}
	.st53{fill:url(#SVGID_50_);}
	.st54{fill:url(#SVGID_51_);}
	.st55{clip-path:url(#SVGID_53_);enable-background:new    ;}
	.st56{fill:url(#SVGID_54_);}
	.st57{fill:url(#SVGID_55_);}
	.st58{fill:url(#SVGID_56_);}
	.st59{fill:url(#SVGID_57_);}
	.st60{fill:url(#SVGID_58_);}
	.st61{fill:url(#SVGID_59_);}
	.st62{fill:url(#SVGID_60_);}
	.st63{fill:url(#SVGID_61_);}
	.st64{fill:url(#SVGID_62_);}
	.st65{fill:url(#SVGID_63_);}
	.st66{fill:url(#SVGID_64_);}
	.st67{fill:url(#SVGID_65_);}
	.st68{clip-path:url(#SVGID_68_);enable-background:new    ;}
	.st69{fill:url(#SVGID_69_);}
	.st70{fill:url(#SVGID_70_);}
	.st71{fill:url(#SVGID_71_);}
	.st72{fill:url(#SVGID_72_);}
	.st73{fill:url(#SVGID_73_);}
	.st74{fill:url(#SVGID_74_);}
	.st75{fill:url(#SVGID_75_);}
	.st76{fill:url(#SVGID_76_);}
	.st77{fill:url(#SVGID_77_);}
	.st78{fill:url(#SVGID_78_);}
	.st79{fill:url(#SVGID_79_);}
	.st80{fill:url(#SVGID_80_);}
	.st81{fill:url(#SVGID_81_);}
	.st82{fill:url(#SVGID_82_);}
	.st83{clip-path:url(#SVGID_85_);enable-background:new    ;}
	.st84{fill:url(#SVGID_86_);}
	.st85{clip-path:url(#SVGID_89_);enable-background:new    ;}
	.st86{fill:url(#SVGID_90_);}
	.st87{clip-path:url(#SVGID_93_);enable-background:new    ;}
	.st88{fill:url(#SVGID_94_);}
	.st89{fill:url(#SVGID_95_);}
	.st90{fill:url(#SVGID_96_);}
	.st91{fill:url(#SVGID_97_);}
	.st92{fill:url(#SVGID_98_);}
	.st93{fill:url(#SVGID_99_);}
	.st94{fill:url(#SVGID_100_);}
	.st95{clip-path:url(#SVGID_103_);enable-background:new    ;}
	.st96{fill:url(#SVGID_104_);}
	.st97{clip-path:url(#SVGID_107_);enable-background:new    ;}
	.st98{fill:url(#SVGID_108_);}
	.st99{clip-path:url(#SVGID_111_);enable-background:new    ;}
	.st100{fill:url(#SVGID_112_);}
	.st101{fill:url(#SVGID_113_);}
	.st102{fill:url(#SVGID_114_);}
	.st103{clip-path:url(#SVGID_117_);enable-background:new    ;}
	.st104{fill:url(#SVGID_118_);}
	.st105{clip-path:url(#SVGID_121_);enable-background:new    ;}
	.st106{fill:url(#SVGID_122_);}
	.st107{fill:url(#SVGID_123_);}
	.st108{fill:url(#SVGID_124_);}
	.st109{fill:url(#SVGID_125_);}
	.st110{fill:url(#SVGID_126_);}
	.st111{fill:url(#SVGID_127_);}
	.st112{fill:url(#SVGID_128_);}
	.st113{fill:url(#SVGID_129_);}
	.st114{fill:url(#SVGID_130_);}
	.st115{fill:url(#SVGID_131_);}
	.st116{fill:url(#SVGID_132_);}
	.st117{fill:url(#SVGID_133_);}
	.st118{fill:url(#SVGID_134_);}
	.st119{fill:url(#SVGID_135_);}
	.st120{fill:url(#SVGID_136_);}
	.st121{fill:url(#SVGID_137_);}
	.st122{opacity:0.5;fill:url(#SVGID_138_);}
	.st123{opacity:0.5;fill:url(#SVGID_139_);}
	.st124{opacity:0.5;fill:url(#SVGID_140_);}
	.st125{opacity:0.5;fill:url(#SVGID_141_);}
	.st126{fill:#8E1686;}
	.st127{fill:#D60B52;}
	.st128{fill:#1D1D1B;}
	.st129{fill:url(#SVGID_142_);}
	.st130{fill:url(#SVGID_143_);}
	.st131{fill:url(#SVGID_144_);}
	.st132{fill:#330830;}
	.st133{fill:#F4C13C;}
	.st134{opacity:0.4;}
	.st135{fill:#06332F;}
	.st136{fill:url(#SVGID_145_);}
	.st137{fill:url(#SVGID_146_);}
	.st138{fill:url(#SVGID_147_);}
	.st139{fill:#470B43;}
	.st140{opacity:0.7;fill:#FFFFFF;}
	.st141{opacity:0.5;fill:url(#SVGID_148_);}
	.st142{opacity:0.5;fill:url(#SVGID_149_);}
</style>
<g>
	<path class="st0" d="M731.7,666.8c1.8-4.6,1.5-18.4,1.5-23.4l-4.3-4.3c5-7.5,4.5-21.9,4.3-30.5l-20.5-20.2
		c-10.7,0.4-39-2.2-48.1,4.5l-9,14c-15.7-26.8-65-26.5-79.2,1.6c-14.2-22.8-54.4-24.9-76.9-15.6l-7.6,11.9l-16.7-16.4
		c-10.7,0.4-39-2.2-48.1,4.5l-2.1,3.3l-1.7-3.8c-4.3-2.6-13.5-5.7-18.5-6.2l-19.5,14.2l-1.8,5.6l-2-5.9l-20-13.9
		c-4.8,0.4-13.9,3.8-18.1,6.1l-2.3,5.1l-11.7-11.2c-5.1,0.5-14.4,4.2-18.9,6.7l-8.6,13.4c-18.7-25.5-64.7-25.5-83.4,0l-18.3-17.9
		c-10.7,0.4-39-2.2-48.1,4.5l-6.5,10.1l-14.9-14.6h-46L66.3,600c-6.1,9-6.9,23.9-6.3,34.4l16,15c-9,18-19.2,33-16.5,54.6L80,724.2
		h47l18.5-11.6l1.2-2.4l14.2,14h43.9l16.3-10.2l12.8,12.2c5.1-0.5,14.4-4.2,18.9-6.7l6.6-10.2l17.6,16.9c5.1-0.5,14.4-4.2,18.9-6.7
		l6.5-10.1l17.5,16.8c5.1-0.5,14.4-4.2,18.9-6.7l11.7-18.2v-15.2l9,26.4l20,13.7c22.8-3,30.3-17.9,35.9-38V704l20.5,20.2h43.9
		l16.3-10.2l12.7,12.2c5.1-0.5,14.4-4.2,18.9-6.7l4.4-6.8c1,5.1,16.9,11.4,20.8,13.5c4.9-0.5,13.9-3.9,18.1-6.2l3.7-13.9
		c18.3,25.1,62.5,25.4,82.2,1.8l16.5,16.2h43.9l18.5-11.6c6.1-9,6.9-23.9,6.3-34.3L731.7,666.8z M576.1,691.8
		c-0.3-0.3-0.5-0.7-0.7-1C575.6,691.1,575.9,691.5,576.1,691.8C576.1,691.8,576.1,691.8,576.1,691.8z M576.4,692.2
		C576.4,692.2,576.4,692.2,576.4,692.2c0.1,0.2,0.3,0.4,0.5,0.6C576.8,692.6,576.6,692.4,576.4,692.2z M577.6,693.6
		c-0.1-0.1-0.1-0.2-0.2-0.2C577.5,693.5,577.6,693.6,577.6,693.6C577.6,693.7,577.6,693.6,577.6,693.6z M578.2,694.2
		C578.2,694.2,578.2,694.2,578.2,694.2c0.3,0.4,0.7,0.7,1.1,1.1C578.9,695,578.5,694.6,578.2,694.2z M579.9,696
		C579.9,696,579.9,696,579.9,696C580,696,580,696,579.9,696C580,696,580,696,579.9,696z M581.8,697.6
		C581.8,697.6,581.8,697.7,581.8,697.6C581.8,697.7,581.8,697.6,581.8,697.6C581.8,697.6,581.8,697.6,581.8,697.6z"/>
	<g>
		<path class="st1" d="M728.4,594.2c-13.4,0-14,1.4-14,14c0-13.1-1.5-14-14-14c12.6,0,14-1.3,14-14
			C714.3,593,715.1,594.2,728.4,594.2z"/>
		<g>
			<radialGradient id="SVGID_1_" cx="713.8903" cy="593.5452" r="11.8555" gradientUnits="userSpaceOnUse">
				<stop  offset="0.188" style="stop-color:#FFFFFF;stop-opacity:0.5"/>
				<stop  offset="1" style="stop-color:#FFFFFF;stop-opacity:0"/>
			</radialGradient>
			<circle class="st2" cx="713.9" cy="593.5" r="11.9"/>
			<circle class="st1" cx="713.9" cy="593.9" r="2.3"/>
		</g>
	</g>
	<g>
		<path class="st3" d="M729.9,632.4l1.5-7.1V609l-4.3-4.3l2.4-5.1l1.9-9.1v-16.3l-7.4-1.5L712,561l11.9,11.7l7.4,1.5l-20.5-20.2
			h-33.7l-8.7,1.9l-5.7,2.6l-9,14c-15.7-26.8-65-26.5-79.2,1.6c-0.2-0.3-0.4-0.6-0.6-0.9c-0.1-0.1-0.2-0.3-0.3-0.4
			c-0.6-0.8-1.2-1.7-1.9-2.5c-0.1-0.1-0.1-0.2-0.2-0.3c0,0,0,0-0.1-0.1c-0.8-1-1.8-2-2.8-3c-0.1-0.1-0.2-0.2-0.3-0.3
			c-0.2-0.2-0.4-0.4-0.7-0.6c-0.3-0.3-0.6-0.5-0.9-0.8c-0.5-0.4-1-0.8-1.5-1.1c-0.3-0.2-0.6-0.5-1-0.7c-0.1-0.1-0.3-0.2-0.4-0.3
			c-0.3-0.2-0.7-0.4-1-0.6c-0.5-0.3-1.1-0.7-1.6-1c-0.5-0.3-1-0.6-1.5-0.8c-0.6-0.3-1.2-0.6-1.8-0.9c-0.2-0.1-0.4-0.2-0.5-0.3
			c-0.8-0.4-1.6-0.7-2.5-1.1c-1.9-0.8-3.8-1.4-5.8-2c-0.1,0-0.2-0.1-0.4-0.1c-1.5-0.4-3-0.7-4.5-1c-0.4-0.1-0.7-0.1-1.1-0.2
			c-1.4-0.2-2.8-0.4-4.2-0.6c-0.5-0.1-1-0.1-1.5-0.1c-1.8-0.1-3.5-0.2-5.3-0.2h-20.2l-8.7,1.9l-5.7,2.6l-7.6,11.9l-16.7-16.4h-33.7
			l-8.7,1.9l-5.7,2.6l-2.1,3.3l-1.7-3.8l-9.2-4.3L403,552l-19.5,14.2l-1.8,5.6l-2-5.9l-20-13.9l-8.4,1.8l-9.8,4.3l-2.3,5.1
			L327.6,552l-8.8,1.9l-10.1,4.7l-8.6,13.4c-18.7-25.5-64.7-25.5-83.4,0l-18.3-17.9h-33.7L156,556l-5.7,2.6l-6.5,10.1L129,554.1H83
			l-18.6,11.6l-4.3,9l-2,9.1L79.7,604l0,0l-21.5-20.2v16.3l16,15L59.8,644l-2.1,9.4v16.3l20.5,20.2h47l18.5-11.6l1.2-2.4l14.2,14
			H203l16.3-10.2l12.8,12.2l8.8-1.9l10.1-4.7l6.6-10.2l17.6,16.9l8.8-1.9l10.1-4.7l6.5-10.1l17.5,16.8l8.8-1.9l10.1-4.7l11.7-18.2
			v-15.2l9,26.4l20,13.7l8.4-1.8l9.7-4.3l11-12l6.8-20v15.7l20.5,20.2h43.9l16.3-10.2l12.7,12.2l8.8-1.9l10.1-4.7l4.4-6.8l3.4,4.9
			l17.3,8.6l8.7-1.9l9.4-4.3l3.7-13.9c0,0,0.1,0.1,0.1,0.1c0.4,0.6,0.8,1.1,1.2,1.7c0,0,0.1,0.1,0.1,0.1c0.1,0.1,0.2,0.3,0.3,0.4
			c0.3,0.4,0.6,0.7,0.9,1.1c0.1,0.1,0.2,0.2,0.3,0.4c0.2,0.2,0.3,0.4,0.5,0.6c0.2,0.2,0.3,0.4,0.5,0.6c0.3,0.3,0.5,0.5,0.8,0.8
			c0.2,0.1,0.3,0.3,0.5,0.4c0.1,0.1,0.1,0.1,0.2,0.2c0.5,0.5,1,0.9,1.6,1.4c0,0,0.1,0.1,0.2,0.1c0.1,0.1,0.3,0.2,0.4,0.3
			c0.4,0.3,0.8,0.6,1.2,0.9c0.2,0.1,0.4,0.3,0.6,0.4c0.2,0.2,0.5,0.3,0.7,0.5c0.2,0.1,0.4,0.3,0.6,0.4c0.4,0.3,0.9,0.5,1.3,0.8
			c0.2,0.1,0.4,0.3,0.6,0.4c0.1,0,0.1,0.1,0.2,0.1c0.8,0.5,1.7,0.9,2.6,1.4c0,0,0.1,0,0.1,0c0.8,0.4,1.7,0.8,2.6,1.2
			c0.3,0.1,0.6,0.3,0.9,0.4c0,0,0,0,0.1,0c1.2,0.5,2.4,0.9,3.6,1.4c0.3,0.1,0.7,0.2,1,0.3c0.6,0.2,1.2,0.4,1.9,0.5
			c0.6,0.2,1.1,0.3,1.7,0.5c0.4,0.1,0.7,0.1,1.1,0.2c1.6,0.4,3.2,0.6,4.8,0.9c0.5,0.1,0.9,0.2,1.4,0.2c0.2,0,0.4,0,0.6,0
			c2.2,0.2,4.4,0.4,6.7,0.4c2.3,0,4.5-0.1,6.7-0.4c0.2,0,0.4,0,0.6,0c0.5-0.1,0.9-0.2,1.4-0.2c1.6-0.2,3.3-0.5,4.9-0.9
			c0.4-0.1,0.8-0.1,1.1-0.2c0.6-0.1,1.1-0.3,1.7-0.5c0.6-0.2,1.2-0.3,1.9-0.5c0.3-0.1,0.7-0.2,1-0.3c1.2-0.4,2.4-0.9,3.6-1.3
			c0,0,0,0,0,0c0.1-0.1,0.2-0.1,0.4-0.2c1-0.4,1.9-0.8,2.8-1.3c0,0,0.1,0,0.2-0.1c0.5-0.2,1-0.5,1.5-0.8c0.4-0.2,0.8-0.4,1.1-0.6
			c0,0,0.1,0,0.1-0.1c0.8-0.5,1.6-0.9,2.3-1.4c0,0,0,0,0,0c0.1,0,0.1-0.1,0.2-0.2c0.6-0.4,1.2-0.8,1.7-1.2c0.1,0,0.1-0.1,0.2-0.2
			c0.2-0.2,0.4-0.3,0.6-0.5c0.3-0.2,0.6-0.5,1-0.7c0.1-0.1,0.2-0.2,0.4-0.3c0.2-0.2,0.4-0.4,0.7-0.6c0.2-0.2,0.4-0.3,0.6-0.5
			c0.2-0.2,0.4-0.4,0.5-0.5c0.2-0.2,0.4-0.4,0.6-0.6c0.1-0.1,0.2-0.2,0.3-0.3c0.2-0.3,0.5-0.5,0.7-0.8c0.2-0.2,0.3-0.4,0.5-0.5
			c0-0.1,0.1-0.1,0.2-0.2c0.4-0.5,0.8-1,1.2-1.5l16.5,16.2h43.9l18.5-11.6l4.3-9l2-9.1v-16.3L729.9,632.4z M574.9,642.2
			C574.8,642.2,574.8,642.2,574.9,642.2c0,0.1,0.1,0.1,0.1,0.2c0,0,0,0,0,0C574.9,642.4,574.9,642.3,574.9,642.2z M573.4,640.1
			C573.4,640.1,573.4,640.1,573.4,640.1c0.1,0.1,0.2,0.2,0.2,0.3c0,0,0,0,0,0C573.5,640.4,573.5,640.3,573.4,640.1z M571.7,637.7
			C571.7,637.7,571.7,637.7,571.7,637.7c0.1,0.1,0.2,0.3,0.3,0.4c0,0,0,0,0,0C571.9,638,571.8,637.8,571.7,637.7z M269.2,557.1
			c3.8,0.5,7.2,1.7,10.4,3.2c-0.4-0.2-0.8-0.3-1.2-0.5C275.5,558.6,272.4,557.7,269.2,557.1z M575.5,585.1
			C575.5,585.1,575.5,585.1,575.5,585.1C575.5,585.1,575.5,585.1,575.5,585.1C575.5,585.1,575.5,585.1,575.5,585.1z M550.4,560.2
			c0.7,0.2,1.3,0.4,2,0.7C551.7,560.6,551,560.4,550.4,560.2z M576.2,644.2c0.1,0.1,0.2,0.2,0.3,0.4c0,0,0,0,0,0
			C576.4,644.4,576.3,644.3,576.2,644.2C576.2,644.2,576.2,644.2,576.2,644.2z M653.2,582.4C653.2,582.3,653.2,582.3,653.2,582.4
			C653.2,582.3,653.2,582.3,653.2,582.4L653.2,582.4z M586.8,656C586.8,656,586.8,656,586.8,656C586.8,656,586.8,656,586.8,656
			C586.8,656,586.8,656,586.8,656C586.9,656,586.9,656,586.8,656z M583.7,653.1c0,0-0.1-0.1-0.1-0.1c0,0,0,0,0,0
			C583.6,653.1,583.6,653.1,583.7,653.1C583.7,653.1,583.7,653.1,583.7,653.1z M581.2,650.5c-0.1-0.1-0.1-0.2-0.2-0.3c0,0,0,0,0,0
			C581.1,650.3,581.1,650.4,581.2,650.5C581.2,650.5,581.2,650.5,581.2,650.5z M580.1,649.2c0,0-0.1-0.1-0.1-0.1c0,0,0,0,0,0
			C580,649.1,580,649.1,580.1,649.2C580.1,649.2,580.1,649.2,580.1,649.2z M655.1,657.3L655.1,657.3
			C655.1,657.3,655.1,657.3,655.1,657.3C655.1,657.3,655.1,657.3,655.1,657.3z M708,557.1l-29.3-0.1l0,0l0,0L708,557.1z M669,559.5
			l-1.5,0.7l-2.2,3.4l2.2-3.4L669,559.5z M649.3,575.4c-1.5-2.4-2.8-4.5-4.2-6.3C646.7,571,648.1,573.2,649.3,575.4z M644.4,568.1
			C644.4,568.1,644.4,568.1,644.4,568.1C644.4,568.1,644.4,568.1,644.4,568.1z M621.2,556.4c-2.2-0.3-4.4-0.4-6.6-0.4
			c-3.9,0-7.9,0.4-11.5,1.3C608.9,555.9,615.1,555.6,621.2,556.4z M622.7,556.7c-0.4-0.1-0.8-0.1-1.2-0.2
			C621.9,556.5,622.3,556.6,622.7,556.7z M583.2,570.4c-1.4,2.1-2.8,4.6-4.3,7.5C580.2,575.3,581.6,572.7,583.2,570.4z M548.8,559.7
			c-0.2,0-0.3-0.1-0.5-0.1C548.5,559.6,548.6,559.6,548.8,559.7z M502.4,560.2l3.9-1.7l7.3-1.5l18.6,0.1c0,0,0,0,0,0c0,0,0,0,0,0
			l-18.6-0.1l-7.3,1.5L502.4,560.2l-11.1,17.3l0,0L502.4,560.2z M441.1,557l29.4,0.1l11.7,11.5l-11.7-11.5L441.1,557l-7.3,1.5
			l-2.6,1.2l2.6-1.2L441.1,557z M416.2,559.5l5.8,13.2l0,0L416.2,559.5l-5.3-2.7l-5.9-1.3l5.9,1.3L416.2,559.5z M389.3,566.5
			l5.2-3.8L389.3,566.5l-7.5,23.6l0,0L389.3,566.5z M373.9,566.3l4.4,13.3L373.9,566.3l-15.7-10.9h0L373.9,566.3z M350.1,557.9
			l-3.4,1.5l-3.9,8.8l3.9-8.8L350.1,557.9z M341.6,571L341.6,571l-4-3.8L341.6,571z M313.4,560.1l8.3-3.8l3.7-0.7l0,0l-3.7,0.7
			L313.4,560.1l-13.2,20.5c0,0,0,0,0,0L313.4,560.1z M300.2,580.6c-2.7-4-5-7.1-7.1-9.7C295.8,573.9,298.1,577.2,300.2,580.6z
			 M268.2,556.9c-3.2-0.6-6.5-0.9-9.8-0.9c-0.5,0-1.1,0-1.6,0C260.6,555.9,264.4,556.2,268.2,556.9z M221.8,573.3
			c-1.3,1.7-2.6,3.5-4,5.6l0,0C219,576.9,220.3,575,221.8,573.3z M166.3,557l29.3,0.1L166.3,557l-6.5,1.3L166.3,557z M155.1,560.2
			l2.5-1.1L155.1,560.2l-7.2,11.2L155.1,560.2z M126.2,557.1l18.9,18.6l0,0L126.2,557.1L126.2,557.1z M66.9,572.3l1.4-2.7
			L66.9,572.3l-1.2,5.5l16.6,15.5l-16.6-15.5L66.9,572.3z M572.9,655.5L572.9,655.5c0,0.1,0.1,0.1,0.1,0.2
			C573,655.6,572.9,655.6,572.9,655.5z"/>
		<g>
			<g class="st4">
				<g>
					<polygon class="st3" points="731.4,574.2 731.4,590.5 729.5,599.6 729.5,583.4 					"/>
				</g>
				<g>
					<polygon class="st3" points="729.5,583.4 729.5,599.6 725.2,608.7 725.2,592.4 					"/>
				</g>
				<g>
					<polygon class="st3" points="725.2,592.4 725.2,608.7 718.6,612.7 718.6,596.5 					"/>
				</g>
				<g>
					<polygon class="st3" points="79.7,604 79.7,620.2 58.2,600.1 58.2,583.8 					"/>
				</g>
				<g>
					<polygon class="st3" points="731.4,609 731.4,625.3 729.5,634.4 729.5,618.2 					"/>
				</g>
				<g>
					<polygon class="st3" points="729.5,618.2 729.5,634.4 725.2,643.5 725.2,627.2 					"/>
				</g>
				<g>
					<polygon class="st3" points="740.3,643.8 740.3,660.1 738.3,669.2 738.3,653 					"/>
				</g>
				<g>
					<linearGradient id="SVGID_2_" gradientUnits="userSpaceOnUse" x1="410.1092" y1="673.8289" x2="410.1092" y2="637.6031">
						<stop  offset="0" style="stop-color:#6E1168"/>
						<stop  offset="0.9715" style="stop-color:#290726"/>
					</linearGradient>
					<polygon class="st5" points="413.5,637.6 413.5,653.9 406.7,673.8 406.7,657.6 					"/>
				</g>
				<g>
					<polygon class="st3" points="738.3,653 738.3,669.2 734,678.2 734,661.9 					"/>
				</g>
				<g>
					<linearGradient id="SVGID_3_" gradientUnits="userSpaceOnUse" x1="353.1154" y1="678.1856" x2="353.1154" y2="635.5458">
						<stop  offset="0" style="stop-color:#6E1168"/>
						<stop  offset="0.9715" style="stop-color:#290726"/>
					</linearGradient>
					<polygon class="st6" points="357.6,661.9 357.6,678.2 348.6,651.8 348.6,635.5 					"/>
				</g>
				<g>
					<polygon class="st3" points="144.9,659.5 144.9,675.8 143.7,678.2 143.7,661.9 					"/>
				</g>
				<g>
					<linearGradient id="SVGID_4_" gradientUnits="userSpaceOnUse" x1="531.9619" y1="683.2692" x2="531.9619" y2="662.1119">
						<stop  offset="0" style="stop-color:#6E1168"/>
						<stop  offset="0.9715" style="stop-color:#290726"/>
					</linearGradient>
					<polygon class="st7" points="533.7,667 533.7,683.3 530.2,678.4 530.2,662.1 					"/>
				</g>
				<g>
					<linearGradient id="SVGID_5_" gradientUnits="userSpaceOnUse" x1="297.2896" y1="685.2054" x2="297.2896" y2="658.8439">
						<stop  offset="0" style="stop-color:#6E1168"/>
						<stop  offset="0.9715" style="stop-color:#290726"/>
					</linearGradient>
					<polygon class="st8" points="300.5,658.8 300.5,675.1 294,685.2 294,668.9 					"/>
				</g>
				<g>
					<linearGradient id="SVGID_6_" gradientUnits="userSpaceOnUse" x1="528.0292" y1="685.2054" x2="528.0292" y2="662.1119">
						<stop  offset="0" style="stop-color:#6E1168"/>
						<stop  offset="0.9715" style="stop-color:#290726"/>
					</linearGradient>
					<polygon class="st9" points="530.2,662.1 530.2,678.4 525.8,685.2 525.8,668.9 					"/>
				</g>
				<g>
					<linearGradient id="SVGID_7_" gradientUnits="userSpaceOnUse" x1="254.2444" y1="685.2054" x2="254.2444" y2="658.7228">
						<stop  offset="0" style="stop-color:#6E1168"/>
						<stop  offset="0.9715" style="stop-color:#290726"/>
					</linearGradient>
					<polygon class="st10" points="257.5,658.7 257.5,675 251,685.2 251,668.9 					"/>
				</g>
				<g>
					<linearGradient id="SVGID_8_" gradientUnits="userSpaceOnUse" x1="342.7306" y1="685.2054" x2="342.7306" y2="650.7349">
						<stop  offset="0" style="stop-color:#6E1168"/>
						<stop  offset="0.9715" style="stop-color:#290726"/>
					</linearGradient>
					<polygon class="st11" points="348.6,650.7 348.6,667 336.9,685.2 336.9,668.9 					"/>
				</g>
				<g>
					<linearGradient id="SVGID_9_" gradientUnits="userSpaceOnUse" x1="571.0123" y1="685.6293" x2="571.0123" y2="655.5156">
						<stop  offset="0" style="stop-color:#6E1168"/>
						<stop  offset="0.9715" style="stop-color:#290726"/>
					</linearGradient>
					<polygon class="st12" points="572.9,655.5 572.9,671.8 569.1,685.6 569.1,669.4 					"/>
				</g>
				<g>
					<linearGradient id="SVGID_10_" gradientUnits="userSpaceOnUse" x1="401.2301" y1="685.8107" x2="401.2301" y2="657.5733">
						<stop  offset="0" style="stop-color:#6E1168"/>
						<stop  offset="0.9715" style="stop-color:#290726"/>
					</linearGradient>
					<polygon class="st13" points="406.7,657.6 406.7,673.8 395.7,685.8 395.7,669.6 					"/>
				</g>
				<g>
					<linearGradient id="SVGID_11_" gradientUnits="userSpaceOnUse" x1="455.9807" y1="689.8047" x2="455.9807" y2="673.5491">
						<stop  offset="0" style="stop-color:#6E1168"/>
						<stop  offset="0.9715" style="stop-color:#290726"/>
					</linearGradient>
					<rect x="434" y="673.5" class="st14" width="43.9" height="16.3"/>
				</g>
				<g>
					<linearGradient id="SVGID_12_" gradientUnits="userSpaceOnUse" x1="486.0908" y1="689.8047" x2="486.0908" y2="663.3824">
						<stop  offset="0" style="stop-color:#6E1168"/>
						<stop  offset="0.9715" style="stop-color:#290726"/>
					</linearGradient>
					<polygon class="st15" points="494.2,663.4 494.2,679.6 477.9,689.8 477.9,673.5 					"/>
				</g>
				<g>
					<linearGradient id="SVGID_13_" gradientUnits="userSpaceOnUse" x1="663.3391" y1="689.8047" x2="663.3391" y2="657.3312">
						<stop  offset="0" style="stop-color:#6E1168"/>
						<stop  offset="0.9715" style="stop-color:#290726"/>
					</linearGradient>
					<polygon class="st16" points="671.6,673.5 671.6,689.8 655.1,673.6 655.1,657.3 					"/>
				</g>
				<g>
					<linearGradient id="SVGID_14_" gradientUnits="userSpaceOnUse" x1="693.5413" y1="689.8047" x2="693.5413" y2="673.5491">
						<stop  offset="0" style="stop-color:#6E1168"/>
						<stop  offset="0.9715" style="stop-color:#290726"/>
					</linearGradient>
					<rect x="671.6" y="673.5" class="st17" width="43.9" height="16.3"/>
				</g>
				<g>
					<linearGradient id="SVGID_15_" gradientUnits="userSpaceOnUse" x1="724.7569" y1="689.8047" x2="724.7569" y2="661.9301">
						<stop  offset="0" style="stop-color:#6E1168"/>
						<stop  offset="0.9715" style="stop-color:#290726"/>
					</linearGradient>
					<polygon class="st18" points="734,661.9 734,678.2 715.5,689.8 715.5,673.5 					"/>
				</g>
				<g>
					<linearGradient id="SVGID_16_" gradientUnits="userSpaceOnUse" x1="211.1691" y1="689.8047" x2="211.1691" y2="663.3824">
						<stop  offset="0" style="stop-color:#6E1168"/>
						<stop  offset="0.9715" style="stop-color:#290726"/>
					</linearGradient>
					<polygon class="st19" points="219.3,663.4 219.3,679.6 203,689.8 203,673.5 					"/>
				</g>
				<g>
					<linearGradient id="SVGID_17_" gradientUnits="userSpaceOnUse" x1="181.0595" y1="689.8047" x2="181.0595" y2="673.5491">
						<stop  offset="0" style="stop-color:#6E1168"/>
						<stop  offset="0.9715" style="stop-color:#290726"/>
					</linearGradient>
					<rect x="159.1" y="673.5" class="st20" width="43.9" height="16.3"/>
				</g>
				<g>
					<linearGradient id="SVGID_18_" gradientUnits="userSpaceOnUse" x1="151.9941" y1="689.8047" x2="151.9941" y2="659.5096">
						<stop  offset="0" style="stop-color:#6E1168"/>
						<stop  offset="0.9715" style="stop-color:#290726"/>
					</linearGradient>
					<polygon class="st21" points="159.1,673.5 159.1,689.8 144.9,675.8 144.9,659.5 					"/>
				</g>
				<g>
					<linearGradient id="SVGID_19_" gradientUnits="userSpaceOnUse" x1="67.9323" y1="689.8047" x2="67.9323" y2="653.3372">
						<stop  offset="0" style="stop-color:#6E1168"/>
						<stop  offset="0.9715" style="stop-color:#290726"/>
					</linearGradient>
					<polygon class="st22" points="78.2,673.5 78.2,689.8 57.7,669.6 57.7,653.3 					"/>
				</g>
				<g>
					<linearGradient id="SVGID_20_" gradientUnits="userSpaceOnUse" x1="101.6674" y1="689.8047" x2="101.6674" y2="673.5491">
						<stop  offset="0" style="stop-color:#6E1168"/>
						<stop  offset="0.9715" style="stop-color:#290726"/>
					</linearGradient>
					<rect x="78.2" y="673.5" class="st23" width="47" height="16.3"/>
				</g>
				<g>
					<linearGradient id="SVGID_21_" gradientUnits="userSpaceOnUse" x1="134.4196" y1="689.8047" x2="134.4196" y2="661.9301">
						<stop  offset="0" style="stop-color:#6E1168"/>
						<stop  offset="0.9715" style="stop-color:#290726"/>
					</linearGradient>
					<polygon class="st24" points="143.7,661.9 143.7,678.2 125.2,689.8 125.2,673.5 					"/>
				</g>
				<g>
					<linearGradient id="SVGID_22_" gradientUnits="userSpaceOnUse" x1="423.7507" y1="689.8047" x2="423.7507" y2="653.3372">
						<stop  offset="0" style="stop-color:#6E1168"/>
						<stop  offset="0.9715" style="stop-color:#290726"/>
					</linearGradient>
					<polygon class="st25" points="434,673.5 434,689.8 413.5,669.6 413.5,653.3 					"/>
				</g>
				<g>
					<linearGradient id="SVGID_23_" gradientUnits="userSpaceOnUse" x1="331.8236" y1="689.9258" x2="331.8236" y2="668.9499">
						<stop  offset="0" style="stop-color:#6E1168"/>
						<stop  offset="0.9715" style="stop-color:#290726"/>
					</linearGradient>
					<polygon class="st26" points="336.9,668.9 336.9,685.2 326.8,689.9 326.8,673.7 					"/>
				</g>
				<g>
					<linearGradient id="SVGID_24_" gradientUnits="userSpaceOnUse" x1="564.4376" y1="689.9258" x2="564.4376" y2="669.3738">
						<stop  offset="0" style="stop-color:#6E1168"/>
						<stop  offset="0.9715" style="stop-color:#290726"/>
					</linearGradient>
					<polygon class="st27" points="569.1,669.4 569.1,685.6 559.7,689.9 559.7,673.7 					"/>
				</g>
				<g>
					<linearGradient id="SVGID_25_" gradientUnits="userSpaceOnUse" x1="288.9938" y1="689.9258" x2="288.9938" y2="668.9499">
						<stop  offset="0" style="stop-color:#6E1168"/>
						<stop  offset="0.9715" style="stop-color:#290726"/>
					</linearGradient>
					<polygon class="st28" points="294,668.9 294,685.2 284,689.9 284,673.7 					"/>
				</g>
				<g>
					<linearGradient id="SVGID_26_" gradientUnits="userSpaceOnUse" x1="245.9182" y1="689.9258" x2="245.9182" y2="668.9499">
						<stop  offset="0" style="stop-color:#6E1168"/>
						<stop  offset="0.9715" style="stop-color:#290726"/>
					</linearGradient>
					<polygon class="st29" points="251,668.9 251,685.2 240.9,689.9 240.9,673.7 					"/>
				</g>
				<g>
					<linearGradient id="SVGID_27_" gradientUnits="userSpaceOnUse" x1="520.7781" y1="689.9258" x2="520.7781" y2="668.9499">
						<stop  offset="0" style="stop-color:#6E1168"/>
						<stop  offset="0.9715" style="stop-color:#290726"/>
					</linearGradient>
					<polygon class="st30" points="525.8,668.9 525.8,685.2 515.7,689.9 515.7,673.7 					"/>
				</g>
				<g>
					<linearGradient id="SVGID_28_" gradientUnits="userSpaceOnUse" x1="390.8761" y1="690.1072" x2="390.8761" y2="669.5552">
						<stop  offset="0" style="stop-color:#6E1168"/>
						<stop  offset="0.9715" style="stop-color:#290726"/>
					</linearGradient>
					<polygon class="st31" points="395.7,669.6 395.7,685.8 386,690.1 386,673.9 					"/>
				</g>
				<linearGradient id="SVGID_29_" gradientUnits="userSpaceOnUse" x1="615.8054" y1="694.7172" x2="613.7579" y2="660.5923">
					<stop  offset="0" style="stop-color:#6E1168"/>
					<stop  offset="0.9715" style="stop-color:#290726"/>
				</linearGradient>
				<path class="st32" d="M653.8,659c-0.2,0.2-0.3,0.4-0.5,0.6c-0.3,0.4-0.7,0.7-1,1.1c-0.2,0.2-0.4,0.4-0.6,0.6
					c-0.4,0.3-0.7,0.7-1.1,1c-0.2,0.2-0.4,0.4-0.7,0.6c-0.4,0.4-0.9,0.7-1.3,1.1c-0.2,0.2-0.4,0.3-0.6,0.5c-0.6,0.5-1.3,0.9-2,1.4
					c-0.1,0-0.1,0.1-0.2,0.1c-0.8,0.5-1.6,1-2.4,1.5c-0.4,0.2-0.8,0.4-1.2,0.6c-0.5,0.3-1,0.6-1.6,0.8c-0.9,0.4-1.8,0.9-2.8,1.3
					c-0.1,0.1-0.3,0.1-0.4,0.2c-1.5,0.6-3.1,1.2-4.6,1.6c-0.6,0.2-1.2,0.4-1.9,0.5c-0.9,0.3-1.8,0.5-2.8,0.7
					c-1.6,0.4-3.2,0.6-4.9,0.9c-0.6,0.1-1.3,0.2-1.9,0.3c-2.2,0.2-4.4,0.4-6.7,0.4c-2.3,0-4.5-0.1-6.7-0.4c-0.6-0.1-1.3-0.2-1.9-0.3
					c-1.6-0.2-3.2-0.5-4.8-0.9c-0.9-0.2-1.9-0.4-2.8-0.7c-0.6-0.2-1.2-0.3-1.8-0.5c-1.6-0.5-3.1-1-4.6-1.6c-0.3-0.1-0.6-0.3-0.9-0.4
					c-0.9-0.4-1.8-0.8-2.6-1.2c-1-0.5-1.9-1-2.8-1.5c-0.2-0.1-0.4-0.3-0.7-0.4c-0.7-0.4-1.3-0.8-1.9-1.2c-0.2-0.2-0.5-0.3-0.7-0.5
					c-0.6-0.4-1.2-0.9-1.8-1.3c-0.1-0.1-0.3-0.2-0.4-0.3c-0.7-0.6-1.3-1.1-2-1.7c-0.2-0.1-0.3-0.3-0.5-0.4c-0.5-0.4-0.9-0.9-1.3-1.4
					c-0.2-0.2-0.3-0.4-0.5-0.6c-0.4-0.5-0.8-1-1.2-1.4c-0.1-0.1-0.2-0.3-0.3-0.4c-0.5-0.6-1-1.3-1.4-1.9v16.3c0,0,0.1,0.1,0.1,0.1
					c0.4,0.6,0.8,1.1,1.2,1.7c0,0,0.1,0.1,0.1,0.1c0.1,0.1,0.2,0.3,0.3,0.4c0.3,0.4,0.6,0.7,0.9,1.1c0.1,0.1,0.2,0.2,0.3,0.4
					c0.2,0.2,0.3,0.4,0.5,0.6c0.2,0.2,0.3,0.4,0.5,0.6c0.3,0.3,0.5,0.5,0.8,0.8c0.2,0.1,0.3,0.3,0.5,0.4c0.1,0.1,0.1,0.1,0.2,0.2
					c0.5,0.5,1,0.9,1.6,1.4c0,0,0.1,0.1,0.2,0.1c0.1,0.1,0.3,0.2,0.4,0.3c0.4,0.3,0.8,0.6,1.2,0.9c0.2,0.1,0.4,0.3,0.6,0.4
					c0.2,0.2,0.5,0.3,0.7,0.5c0.2,0.1,0.4,0.3,0.6,0.4c0.4,0.3,0.9,0.5,1.3,0.8c0.2,0.1,0.4,0.3,0.6,0.4c0.1,0,0.1,0.1,0.2,0.1
					c0.8,0.5,1.7,0.9,2.6,1.4c0,0,0.1,0,0.1,0c0.8,0.4,1.7,0.8,2.6,1.2c0.3,0.1,0.6,0.3,0.9,0.4c0,0,0,0,0.1,0
					c1.2,0.5,2.4,0.9,3.6,1.4c0.3,0.1,0.7,0.2,1,0.3c0.6,0.2,1.2,0.4,1.9,0.5c0.6,0.2,1.1,0.3,1.7,0.5c0.4,0.1,0.7,0.1,1.1,0.2
					c1.6,0.4,3.2,0.6,4.8,0.9c0.5,0.1,0.9,0.2,1.4,0.2c0.2,0,0.4,0,0.6,0c2.2,0.2,4.4,0.4,6.7,0.4c2.3,0,4.5-0.1,6.7-0.4
					c0.2,0,0.4,0,0.6,0c0.5-0.1,0.9-0.2,1.4-0.2c1.6-0.2,3.3-0.5,4.9-0.9c0.4-0.1,0.8-0.1,1.1-0.2c0.6-0.1,1.1-0.3,1.7-0.5
					c0.6-0.2,1.2-0.3,1.9-0.5c0.3-0.1,0.7-0.2,1-0.3c1.2-0.4,2.4-0.9,3.6-1.3c0,0,0,0,0,0c0.1-0.1,0.2-0.1,0.4-0.2
					c1-0.4,1.9-0.8,2.8-1.3c0,0,0.1,0,0.2-0.1c0.5-0.2,1-0.5,1.5-0.8c0.4-0.2,0.8-0.4,1.1-0.6c0,0,0.1,0,0.1-0.1
					c0.8-0.5,1.6-0.9,2.3-1.4c0,0,0,0,0,0c0.1,0,0.1-0.1,0.2-0.2c0.6-0.4,1.2-0.8,1.7-1.2c0.1,0,0.1-0.1,0.2-0.2
					c0.2-0.2,0.4-0.3,0.6-0.5c0.3-0.2,0.6-0.5,1-0.7c0.1-0.1,0.2-0.2,0.4-0.3c0.2-0.2,0.4-0.4,0.7-0.6c0.2-0.2,0.4-0.3,0.6-0.5
					c0.2-0.2,0.4-0.4,0.5-0.5c0.2-0.2,0.4-0.4,0.6-0.6c0.1-0.1,0.2-0.2,0.3-0.3c0.2-0.3,0.5-0.5,0.7-0.8c0.2-0.2,0.3-0.4,0.5-0.5
					c0-0.1,0.1-0.1,0.2-0.2c0.4-0.5,0.8-1,1.2-1.5v-16.3C654.7,657.9,654.2,658.4,653.8,659z"/>
				<g>
					<linearGradient id="SVGID_30_" gradientUnits="userSpaceOnUse" x1="266.3498" y1="691.862" x2="266.3498" y2="658.7228">
						<stop  offset="0" style="stop-color:#6E1168"/>
						<stop  offset="0.9715" style="stop-color:#290726"/>
					</linearGradient>
					<polygon class="st33" points="275.2,675.6 275.2,691.9 257.5,675 257.5,658.7 					"/>
				</g>
				<g>
					<linearGradient id="SVGID_31_" gradientUnits="userSpaceOnUse" x1="236.486" y1="691.862" x2="236.486" y2="673.6702">
						<stop  offset="0" style="stop-color:#6E1168"/>
						<stop  offset="0.9715" style="stop-color:#290726"/>
					</linearGradient>
					<polygon class="st34" points="240.9,673.7 240.9,689.9 232.1,691.9 232.1,675.6 					"/>
				</g>
				<g>
					<linearGradient id="SVGID_32_" gradientUnits="userSpaceOnUse" x1="225.7016" y1="691.862" x2="225.7016" y2="663.3824">
						<stop  offset="0" style="stop-color:#6E1168"/>
						<stop  offset="0.9715" style="stop-color:#290726"/>
					</linearGradient>
					<polygon class="st35" points="232.1,675.6 232.1,691.9 219.3,679.6 219.3,663.4 					"/>
				</g>
				<g>
					<linearGradient id="SVGID_33_" gradientUnits="userSpaceOnUse" x1="555.3739" y1="691.862" x2="555.3739" y2="673.6702">
						<stop  offset="0" style="stop-color:#6E1168"/>
						<stop  offset="0.9715" style="stop-color:#290726"/>
					</linearGradient>
					<polygon class="st36" points="559.7,673.7 559.7,689.9 551,691.9 551,675.6 					"/>
				</g>
				<g>
					<linearGradient id="SVGID_34_" gradientUnits="userSpaceOnUse" x1="309.2721" y1="691.862" x2="309.2721" y2="658.8439">
						<stop  offset="0" style="stop-color:#6E1168"/>
						<stop  offset="0.9715" style="stop-color:#290726"/>
					</linearGradient>
					<polygon class="st37" points="318,675.6 318,691.9 300.5,675.1 300.5,658.8 					"/>
				</g>
				<g>
					<linearGradient id="SVGID_35_" gradientUnits="userSpaceOnUse" x1="322.3914" y1="691.862" x2="322.3914" y2="673.6702">
						<stop  offset="0" style="stop-color:#6E1168"/>
						<stop  offset="0.9715" style="stop-color:#290726"/>
					</linearGradient>
					<polygon class="st38" points="326.8,673.7 326.8,689.9 318,691.9 318,675.6 					"/>
				</g>
				<g>
					<linearGradient id="SVGID_36_" gradientUnits="userSpaceOnUse" x1="542.3466" y1="691.862" x2="542.3466" y2="667.0136">
						<stop  offset="0" style="stop-color:#6E1168"/>
						<stop  offset="0.9715" style="stop-color:#290726"/>
					</linearGradient>
					<polygon class="st39" points="551,675.6 551,691.9 533.7,683.3 533.7,667 					"/>
				</g>
				<g>
					<linearGradient id="SVGID_37_" gradientUnits="userSpaceOnUse" x1="511.3456" y1="691.862" x2="511.3456" y2="673.6702">
						<stop  offset="0" style="stop-color:#6E1168"/>
						<stop  offset="0.9715" style="stop-color:#290726"/>
					</linearGradient>
					<polygon class="st40" points="515.7,673.7 515.7,689.9 507,691.9 507,675.6 					"/>
				</g>
				<g>
					<linearGradient id="SVGID_38_" gradientUnits="userSpaceOnUse" x1="279.5612" y1="691.862" x2="279.5612" y2="673.6702">
						<stop  offset="0" style="stop-color:#6E1168"/>
						<stop  offset="0.9715" style="stop-color:#290726"/>
					</linearGradient>
					<polygon class="st41" points="284,673.7 284,689.9 275.2,691.9 275.2,675.6 					"/>
				</g>
				<g>
					<linearGradient id="SVGID_39_" gradientUnits="userSpaceOnUse" x1="367.6174" y1="691.862" x2="367.6174" y2="661.9301">
						<stop  offset="0" style="stop-color:#6E1168"/>
						<stop  offset="0.9715" style="stop-color:#290726"/>
					</linearGradient>
					<polygon class="st42" points="377.6,675.6 377.6,691.9 357.6,678.2 357.6,661.9 					"/>
				</g>
				<g>
					<linearGradient id="SVGID_40_" gradientUnits="userSpaceOnUse" x1="381.8123" y1="691.862" x2="381.8123" y2="673.8516">
						<stop  offset="0" style="stop-color:#6E1168"/>
						<stop  offset="0.9715" style="stop-color:#290726"/>
					</linearGradient>
					<polygon class="st43" points="386,673.9 386,690.1 377.6,691.9 377.6,675.6 					"/>
				</g>
				<g>
					<linearGradient id="SVGID_41_" gradientUnits="userSpaceOnUse" x1="500.5924" y1="691.862" x2="500.5924" y2="663.3824">
						<stop  offset="0" style="stop-color:#6E1168"/>
						<stop  offset="0.9715" style="stop-color:#290726"/>
					</linearGradient>
					<polygon class="st44" points="507,675.6 507,691.9 494.2,679.6 494.2,663.4 					"/>
				</g>
				<linearGradient id="SVGID_42_" gradientUnits="userSpaceOnUse" x1="456.4888" y1="577.976" x2="457.8538" y2="556.8187">
					<stop  offset="2.849976e-02" style="stop-color:#470B43"/>
					<stop  offset="1" style="stop-color:#6E1168"/>
				</linearGradient>
				<polygon class="st45" points="490.1,570.5 473.3,554.1 439.6,554.1 430.9,556 425.2,558.6 423.1,562 422.1,572.7 430,560.1 
					433.8,558.4 441.1,557 470.5,557.1 491.3,577.4 				"/>
				<g>
					<polygon class="st3" points="723.9,572.7 731.4,574.2 729.5,583.4 722.7,578.3 					"/>
				</g>
				<linearGradient id="SVGID_43_" gradientUnits="userSpaceOnUse" x1="180.833" y1="582.5529" x2="180.833" y2="553.3762">
					<stop  offset="2.849976e-02" style="stop-color:#470B43"/>
					<stop  offset="1" style="stop-color:#6E1168"/>
				</linearGradient>
				<polygon class="st46" points="216.7,572 198.5,554.1 164.7,554.1 156,556 150.4,558.6 143.9,568.7 145,575.7 155.1,560.2 
					158.9,558.4 166.3,557 195.7,557.1 217.8,578.8 				"/>
				<linearGradient id="SVGID_44_" gradientUnits="userSpaceOnUse" x1="258.4353" y1="580.6635" x2="258.7766" y2="552.5106">
					<stop  offset="2.849976e-02" style="stop-color:#470B43"/>
					<stop  offset="1" style="stop-color:#6E1168"/>
				</linearGradient>
				<path class="st47" d="M269,557.1c14,2,24.1,11.9,31.2,23.6l-0.1-8.6c-18.7-25.5-64.7-25.5-83.4,0v0l0,0l1.1,6.8
					C228.2,561.5,249.2,552.9,269,557.1z"/>
				<linearGradient id="SVGID_45_" gradientUnits="userSpaceOnUse" x1="320.7801" y1="583.9347" x2="320.9507" y2="552.1986">
					<stop  offset="2.849976e-02" style="stop-color:#470B43"/>
					<stop  offset="1" style="stop-color:#6E1168"/>
				</linearGradient>
				<polygon class="st48" points="339.3,563.2 327.6,552 318.8,553.9 308.7,558.6 300.1,572 300.2,580.6 313.4,560.1 321.7,556.3 
					325.5,555.6 341.6,571 				"/>
				<linearGradient id="SVGID_46_" gradientUnits="userSpaceOnUse" x1="692.3033" y1="582.3573" x2="692.3033" y2="554.0924">
					<stop  offset="2.849976e-02" style="stop-color:#470B43"/>
					<stop  offset="1" style="stop-color:#6E1168"/>
				</linearGradient>
				<polygon class="st49" points="710.9,554.1 677.2,554.1 668.4,556 662.8,558.6 653.8,572.6 653.2,582.4 667.5,560.2 671.3,558.4 
					678.7,557 708.1,557.1 723.9,572.7 731.4,574.2 				"/>
				<g>
					<polygon class="st3" points="722.7,578.3 729.5,583.4 725.2,592.4 719.8,584 					"/>
				</g>
				<linearGradient id="SVGID_47_" gradientUnits="userSpaceOnUse" x1="532.7904" y1="585.1477" x2="532.7904" y2="554.0924">
					<stop  offset="2.849976e-02" style="stop-color:#470B43"/>
					<stop  offset="1" style="stop-color:#6E1168"/>
				</linearGradient>
				<path class="st50" d="M557.3,563.3c0.1,0.1,0.2,0.1,0.3,0.2c0.8,0.5,1.7,1.1,2.5,1.7c0.1,0.1,0.2,0.2,0.4,0.3
					c0.7,0.5,1.3,1.1,2,1.8c0.1,0.1,0.2,0.2,0.3,0.3c0.7,0.7,1.4,1.4,2.1,2.2c0,0,0,0,0,0c0.6,0.7,1.3,1.5,1.9,2.3
					c0.1,0.2,0.3,0.4,0.4,0.5c0.6,0.8,1.3,1.7,2,2.7c0.1,0.2,0.3,0.4,0.4,0.6c0.5,0.8,1.1,1.6,1.7,2.5c0.2,0.3,0.3,0.5,0.5,0.8
					c0.7,1.1,1.4,2.2,2.1,3.3c0.5,0.8,1,1.7,1.6,2.6v0c0,0,0,0,0,0l-0.9-11c-0.2-0.3-0.4-0.6-0.6-0.9c-0.1-0.1-0.2-0.3-0.3-0.4
					c-0.6-0.8-1.2-1.7-1.9-2.5c-0.1-0.1-0.1-0.2-0.2-0.3c0,0,0,0-0.1-0.1c-0.8-1-1.8-2-2.8-3c-0.1-0.1-0.2-0.2-0.3-0.3
					c-0.2-0.2-0.4-0.4-0.7-0.6c-0.3-0.3-0.6-0.5-0.9-0.8c-0.5-0.4-1-0.8-1.5-1.1c-0.3-0.2-0.6-0.5-1-0.7c-0.1-0.1-0.3-0.2-0.4-0.3
					c-0.3-0.2-0.7-0.4-1-0.6c-0.5-0.3-1.1-0.7-1.6-1c-0.5-0.3-1-0.6-1.5-0.8c-0.6-0.3-1.2-0.6-1.8-0.9c-0.2-0.1-0.4-0.2-0.5-0.3
					c-0.8-0.4-1.6-0.7-2.5-1.1c-1.9-0.8-3.8-1.4-5.8-2c-0.1,0-0.2-0.1-0.4-0.1c-1.5-0.4-3-0.7-4.5-1c-0.4-0.1-0.7-0.1-1.1-0.2
					c-1.4-0.2-2.8-0.4-4.2-0.6c-0.5-0.1-1-0.1-1.5-0.1c-1.8-0.1-3.5-0.2-5.3-0.2h-20.2l-8.7,1.9l-5.7,2.6l-7.6,11.9l1.2,7l11.1-17.3
					l3.9-1.7l7.3-1.5l18.6,0.1c1.3,0.1,2.6,0.3,4,0.4c0.5,0,0.9,0.1,1.4,0.2c1.2,0.1,2.5,0.3,3.8,0.5c0.4,0.1,0.8,0.1,1.1,0.2
					c1.5,0.2,3,0.5,4.5,0.9c1.9,0.4,3.7,1,5.3,1.6c0.7,0.3,1.3,0.6,1.9,0.8c0.1,0.1,0.3,0.1,0.4,0.2
					C555.5,562.3,556.4,562.8,557.3,563.3z"/>
				<linearGradient id="SVGID_48_" gradientUnits="userSpaceOnUse" x1="614.2108" y1="585.1477" x2="614.2108" y2="552.8192">
					<stop  offset="2.849976e-02" style="stop-color:#470B43"/>
					<stop  offset="1" style="stop-color:#6E1168"/>
				</linearGradient>
				<path class="st51" d="M636.9,561.5c7.8,4.7,12.1,13.1,16.3,20.8l0.6-9.7c-15.7-26.8-65-26.5-79.2,1.6v0l0,0l0.9,11
					c3.7-7.9,7.2-16.2,14-21.8C603,553.9,622.7,553.8,636.9,561.5z"/>
				<linearGradient id="SVGID_49_" gradientUnits="userSpaceOnUse" x1="361.0692" y1="590.1508" x2="360.2161" y2="558.4147">
					<stop  offset="2.849976e-02" style="stop-color:#470B43"/>
					<stop  offset="1" style="stop-color:#6E1168"/>
				</linearGradient>
				<polygon class="st52" points="381.7,571.8 379.7,565.8 359.7,552 351.3,553.7 341.5,558 339.3,563.2 341.6,571 346.7,559.4 
					354.1,556.2 358.2,555.4 373.9,566.3 381.8,590.1 				"/>
				<linearGradient id="SVGID_50_" gradientUnits="userSpaceOnUse" x1="400.1874" y1="592.7181" x2="403.5999" y2="552.7921">
					<stop  offset="2.849976e-02" style="stop-color:#470B43"/>
					<stop  offset="1" style="stop-color:#6E1168"/>
				</linearGradient>
				<polygon class="st53" points="421.5,558.2 412.3,553.9 403,552 383.4,566.1 381.7,571.8 381.8,590.1 389.3,566.5 404.6,555.4 
					410.9,556.8 416.2,559.5 422.1,572.7 423.1,562 				"/>
				<g>
					<polygon class="st3" points="719.8,584 725.2,592.4 718.6,596.5 707.7,591.5 					"/>
				</g>
				<linearGradient id="SVGID_51_" gradientUnits="userSpaceOnUse" x1="100.4437" y1="603.6216" x2="103.0031" y2="551.7519">
					<stop  offset="2.849976e-02" style="stop-color:#470B43"/>
					<stop  offset="1" style="stop-color:#6E1168"/>
				</linearGradient>
				<polygon class="st54" points="69.8,566.6 85,557.1 126.2,557.1 145,575.7 143.9,568.7 129,554.1 83,554.1 64.5,565.7 
					60.2,574.7 58.2,583.8 79.7,604 88,598.8 65.7,577.8 66.9,572.3 				"/>
				<g>
					<polygon class="st3" points="707.7,591.5 718.6,596.5 731.4,609 723.9,607.5 					"/>
				</g>
				<g>
					<polygon class="st3" points="723.9,607.5 731.4,609 729.5,618.2 722.7,613.1 					"/>
				</g>
				<g>
					<polygon class="st3" points="722.7,613.1 729.5,618.2 725.2,627.2 717.1,624.6 					"/>
				</g>
				<g>
					<polygon class="st3" points="66.5,641.7 59.8,644 79.7,604 88,598.8 					"/>
				</g>
				<g>
					<polygon class="st3" points="717.1,624.6 725.2,627.2 740.3,643.8 732.9,642 					"/>
				</g>
				<g>
					<polygon class="st3" points="341.8,590.8 348.6,635.5 348.6,650.7 341.8,645.1 					"/>
				</g>
				<g>
					<polygon class="st3" points="420.3,646.8 413.5,653.3 413.5,637.6 420.3,592.4 					"/>
				</g>
				<g>
					<polygon class="st3" points="65.2,647.5 57.7,653.3 59.8,644 66.5,641.7 					"/>
				</g>
				<g>
					<polygon class="st3" points="732.9,642 740.3,643.8 738.3,653 731.6,647.8 					"/>
				</g>
				<g>
					<polygon class="st3" points="420.3,592.4 413.5,637.6 406.7,657.6 400.1,651.7 					"/>
				</g>
				<g>
					<polygon class="st3" points="143,644.4 144.9,659.5 143.7,661.9 138.4,653.5 					"/>
				</g>
				<g>
					<polygon class="st3" points="731.6,647.8 738.3,653 734,661.9 728.7,653.6 					"/>
				</g>
				<g>
					<polygon class="st3" points="363.4,653.9 357.6,661.9 348.6,635.5 341.8,590.8 					"/>
				</g>
				<g>
					<polygon class="st3" points="538.3,658.1 533.7,667 530.2,662.1 530,646.2 					"/>
				</g>
				<g>
					<polygon class="st3" points="530,646.2 530.2,662.1 525.8,668.9 521.1,660 					"/>
				</g>
				<g>
					<polygon class="st3" points="299.3,644.5 300.5,658.8 294,668.9 289.3,660 					"/>
				</g>
				<g>
					<polygon class="st3" points="341.8,645.1 348.6,650.7 336.9,668.9 332.2,660 					"/>
				</g>
				<g>
					<polygon class="st3" points="256.3,644.4 257.5,658.7 251,668.9 246.2,660 					"/>
				</g>
				<g>
					<polygon class="st3" points="570.2,635.5 572.9,655.5 569.1,669.4 563.4,660.9 					"/>
				</g>
				<g>
					<polygon class="st3" points="400.1,651.7 406.7,657.6 395.7,669.6 390.6,661.2 					"/>
				</g>
				<g>
					<polygon class="st3" points="161.9,663.1 159.1,673.5 144.9,659.5 143,644.4 					"/>
				</g>
				<g>
					<polygon class="st3" points="81,663.1 78.2,673.5 57.7,653.3 65.2,647.5 					"/>
				</g>
				<g>
					<polygon class="st3" points="436.8,663.1 434,673.5 413.5,653.3 420.3,646.8 					"/>
				</g>
				<g>
					<polygon class="st3" points="674.4,663.1 671.6,673.5 655.1,657.3 654.4,643.4 					"/>
				</g>
				<g>
					<polygon class="st3" points="476,663.1 477.9,673.5 434,673.5 436.8,663.1 					"/>
				</g>
				<g>
					<polygon class="st3" points="495.1,651.1 494.2,663.4 477.9,673.5 476,663.1 					"/>
				</g>
				<g>
					<polygon class="st3" points="201,663.1 203,673.5 159.1,673.5 161.9,663.1 					"/>
				</g>
				<g>
					<polygon class="st3" points="220.2,651.1 219.3,663.4 203,673.5 201,663.1 					"/>
				</g>
				<g>
					<polygon class="st3" points="713.5,663.1 715.5,673.5 671.6,673.5 674.4,663.1 					"/>
				</g>
				<g>
					<polygon class="st3" points="138.4,653.5 143.7,661.9 125.2,673.5 123.2,663.1 					"/>
				</g>
				<g>
					<polygon class="st3" points="728.7,653.6 734,661.9 715.5,673.5 713.5,663.1 					"/>
				</g>
				<g>
					<polygon class="st3" points="123.2,663.1 125.2,673.5 78.2,673.5 81,663.1 					"/>
				</g>
				<g>
					<polygon class="st3" points="563.4,660.9 569.1,669.4 559.7,673.7 556.8,663.8 					"/>
				</g>
				<g>
					<polygon class="st3" points="289.3,660 294,668.9 284,673.7 281,663.8 					"/>
				</g>
				<g>
					<polygon class="st3" points="521.1,660 525.8,668.9 515.7,673.7 512.8,663.8 					"/>
				</g>
				<g>
					<polygon class="st3" points="332.2,660 336.9,668.9 326.8,673.7 323.8,663.8 					"/>
				</g>
				<g>
					<polygon class="st3" points="246.2,660 251,668.9 240.9,673.7 237.9,663.8 					"/>
				</g>
				<g>
					<polygon class="st3" points="390.6,661.2 395.7,669.6 386,673.9 383.2,664 					"/>
				</g>
				<g class="st4">
					<defs>
						<path id="SVGID_52_" class="st4" d="M654.4,643.4l0.7,13.9c-3.7,4.8-9.3,9.4-17.8,12.9c-7,2.9-14.7,4.4-22.7,4.4
							c-8.1,0-15.7-1.5-22.7-4.4c-9.6-3.9-15.5-9.3-19-14.7l-2.7-20c11.2,17,16.1,21.5,24.3,24.8c6.2,2.6,14,3.2,20.1,3.8
							c6.1-0.6,14-1.3,20.1-3.8C642,657.2,646.7,653.4,654.4,643.4z"/>
					</defs>
					<use xlink:href="#SVGID_52_"  style="overflow:visible;fill:#290726;"/>
					<clipPath id="SVGID_53_">
						<use xlink:href="#SVGID_52_"  style="overflow:visible;"/>
					</clipPath>
					<g class="st55">
						<path class="st3" d="M654.4,643.4l0.7,13.9c-0.8,1.1-1.8,2.2-2.8,3.2l-2.7-11.2C651.1,647.6,652.7,645.7,654.4,643.4"/>
						<path class="st3" d="M649.6,649.3l2.7,11.2c-0.7,0.7-1.4,1.4-2.2,2.1l-3.4-10.2C647.6,651.5,648.6,650.5,649.6,649.3"/>
						<path class="st3" d="M646.6,652.4l3.4,10.2c-0.6,0.5-1.2,1-1.8,1.5l-3.6-9.8C645.3,653.7,646,653.1,646.6,652.4"/>
						<path class="st3" d="M644.6,654.3l3.6,9.8c-0.5,0.4-1.1,0.8-1.7,1.2l-3.6-9.7C643.5,655.2,644,654.8,644.6,654.3"/>
						<path class="st3" d="M642.9,655.7l3.6,9.7c-0.5,0.4-1.1,0.7-1.6,1.1l-3.5-9.6C641.9,656.4,642.4,656.1,642.9,655.7"/>
						<path class="st3" d="M641.4,656.8l3.5,9.6c-0.5,0.3-1.1,0.7-1.7,1l-3.4-9.6C640.3,657.4,640.8,657.1,641.4,656.8"/>
						<path class="st3" d="M639.8,657.8l3.4,9.6c-0.6,0.3-1.2,0.7-1.8,1l-3.2-9.7C638.8,658.4,639.3,658.1,639.8,657.8"/>
						<path class="st3" d="M638.2,658.6l3.2,9.7c-0.7,0.3-1.3,0.7-2,1l-2.9-9.8C637.1,659.2,637.7,659,638.2,658.6"/>
						<path class="st3" d="M636.5,659.5l2.9,9.8c-0.7,0.3-1.3,0.6-2,0.9c-0.1,0-0.1,0.1-0.2,0.1l-2.6-9.9c0.1,0,0.1-0.1,0.2-0.1
							C635.3,660,635.9,659.8,636.5,659.5"/>
						<path class="st3" d="M634.5,660.4l2.6,9.9c-0.6,0.3-1.2,0.5-1.9,0.7l-2.4-10C633.4,660.8,634,660.6,634.5,660.4"/>
						<path class="st3" d="M632.9,661l2.4,10c-0.8,0.3-1.5,0.5-2.3,0.8l-2.2-10.2C631.4,661.4,632.2,661.2,632.9,661"/>
						<path class="st3" d="M630.7,661.6l2.2,10.2c-1,0.3-2.1,0.6-3.1,0.9l-2-10.4C628.8,662.1,629.8,661.9,630.7,661.6"/>
						<path class="st3" d="M627.8,662.3l2,10.4c-1.6,0.4-3.2,0.7-4.8,1l-1.6-10.6C624.9,662.9,626.4,662.6,627.8,662.3"/>
						<path class="st3" d="M623.4,663.1l1.6,10.6c-2.4,0.4-4.8,0.7-7.2,0.8l-0.7-10.6C619.2,663.7,621.3,663.4,623.4,663.1"/>
						<path class="st3" d="M617.2,663.9l0.7,10.6c-1.1,0.1-2.1,0.1-3.2,0.1c-1.1,0-2.2,0-3.2-0.1l0.7-10.6c0.9,0.1,1.7,0.2,2.5,0.3
							C615.4,664,616.3,664,617.2,663.9"/>
						<path class="st3" d="M612.1,663.9l-0.7,10.6c-2.4-0.1-4.8-0.4-7.1-0.8l1.6-10.6C608,663.4,610.1,663.7,612.1,663.9"/>
						<path class="st3" d="M605.9,663.1l-1.6,10.6c-1.6-0.3-3.3-0.6-4.8-1l2-10.4C602.9,662.7,604.4,662.9,605.9,663.1"/>
						<path class="st3" d="M601.5,662.3l-2,10.4c-1-0.3-2.1-0.6-3.1-0.9l2.2-10.2C599.5,661.9,600.5,662.1,601.5,662.3"/>
						<path class="st3" d="M598.6,661.6l-2.2,10.2c-0.8-0.2-1.5-0.5-2.3-0.8l2.4-10.1C597.1,661.2,597.9,661.4,598.6,661.6"/>
						<path class="st3" d="M596.5,661l-2.4,10.1c-0.6-0.2-1.3-0.5-1.9-0.7l2.6-9.9C595.3,660.6,595.9,660.8,596.5,661"/>
						<path class="st3" d="M594.7,660.4l-2.6,9.9c-0.1,0-0.1-0.1-0.2-0.1c-0.8-0.3-1.5-0.6-2.3-1l2.9-9.8c0.6,0.3,1.3,0.6,2,0.8
							C594.6,660.3,594.7,660.3,594.7,660.4"/>
						<path class="st3" d="M592.6,659.4l-2.9,9.8c-0.6-0.3-1.2-0.6-1.8-0.9l3.2-9.7C591.5,658.9,592.1,659.2,592.6,659.4"/>
						<path class="st3" d="M591,658.7l-3.2,9.7c-0.5-0.3-1.1-0.6-1.6-0.8l3.4-9.7C590.1,658.1,590.5,658.4,591,658.7"/>
						<path class="st3" d="M589.6,657.8l-3.4,9.7c-0.5-0.3-1-0.6-1.5-0.9l3.5-9.7C588.7,657.3,589.1,657.6,589.6,657.8"/>
						<path class="st3" d="M588.2,657l-3.5,9.7c-0.5-0.3-1-0.6-1.5-0.9l3.6-9.8C587.3,656.3,587.8,656.7,588.2,657"/>
						<path class="st3" d="M586.8,656l-3.6,9.8c-0.5-0.3-1-0.7-1.5-1l3.5-10C585.8,655.1,586.3,655.6,586.8,656"/>
						<path class="st3" d="M585.3,654.7l-3.5,10c-0.6-0.4-1.1-0.8-1.6-1.2l3.4-10.4C584.2,653.6,584.8,654.2,585.3,654.7"/>
						<path class="st3" d="M583.6,653l-3.4,10.4c-0.7-0.5-1.3-1.1-1.9-1.7l2.9-11.4C582,651.4,582.8,652.2,583.6,653"/>
						<path class="st3" d="M581.1,650.4l-2.9,11.4c-1.1-1-2-2-2.9-3l1-14.4C578.1,646.7,579.7,648.7,581.1,650.4"/>
						<path class="st3" d="M576.4,644.4l-1,14.4c-0.9-1.1-1.7-2.2-2.5-3.3l-2.7-20C572.5,638.9,574.5,641.8,576.4,644.4"/>
					</g>
				</g>
				<g>
					<polygon class="st3" points="509.1,664.5 507,675.6 494.2,663.4 495.1,651.1 					"/>
				</g>
				<g>
					<polygon class="st3" points="512.8,663.8 515.7,673.7 507,675.6 509.1,664.5 					"/>
				</g>
				<g>
					<polygon class="st3" points="323.8,663.8 326.8,673.7 318,675.6 320.1,664.5 					"/>
				</g>
				<g>
					<polygon class="st3" points="320.1,664.5 318,675.6 300.5,658.8 299.3,644.5 					"/>
				</g>
				<g>
					<polygon class="st3" points="277.3,664.5 275.2,675.6 257.5,658.7 256.3,644.4 					"/>
				</g>
				<g>
					<polygon class="st3" points="281,663.8 284,673.7 275.2,675.6 277.3,664.5 					"/>
				</g>
				<g>
					<polygon class="st3" points="237.9,663.8 240.9,673.7 232.1,675.6 234.2,664.5 					"/>
				</g>
				<g>
					<polygon class="st3" points="234.2,664.5 232.1,675.6 219.3,663.4 220.2,651.1 					"/>
				</g>
				<g>
					<polygon class="st3" points="379.1,664.7 377.6,675.6 357.6,661.9 363.4,653.9 					"/>
				</g>
				<g>
					<polygon class="st3" points="383.2,664 386,673.9 377.6,675.6 379.1,664.7 					"/>
				</g>
				<g>
					<polygon class="st3" points="556.8,663.8 559.7,673.7 551,675.6 551.9,664.8 					"/>
				</g>
				<g>
					<linearGradient id="SVGID_54_" gradientUnits="userSpaceOnUse" x1="399.0224" y1="664.7891" x2="399.0224" y2="555.4335">
						<stop  offset="0" style="stop-color:#6E1168"/>
						<stop  offset="1" style="stop-color:#470B43"/>
					</linearGradient>
					<path class="st56" d="M404.6,555.4l6.3,1.4l5.3,2.7l5.8,13.2l7.9-12.5l3.8-1.7l7.3-1.5l29.4,0.1l20.8,20.4l11.1-17.3l3.9-1.7
						l7.3-1.5l18.6,0.1c6.2,0.6,14,1.3,20.1,3.8c8.7,3.6,13.6,8.4,23.2,24.3c7.5-16.9,12.1-22.4,22.1-26.2c5.1-1.9,11-2.9,17-2.9
						c6,0,12,1,17.1,3c9.1,3.5,13.7,8.5,21.6,23.4l14.2-22.2l3.9-1.7l7.3-1.5l29.4,0.1l15.9,15.6l-1.2,5.6l-2.9,5.7l-12.1,7.5
						l16.2,16l-1.2,5.6l-5.7,11.5l15.8,17.4l-1.3,5.8l-2.9,5.7l-15.2,9.5h-39.1l-20-19.7c-7.7,10-12.4,13.8-19.7,16.9
						c-6.1,2.5-14,3.2-20.1,3.8c-6.1-0.6-13.9-1.3-20.1-3.8c-8.3-3.3-13.1-7.8-24.3-24.8l-6.9,25.4l-6.5,2.9l-5,1l-13.6-6.7
						l-8.3-11.8l-8.9,13.7l-8.3,3.9l-3.7,0.7l-13.9-13.4l-19.2,12h-39.1l-16.5-16.3v-54.4l-20.2,59.2l-9.6,9.5l-7.3,2.7l-4.1,0.7
						l-15.7-10.7l-21.6-63.1v54.2l-9.6,14.9l-8.3,3.8l-3.7,0.7l-20.8-20l-10,15.5l-8.3,3.8l-3.7,0.7l-21-20.1l-10,15.6l-8.3,3.8
						l-3.7,0.7l-14-13.4l-19.2,12h-39.1L143,644.4l-4.6,9.1l-15.2,9.6H81l-15.8-15.6l1.3-5.8L88,598.8l-22.4-21l1.2-5.5l2.9-5.8
						l15.2-9.5h41.2l18.9,18.6l10-15.5l3.9-1.7l7.3-1.5l29.4,0.1l22.2,21.7c7.5-11.2,12.4-15.6,20.6-19c6.1-2.5,13-3.8,20-3.8
						c7,0,13.9,1.3,20.1,3.8c8.2,3.3,13.1,7.8,21.8,20.8l13.2-20.5l8.3-3.8l3.7-0.7l16.1,15.4l5.2-11.7l7.4-3.2l4.1-0.7l15.7,10.9
						l7.9,23.8l7.5-23.6L404.6,555.4z"/>
				</g>
				<g>
					<polygon class="st3" points="551.9,664.8 551,675.6 533.7,667 538.3,658.1 					"/>
				</g>
			</g>
		</g>
		<g>
			<g>
				<linearGradient id="SVGID_55_" gradientUnits="userSpaceOnUse" x1="381.32" y1="652.85" x2="381.32" y2="517.6595">
					<stop  offset="0" style="stop-color:#B86A2D"/>
					<stop  offset="0.5555" style="stop-color:#7A351E"/>
				</linearGradient>
				<polygon class="st57" points="421.4,517.7 409.4,531.5 382.5,612.3 354.4,528.6 341.2,517.7 341.2,534 381.5,652.8 421.4,534 
									"/>
				<g>
					<linearGradient id="SVGID_56_" gradientUnits="userSpaceOnUse" x1="95.6458" y1="581.2092" x2="95.6458" y2="569.3531">
						<stop  offset="0" style="stop-color:#B86A2D"/>
						<stop  offset="0.5555" style="stop-color:#7A351E"/>
					</linearGradient>
					<rect x="78.7" y="569.4" class="st58" width="33.9" height="11.9"/>
				</g>
				<g>
					<linearGradient id="SVGID_57_" gradientUnits="userSpaceOnUse" x1="111.6834" y1="641.2401" x2="111.6834" y2="560.3364">
						<stop  offset="0" style="stop-color:#B86A2D"/>
						<stop  offset="0.5555" style="stop-color:#7A351E"/>
					</linearGradient>
					<polygon class="st59" points="129,560.3 129,572.2 94.4,641.2 94.4,629.4 					"/>
				</g>
				<g>
					<linearGradient id="SVGID_58_" gradientUnits="userSpaceOnUse" x1="101.6674" y1="650.8019" x2="101.6674" y2="638.9458">
						<stop  offset="0" style="stop-color:#B86A2D"/>
						<stop  offset="0.5555" style="stop-color:#7A351E"/>
					</linearGradient>
					<rect x="78.2" y="638.9" class="st60" width="47" height="11.9"/>
				</g>
				<g>
					<linearGradient id="SVGID_59_" gradientUnits="userSpaceOnUse" x1="127.3223" y1="650.8019" x2="127.3223" y2="629.929">
						<stop  offset="0" style="stop-color:#B86A2D"/>
						<stop  offset="0.5555" style="stop-color:#7A351E"/>
					</linearGradient>
					<polygon class="st61" points="129.5,629.9 129.5,641.8 125.2,650.8 125.2,638.9 					"/>
				</g>
				<g>
					<linearGradient id="SVGID_60_" gradientUnits="userSpaceOnUse" x1="196.3295" y1="581.2092" x2="196.3295" y2="560.3364">
						<stop  offset="0" style="stop-color:#B86A2D"/>
						<stop  offset="0.5555" style="stop-color:#7A351E"/>
					</linearGradient>
					<polygon class="st62" points="198.5,560.3 198.5,572.2 194.2,581.2 194.2,569.4 					"/>
				</g>
				<g>
					<linearGradient id="SVGID_61_" gradientUnits="userSpaceOnUse" x1="181.9504" y1="581.2092" x2="181.9504" y2="569.3531">
						<stop  offset="0" style="stop-color:#B86A2D"/>
						<stop  offset="0.5555" style="stop-color:#7A351E"/>
					</linearGradient>
					<rect x="169.7" y="569.4" class="st63" width="24.5" height="11.9"/>
				</g>
				<g>
					<linearGradient id="SVGID_62_" gradientUnits="userSpaceOnUse" x1="196.3295" y1="616.0053" x2="196.3295" y2="595.1325">
						<stop  offset="0" style="stop-color:#B86A2D"/>
						<stop  offset="0.5555" style="stop-color:#7A351E"/>
					</linearGradient>
					<polygon class="st64" points="198.5,595.1 198.5,607 194.2,616 194.2,604.1 					"/>
				</g>
				<g>
					<linearGradient id="SVGID_63_" gradientUnits="userSpaceOnUse" x1="181.9504" y1="616.0053" x2="181.9504" y2="604.1493">
						<stop  offset="0" style="stop-color:#B86A2D"/>
						<stop  offset="0.5555" style="stop-color:#7A351E"/>
					</linearGradient>
					<rect x="169.7" y="604.1" class="st65" width="24.5" height="11.9"/>
				</g>
				<g>
					<linearGradient id="SVGID_64_" gradientUnits="userSpaceOnUse" x1="205.1783" y1="650.8019" x2="205.1783" y2="629.929">
						<stop  offset="0" style="stop-color:#B86A2D"/>
						<stop  offset="0.5555" style="stop-color:#7A351E"/>
					</linearGradient>
					<polygon class="st66" points="207.3,629.9 207.3,641.8 203,650.8 203,638.9 					"/>
				</g>
				<g>
					<linearGradient id="SVGID_65_" gradientUnits="userSpaceOnUse" x1="181.0595" y1="650.8019" x2="181.0595" y2="638.9458">
						<stop  offset="0" style="stop-color:#B86A2D"/>
						<stop  offset="0.5555" style="stop-color:#7A351E"/>
					</linearGradient>
					<rect x="159.1" y="638.9" class="st67" width="43.9" height="11.9"/>
				</g>
				<g>
					<defs>
						<path id="SVGID_66_" d="M274.6,576.1v11.9c0-2.4-2.2-4.4-6.4-6.1c-3-1.1-6.3-1.8-9.8-1.8c-3.5,0-6.8,0.6-9.8,1.8
							c-4.3,1.7-6.5,3.7-6.5,6.1v-11.9c0-2.4,2.2-4.4,6.5-6.1c3-1.1,6.3-1.8,9.8-1.8c3.6,0,6.8,0.6,9.8,1.8
							C272.5,571.7,274.6,573.7,274.6,576.1z"/>
					</defs>
					<linearGradient id="SVGID_67_" gradientUnits="userSpaceOnUse" x1="258.3925" y1="587.9266" x2="258.3925" y2="568.2032">
						<stop  offset="0" style="stop-color:#B86A2D"/>
						<stop  offset="0.5555" style="stop-color:#7A351E"/>
					</linearGradient>
					<use xlink:href="#SVGID_66_"  style="overflow:visible;fill:url(#SVGID_67_);"/>
					<clipPath id="SVGID_68_">
						<use xlink:href="#SVGID_66_"  style="overflow:visible;"/>
					</clipPath>
					<g class="st68">
						<linearGradient id="SVGID_69_" gradientUnits="userSpaceOnUse" x1="258.3925" y1="587.9266" x2="258.3925" y2="568.2032">
							<stop  offset="0" style="stop-color:#B86A2D"/>
							<stop  offset="0.5555" style="stop-color:#7A351E"/>
						</linearGradient>
						<path class="st69" d="M274.6,576.1v11.9c0-2.4-2.2-4.4-6.4-6.1c-3-1.1-6.3-1.8-9.8-1.8c-3.5,0-6.8,0.6-9.8,1.8
							c-4.3,1.7-6.5,3.7-6.5,6.1v-11.9c0-2.4,2.2-4.4,6.5-6.1c3-1.1,6.3-1.8,9.8-1.8c3.6,0,6.8,0.6,9.8,1.8
							C272.5,571.7,274.6,573.7,274.6,576.1"/>
					</g>
				</g>
				<g>
					<linearGradient id="SVGID_70_" gradientUnits="userSpaceOnUse" x1="274.8914" y1="652.9199" x2="274.8914" y2="641.0638">
						<stop  offset="0" style="stop-color:#B86A2D"/>
						<stop  offset="0.5555" style="stop-color:#7A351E"/>
					</linearGradient>
					<rect x="274.6" y="641.1" class="st70" width="0.6" height="11.9"/>
				</g>
				<g>
					<linearGradient id="SVGID_71_" gradientUnits="userSpaceOnUse" x1="280.2372" y1="652.9199" x2="280.2372" y2="636.3435">
						<stop  offset="0" style="stop-color:#B86A2D"/>
						<stop  offset="0.5555" style="stop-color:#7A351E"/>
					</linearGradient>
					<polygon class="st71" points="285.3,636.3 285.3,648.2 275.2,652.9 275.2,641.1 					"/>
				</g>
				<g>
					<linearGradient id="SVGID_72_" gradientUnits="userSpaceOnUse" x1="237.1311" y1="652.9199" x2="237.1311" y2="636.3435">
						<stop  offset="0" style="stop-color:#B86A2D"/>
						<stop  offset="0.5555" style="stop-color:#7A351E"/>
					</linearGradient>
					<polygon class="st72" points="242.2,636.3 242.2,648.2 232.1,652.9 232.1,641.1 					"/>
				</g>
				<g>
					<linearGradient id="SVGID_73_" gradientUnits="userSpaceOnUse" x1="231.8158" y1="652.9199" x2="231.8158" y2="641.0638">
						<stop  offset="0" style="stop-color:#B86A2D"/>
						<stop  offset="0.5555" style="stop-color:#7A351E"/>
					</linearGradient>
					<rect x="231.5" y="641.1" class="st73" width="0.6" height="11.9"/>
				</g>
				<g>
					<linearGradient id="SVGID_74_" gradientUnits="userSpaceOnUse" x1="323.0366" y1="652.9199" x2="323.0366" y2="636.3435">
						<stop  offset="0" style="stop-color:#B86A2D"/>
						<stop  offset="0.5555" style="stop-color:#7A351E"/>
					</linearGradient>
					<polygon class="st74" points="328.1,636.3 328.1,648.2 318,652.9 318,641.1 					"/>
				</g>
				<g>
					<linearGradient id="SVGID_75_" gradientUnits="userSpaceOnUse" x1="317.7212" y1="652.9199" x2="317.7212" y2="641.0638">
						<stop  offset="0" style="stop-color:#B86A2D"/>
						<stop  offset="0.5555" style="stop-color:#7A351E"/>
					</linearGradient>
					<rect x="317.4" y="641.1" class="st75" width="0.6" height="11.9"/>
				</g>
				<g>
					<linearGradient id="SVGID_76_" gradientUnits="userSpaceOnUse" x1="471.1891" y1="581.2092" x2="471.1891" y2="560.3364">
						<stop  offset="0" style="stop-color:#B86A2D"/>
						<stop  offset="0.5555" style="stop-color:#7A351E"/>
					</linearGradient>
					<polygon class="st76" points="473.3,560.3 473.3,572.2 469,581.2 469,569.4 					"/>
				</g>
				<g>
					<linearGradient id="SVGID_77_" gradientUnits="userSpaceOnUse" x1="456.8408" y1="581.2092" x2="456.8408" y2="569.3531">
						<stop  offset="0" style="stop-color:#B86A2D"/>
						<stop  offset="0.5555" style="stop-color:#7A351E"/>
					</linearGradient>
					<rect x="444.6" y="569.4" class="st77" width="24.4" height="11.9"/>
				</g>
				<g>
					<linearGradient id="SVGID_78_" gradientUnits="userSpaceOnUse" x1="471.1891" y1="616.0053" x2="471.1891" y2="595.1325">
						<stop  offset="0" style="stop-color:#B86A2D"/>
						<stop  offset="0.5555" style="stop-color:#7A351E"/>
					</linearGradient>
					<polygon class="st78" points="473.3,595.1 473.3,607 469,616 469,604.1 					"/>
				</g>
				<g>
					<linearGradient id="SVGID_79_" gradientUnits="userSpaceOnUse" x1="456.8408" y1="616.0053" x2="456.8408" y2="604.1493">
						<stop  offset="0" style="stop-color:#B86A2D"/>
						<stop  offset="0.5555" style="stop-color:#7A351E"/>
					</linearGradient>
					<rect x="444.6" y="604.1" class="st79" width="24.4" height="11.9"/>
				</g>
				<g>
					<linearGradient id="SVGID_80_" gradientUnits="userSpaceOnUse" x1="480.0995" y1="650.8019" x2="480.0995" y2="629.929">
						<stop  offset="0" style="stop-color:#B86A2D"/>
						<stop  offset="0.5555" style="stop-color:#7A351E"/>
					</linearGradient>
					<polygon class="st80" points="482.3,629.9 482.3,641.8 477.9,650.8 477.9,638.9 					"/>
				</g>
				<g>
					<linearGradient id="SVGID_81_" gradientUnits="userSpaceOnUse" x1="455.9807" y1="650.8019" x2="455.9807" y2="638.9458">
						<stop  offset="0" style="stop-color:#B86A2D"/>
						<stop  offset="0.5555" style="stop-color:#7A351E"/>
					</linearGradient>
					<rect x="434" y="638.9" class="st81" width="43.9" height="11.9"/>
				</g>
				<g>
					<linearGradient id="SVGID_82_" gradientUnits="userSpaceOnUse" x1="524.649" y1="581.1489" x2="524.649" y2="569.2928">
						<stop  offset="0" style="stop-color:#B86A2D"/>
						<stop  offset="0.5555" style="stop-color:#7A351E"/>
					</linearGradient>
					<rect x="517.1" y="569.3" class="st82" width="15.1" height="11.9"/>
				</g>
				<g>
					<defs>
						<path id="SVGID_83_" d="M548.5,577.1l0,11.9c0-2.4-2.2-4.5-6.5-6.1c-3-1.1-6.3-1.7-9.8-1.7v-11.9c3.6,0,6.8,0.5,9.8,1.7
							C546.3,572.6,548.5,574.7,548.5,577.1z"/>
					</defs>
					<linearGradient id="SVGID_84_" gradientUnits="userSpaceOnUse" x1="540.3491" y1="588.9553" x2="540.3491" y2="569.2928">
						<stop  offset="0" style="stop-color:#B86A2D"/>
						<stop  offset="0.5555" style="stop-color:#7A351E"/>
					</linearGradient>
					<use xlink:href="#SVGID_83_"  style="overflow:visible;fill:url(#SVGID_84_);"/>
					<clipPath id="SVGID_85_">
						<use xlink:href="#SVGID_83_"  style="overflow:visible;"/>
					</clipPath>
					<g class="st83">
						<linearGradient id="SVGID_86_" gradientUnits="userSpaceOnUse" x1="540.3491" y1="588.9553" x2="540.3491" y2="569.2928">
							<stop  offset="0" style="stop-color:#B86A2D"/>
							<stop  offset="0.5555" style="stop-color:#7A351E"/>
						</linearGradient>
						<path class="st84" d="M548.5,577.1V589c0-2.4-2.2-4.5-6.5-6.1c-3-1.1-6.3-1.7-9.8-1.7v-11.9c3.6,0,6.8,0.5,9.8,1.7
							C546.3,572.6,548.5,574.7,548.5,577.1"/>
					</g>
				</g>
				<g>
					<defs>
						<path id="SVGID_87_" d="M559.1,595v11.9c0,6.4-4.1,11.3-12.1,14.5v-11.9C555.1,606.2,559.1,601.4,559.1,595z"/>
					</defs>
					<linearGradient id="SVGID_88_" gradientUnits="userSpaceOnUse" x1="553.0693" y1="621.3305" x2="553.0693" y2="594.951">
						<stop  offset="0" style="stop-color:#B86A2D"/>
						<stop  offset="0.5555" style="stop-color:#7A351E"/>
					</linearGradient>
					<use xlink:href="#SVGID_87_"  style="overflow:visible;fill:url(#SVGID_88_);"/>
					<clipPath id="SVGID_89_">
						<use xlink:href="#SVGID_87_"  style="overflow:visible;"/>
					</clipPath>
					<g class="st85">
						<linearGradient id="SVGID_90_" gradientUnits="userSpaceOnUse" x1="553.0693" y1="621.3305" x2="553.0693" y2="594.951">
							<stop  offset="0" style="stop-color:#B86A2D"/>
							<stop  offset="0.5555" style="stop-color:#7A351E"/>
						</linearGradient>
						<path class="st86" d="M559.1,595v11.9c0,6.4-4.1,11.3-12.1,14.5v-11.9C555.1,606.2,559.1,601.4,559.1,595"/>
					</g>
				</g>
				<g>
					<defs>
						<path id="SVGID_91_" d="M547,609.5v11.9c-1.6,0.6-3.2,1.1-4.9,1.6l0-11.9C543.8,610.6,545.4,610.1,547,609.5z"/>
					</defs>
					<linearGradient id="SVGID_92_" gradientUnits="userSpaceOnUse" x1="544.5894" y1="622.904" x2="544.5894" y2="609.4744">
						<stop  offset="0" style="stop-color:#B86A2D"/>
						<stop  offset="0.5555" style="stop-color:#7A351E"/>
					</linearGradient>
					<use xlink:href="#SVGID_91_"  style="overflow:visible;fill:url(#SVGID_92_);"/>
					<clipPath id="SVGID_93_">
						<use xlink:href="#SVGID_91_"  style="overflow:visible;"/>
					</clipPath>
					<g class="st87">
						<linearGradient id="SVGID_94_" gradientUnits="userSpaceOnUse" x1="544.5894" y1="622.904" x2="544.5894" y2="609.4744">
							<stop  offset="0" style="stop-color:#B86A2D"/>
							<stop  offset="0.5555" style="stop-color:#7A351E"/>
						</linearGradient>
						<path class="st88" d="M547,609.5v11.9c-1.6,0.6-3.2,1.1-4.9,1.6V611C543.8,610.6,545.4,610.1,547,609.5"/>
					</g>
				</g>
				<g>
					<linearGradient id="SVGID_95_" gradientUnits="userSpaceOnUse" x1="523.5431" y1="624.054" x2="523.5431" y2="612.1979">
						<stop  offset="0" style="stop-color:#B86A2D"/>
						<stop  offset="0.5555" style="stop-color:#7A351E"/>
					</linearGradient>
					<rect x="517.1" y="612.2" class="st89" width="12.9" height="11.9"/>
				</g>
				<g>
					<linearGradient id="SVGID_96_" gradientUnits="userSpaceOnUse" x1="506.7061" y1="652.9197" x2="506.7061" y2="641.0637">
						<stop  offset="0" style="stop-color:#B86A2D"/>
						<stop  offset="0.5555" style="stop-color:#7A351E"/>
					</linearGradient>
					<rect x="506.5" y="641.1" class="st90" width="0.5" height="11.9"/>
				</g>
				<g>
					<linearGradient id="SVGID_97_" gradientUnits="userSpaceOnUse" x1="555.6809" y1="652.9197" x2="555.6809" y2="636.7067">
						<stop  offset="0" style="stop-color:#B86A2D"/>
						<stop  offset="0.5555" style="stop-color:#7A351E"/>
					</linearGradient>
					<polygon class="st91" points="560.4,636.7 560.4,648.6 551,652.9 551,641.1 					"/>
				</g>
				<g>
					<linearGradient id="SVGID_98_" gradientUnits="userSpaceOnUse" x1="540.2267" y1="652.9197" x2="540.2267" y2="612.1979">
						<stop  offset="0" style="stop-color:#B86A2D"/>
						<stop  offset="0.5555" style="stop-color:#7A351E"/>
					</linearGradient>
					<polygon class="st92" points="550.5,641.1 550.5,652.9 530,624.1 530,612.2 					"/>
				</g>
				<g>
					<linearGradient id="SVGID_99_" gradientUnits="userSpaceOnUse" x1="512.0214" y1="652.9197" x2="512.0214" y2="636.3434">
						<stop  offset="0" style="stop-color:#B86A2D"/>
						<stop  offset="0.5555" style="stop-color:#7A351E"/>
					</linearGradient>
					<polygon class="st93" points="517.1,636.3 517.1,648.2 507,652.9 507,641.1 					"/>
				</g>
				<g>
					<linearGradient id="SVGID_100_" gradientUnits="userSpaceOnUse" x1="550.7343" y1="652.9197" x2="550.7343" y2="641.0637">
						<stop  offset="0" style="stop-color:#B86A2D"/>
						<stop  offset="0.5555" style="stop-color:#7A351E"/>
					</linearGradient>
					<rect x="550.5" y="641.1" class="st94" width="0.6" height="11.9"/>
				</g>
				<g>
					<defs>
						<path id="SVGID_101_" d="M622.7,569.5v11.9c-2.2-0.9-4.9-1.3-8.1-1.3c-3.2,0-5.9,0.4-8.1,1.3v-11.9c2.2-0.9,4.9-1.3,8.1-1.3
							C617.8,568.2,620.5,568.6,622.7,569.5z"/>
					</defs>
					<linearGradient id="SVGID_102_" gradientUnits="userSpaceOnUse" x1="614.6105" y1="581.3911" x2="614.6105" y2="568.2032">
						<stop  offset="0" style="stop-color:#B86A2D"/>
						<stop  offset="0.5555" style="stop-color:#7A351E"/>
					</linearGradient>
					<use xlink:href="#SVGID_101_"  style="overflow:visible;fill:url(#SVGID_102_);"/>
					<clipPath id="SVGID_103_">
						<use xlink:href="#SVGID_101_"  style="overflow:visible;"/>
					</clipPath>
					<g class="st95">
						<linearGradient id="SVGID_104_" gradientUnits="userSpaceOnUse" x1="614.6105" y1="581.3911" x2="614.6105" y2="568.2032">
							<stop  offset="0" style="stop-color:#B86A2D"/>
							<stop  offset="0.5555" style="stop-color:#7A351E"/>
						</linearGradient>
						<path class="st96" d="M622.7,569.5v11.9c-2.2-0.9-4.9-1.3-8.1-1.3c-3.2,0-5.9,0.4-8.1,1.3v-11.9c2.2-0.9,4.9-1.3,8.1-1.3
							C617.8,568.2,620.5,568.6,622.7,569.5"/>
					</g>
				</g>
				<g>
					<defs>
						<path id="SVGID_105_" d="M626.1,573.5v11.9c0-1.8-1.2-3.1-3.4-3.9v-11.9C624.9,570.4,626.1,571.7,626.1,573.5z"/>
					</defs>
					<linearGradient id="SVGID_106_" gradientUnits="userSpaceOnUse" x1="624.4115" y1="585.3243" x2="624.4115" y2="569.535">
						<stop  offset="0" style="stop-color:#B86A2D"/>
						<stop  offset="0.5555" style="stop-color:#7A351E"/>
					</linearGradient>
					<use xlink:href="#SVGID_105_"  style="overflow:visible;fill:url(#SVGID_106_);"/>
					<clipPath id="SVGID_107_">
						<use xlink:href="#SVGID_105_"  style="overflow:visible;"/>
					</clipPath>
					<g class="st97">
						<linearGradient id="SVGID_108_" gradientUnits="userSpaceOnUse" x1="624.4115" y1="585.3242" x2="624.4115" y2="569.535">
							<stop  offset="0" style="stop-color:#B86A2D"/>
							<stop  offset="0.5555" style="stop-color:#7A351E"/>
						</linearGradient>
						<path class="st98" d="M626.1,573.5v11.9c0-1.8-1.2-3.1-3.4-3.9v-11.9C624.9,570.4,626.1,571.7,626.1,573.5"/>
					</g>
				</g>
				<g>
					<defs>
						<path id="SVGID_109_" d="M606.5,569.5v11.9c-2.2,0.8-3.3,2.2-3.3,3.9v-11.9C603.2,571.7,604.3,570.4,606.5,569.5z"/>
					</defs>
					<linearGradient id="SVGID_110_" gradientUnits="userSpaceOnUse" x1="604.84" y1="585.3242" x2="604.84" y2="569.535">
						<stop  offset="0" style="stop-color:#B86A2D"/>
						<stop  offset="0.5555" style="stop-color:#7A351E"/>
					</linearGradient>
					<use xlink:href="#SVGID_109_"  style="overflow:visible;fill:url(#SVGID_110_);"/>
					<clipPath id="SVGID_111_">
						<use xlink:href="#SVGID_109_"  style="overflow:visible;"/>
					</clipPath>
					<g class="st99">
						<linearGradient id="SVGID_112_" gradientUnits="userSpaceOnUse" x1="604.84" y1="585.3242" x2="604.84" y2="569.535">
							<stop  offset="0" style="stop-color:#B86A2D"/>
							<stop  offset="0.5555" style="stop-color:#7A351E"/>
						</linearGradient>
						<path class="st100" d="M606.5,569.5v11.9c-2.2,0.8-3.3,2.2-3.3,3.9v-11.9C603.2,571.7,604.3,570.4,606.5,569.5"/>
					</g>
				</g>
				<g>
					<linearGradient id="SVGID_113_" gradientUnits="userSpaceOnUse" x1="626.3472" y1="594.8856" x2="626.3472" y2="583.0295">
						<stop  offset="0" style="stop-color:#B86A2D"/>
						<stop  offset="0.5555" style="stop-color:#7A351E"/>
					</linearGradient>
					<rect x="626.1" y="583" class="st101" width="0.5" height="11.9"/>
				</g>
				<g>
					<linearGradient id="SVGID_114_" gradientUnits="userSpaceOnUse" x1="631.6625" y1="594.8856" x2="631.6625" y2="578.3096">
						<stop  offset="0" style="stop-color:#B86A2D"/>
						<stop  offset="0.5555" style="stop-color:#7A351E"/>
					</linearGradient>
					<polygon class="st102" points="636.7,578.3 636.7,590.2 626.6,594.9 626.6,583 					"/>
				</g>
				<g>
					<defs>
						<path id="SVGID_115_" d="M630.8,607.5v11.9c0-2.5-2.2-4.5-6.4-6.2c-3-1.1-6.3-1.7-9.8-1.7c-4.5,0-8.5-0.7-12.1-2.1
							c-6.6-2.6-10-6.2-10-10.8v-11.9c0,4.6,3.3,8.2,10,10.8c3.6,1.3,7.6,2.1,12.1,2.1c3.6,0,6.8,0.5,9.8,1.7
							C628.7,602.9,630.8,605,630.8,607.5z"/>
					</defs>
					<linearGradient id="SVGID_116_" gradientUnits="userSpaceOnUse" x1="611.6914" y1="619.3337" x2="611.6914" y2="586.7814">
						<stop  offset="0" style="stop-color:#B86A2D"/>
						<stop  offset="0.5555" style="stop-color:#7A351E"/>
					</linearGradient>
					<use xlink:href="#SVGID_115_"  style="overflow:visible;fill:url(#SVGID_116_);"/>
					<clipPath id="SVGID_117_">
						<use xlink:href="#SVGID_115_"  style="overflow:visible;"/>
					</clipPath>
					<g class="st103">
						<linearGradient id="SVGID_118_" gradientUnits="userSpaceOnUse" x1="611.6914" y1="619.3336" x2="611.6914" y2="586.7814">
							<stop  offset="0" style="stop-color:#B86A2D"/>
							<stop  offset="0.5555" style="stop-color:#7A351E"/>
						</linearGradient>
						<path class="st104" d="M630.8,607.5v11.9c0-2.5-2.2-4.5-6.4-6.2c-3-1.1-6.3-1.7-9.8-1.7c-4.5,0-8.5-0.7-12.1-2.1
							c-6.6-2.6-10-6.2-10-10.8v-11.9c0,4.6,3.3,8.2,10,10.8c3.6,1.3,7.6,2.1,12.1,2.1c3.6,0,6.8,0.5,9.8,1.7
							C628.7,602.9,630.8,605,630.8,607.5"/>
					</g>
				</g>
				<g>
					<defs>
						<path id="SVGID_119_" d="M641.5,622.7v11.9c0,6.4-4.1,11.2-12.1,14.5c-4.5,1.9-9.4,2.8-14.8,2.8c-5.3,0-10.3-0.9-14.7-2.8
							c-8-3.3-12.1-8.1-12.1-14.5v-11.9c0,6.4,4.1,11.2,12.1,14.5c4.5,1.9,9.4,2.8,14.7,2.8c5.4,0,10.3-0.9,14.8-2.8
							C637.5,633.9,641.5,629.1,641.5,622.7z"/>
					</defs>
					<linearGradient id="SVGID_120_" gradientUnits="userSpaceOnUse" x1="614.6414" y1="651.8303" x2="614.6414" y2="622.7274">
						<stop  offset="0" style="stop-color:#B86A2D"/>
						<stop  offset="0.5555" style="stop-color:#7A351E"/>
					</linearGradient>
					<use xlink:href="#SVGID_119_"  style="overflow:visible;fill:url(#SVGID_120_);"/>
					<clipPath id="SVGID_121_">
						<use xlink:href="#SVGID_119_"  style="overflow:visible;"/>
					</clipPath>
					<g class="st105">
						<linearGradient id="SVGID_122_" gradientUnits="userSpaceOnUse" x1="614.6414" y1="651.8303" x2="614.6414" y2="622.7274">
							<stop  offset="0" style="stop-color:#B86A2D"/>
							<stop  offset="0.5555" style="stop-color:#7A351E"/>
						</linearGradient>
						<path class="st106" d="M641.5,622.7v11.9c0,6.4-4.1,11.2-12.1,14.5c-4.5,1.9-9.4,2.8-14.8,2.8c-5.3,0-10.3-0.9-14.7-2.8
							c-8-3.3-12.1-8.1-12.1-14.5v-11.9c0,6.4,4.1,11.2,12.1,14.5c4.5,1.9,9.4,2.8,14.7,2.8c5.4,0,10.3-0.9,14.8-2.8
							C637.5,633.9,641.5,629.1,641.5,622.7"/>
					</g>
				</g>
				<g>
					<linearGradient id="SVGID_123_" gradientUnits="userSpaceOnUse" x1="708.7492" y1="581.2092" x2="708.7492" y2="560.3364">
						<stop  offset="0" style="stop-color:#B86A2D"/>
						<stop  offset="0.5555" style="stop-color:#7A351E"/>
					</linearGradient>
					<polygon class="st107" points="710.9,560.3 710.9,572.2 706.6,581.2 706.6,569.4 					"/>
				</g>
				<g>
					<linearGradient id="SVGID_124_" gradientUnits="userSpaceOnUse" x1="694.4009" y1="581.2092" x2="694.4009" y2="569.3531">
						<stop  offset="0" style="stop-color:#B86A2D"/>
						<stop  offset="0.5555" style="stop-color:#7A351E"/>
					</linearGradient>
					<rect x="682.2" y="569.4" class="st108" width="24.4" height="11.9"/>
				</g>
				<g>
					<linearGradient id="SVGID_125_" gradientUnits="userSpaceOnUse" x1="708.7492" y1="616.0053" x2="708.7492" y2="595.1325">
						<stop  offset="0" style="stop-color:#B86A2D"/>
						<stop  offset="0.5555" style="stop-color:#7A351E"/>
					</linearGradient>
					<polygon class="st109" points="710.9,595.1 710.9,607 706.6,616 706.6,604.1 					"/>
				</g>
				<g>
					<linearGradient id="SVGID_126_" gradientUnits="userSpaceOnUse" x1="694.4009" y1="616.0053" x2="694.4009" y2="604.1493">
						<stop  offset="0" style="stop-color:#B86A2D"/>
						<stop  offset="0.5555" style="stop-color:#7A351E"/>
					</linearGradient>
					<rect x="682.2" y="604.1" class="st110" width="24.4" height="11.9"/>
				</g>
				<g>
					<linearGradient id="SVGID_127_" gradientUnits="userSpaceOnUse" x1="717.6597" y1="650.8019" x2="717.6597" y2="629.929">
						<stop  offset="0" style="stop-color:#B86A2D"/>
						<stop  offset="0.5555" style="stop-color:#7A351E"/>
					</linearGradient>
					<polygon class="st111" points="719.8,629.9 719.8,641.8 715.5,650.8 715.5,638.9 					"/>
				</g>
				<g>
					<linearGradient id="SVGID_128_" gradientUnits="userSpaceOnUse" x1="693.5413" y1="650.8019" x2="693.5413" y2="638.9458">
						<stop  offset="0" style="stop-color:#B86A2D"/>
						<stop  offset="0.5555" style="stop-color:#7A351E"/>
					</linearGradient>
					<rect x="671.6" y="638.9" class="st112" width="43.9" height="11.9"/>
				</g>
			</g>
			<g>
				<g>
					<linearGradient id="SVGID_129_" gradientUnits="userSpaceOnUse" x1="103.8182" y1="638.9458" x2="103.8182" y2="559.8525">
						<stop  offset="0" style="stop-color:#F49E3C"/>
						<stop  offset="0.8765" style="stop-color:#F4C13C"/>
						<stop  offset="0.9715" style="stop-color:#F4E3B7"/>
					</linearGradient>
					<polygon class="st113" points="129,559.9 129,560.3 94.4,629.4 129.5,629.4 129.5,629.9 125.2,638.9 78.2,638.9 78.2,638.4 
						112.6,569.4 78.7,569.4 78.7,568.9 83,559.9 					"/>
				</g>
				<g>
					<linearGradient id="SVGID_130_" gradientUnits="userSpaceOnUse" x1="183.2102" y1="638.9458" x2="183.2102" y2="559.8525">
						<stop  offset="0" style="stop-color:#F49E3C"/>
						<stop  offset="0.8765" style="stop-color:#F4C13C"/>
						<stop  offset="0.9715" style="stop-color:#F4E3B7"/>
					</linearGradient>
					<polygon class="st114" points="198.5,559.9 198.5,560.3 194.2,569.4 169.7,569.4 169.7,594.6 198.5,594.6 198.5,595.1 
						194.2,604.1 169.7,604.1 169.7,629.4 207.3,629.4 207.3,629.9 203,638.9 159.1,638.9 159.1,562.5 164.7,559.9 					"/>
				</g>
				<g>
					<linearGradient id="SVGID_131_" gradientUnits="userSpaceOnUse" x1="258.4229" y1="641.0638" x2="258.4229" y2="558.7629">
						<stop  offset="0" style="stop-color:#F49E3C"/>
						<stop  offset="0.8765" style="stop-color:#F4C13C"/>
						<stop  offset="0.9715" style="stop-color:#F4E3B7"/>
					</linearGradient>
					<path class="st115" d="M258.4,558.8c5.4,0,10.3,1,14.8,2.8c8,3.3,12.1,8.1,12.1,14.5v60.3l-10.1,4.7h-0.6v-65
						c0-2.4-2.2-4.4-6.4-6.1c-3-1.1-6.3-1.8-9.8-1.8c-3.5,0-6.8,0.6-9.8,1.8c-4.3,1.7-6.5,3.7-6.5,6.1v60.3l-10.1,4.7h-0.6v-65
						c0-6.4,4.1-11.2,12.1-14.5C248.1,559.7,253,558.8,258.4,558.8z"/>
				</g>
				<g>
					<linearGradient id="SVGID_132_" gradientUnits="userSpaceOnUse" x1="322.7599" y1="641.0638" x2="322.7599" y2="557.7345">
						<stop  offset="0" style="stop-color:#F49E3C"/>
						<stop  offset="0.8765" style="stop-color:#F4C13C"/>
						<stop  offset="0.9715" style="stop-color:#F4E3B7"/>
					</linearGradient>
					<polygon class="st116" points="328.1,557.7 328.1,636.3 318,641.1 317.4,641.1 317.4,562.5 327.6,557.7 					"/>
				</g>
				<linearGradient id="SVGID_133_" gradientUnits="userSpaceOnUse" x1="381.32" y1="636.4701" x2="381.32" y2="512.1779">
					<stop  offset="0" style="stop-color:#F49E3C"/>
					<stop  offset="0.8765" style="stop-color:#F4C13C"/>
					<stop  offset="0.9715" style="stop-color:#F4E3B7"/>
				</linearGradient>
				<polygon class="st117" points="409.7,512.2 409,512.2 382.5,595.9 354.4,512.2 353.7,512.2 341.2,517.7 381.5,636.5 
					421.4,517.7 				"/>
				<g>
					<linearGradient id="SVGID_134_" gradientUnits="userSpaceOnUse" x1="458.1314" y1="638.9458" x2="458.1314" y2="559.8525">
						<stop  offset="0" style="stop-color:#F49E3C"/>
						<stop  offset="0.8765" style="stop-color:#F4C13C"/>
						<stop  offset="0.9715" style="stop-color:#F4E3B7"/>
					</linearGradient>
					<polygon class="st118" points="473.3,559.9 473.3,560.3 469,569.4 444.6,569.4 444.6,594.6 473.3,594.6 473.3,595.1 469,604.1 
						444.6,604.1 444.6,629.4 482.3,629.4 482.3,629.9 477.9,638.9 434,638.9 434,562.5 439.6,559.9 					"/>
				</g>
				<g>
					<linearGradient id="SVGID_135_" gradientUnits="userSpaceOnUse" x1="533.4058" y1="641.0637" x2="533.4058" y2="559.8525">
						<stop  offset="0" style="stop-color:#F49E3C"/>
						<stop  offset="0.8765" style="stop-color:#F4C13C"/>
						<stop  offset="0.9715" style="stop-color:#F4E3B7"/>
					</linearGradient>
					<path class="st119" d="M542.2,611l18.2,25.7l-9.3,4.4h-0.6L530,612.2h-12.9v24.1l-10.1,4.7h-0.5v-78.6l5.6-2.6h20.2
						c5.4,0,10.3,0.9,14.8,2.8c8,3.3,12.1,8.1,12.1,14.5V595c0,6.4-4.1,11.3-12.1,14.5C545.4,610.1,543.8,610.6,542.2,611z
						 M532.2,602.8c3.6,0,6.8-0.6,9.8-1.8c4.3-1.7,6.5-3.7,6.5-6.1v-17.9c0-2.4-2.2-4.5-6.5-6.1c-3-1.1-6.3-1.7-9.8-1.7h-15.1v33.5
						H532.2"/>
				</g>
				<g>
					<linearGradient id="SVGID_136_" gradientUnits="userSpaceOnUse" x1="614.6414" y1="639.9742" x2="614.6414" y2="558.7629">
						<stop  offset="0" style="stop-color:#F49E3C"/>
						<stop  offset="0.8765" style="stop-color:#F4C13C"/>
						<stop  offset="0.9715" style="stop-color:#F4E3B7"/>
					</linearGradient>
					<path class="st120" d="M614.6,558.8c4.5,0,8.6,0.7,12.2,2.1c6.6,2.6,10,6.2,10,10.8v6.7l-10.1,4.7h-0.5v-9.6
						c0-1.8-1.2-3.1-3.4-3.9c-2.2-0.9-4.9-1.3-8.1-1.3c-3.2,0-5.9,0.4-8.1,1.3c-2.2,0.8-3.3,2.2-3.3,3.9v11.4c0,1.8,1.1,3.1,3.3,3.9
						c2.2,0.9,4.9,1.3,8.1,1.3c5.4,0,10.3,0.9,14.8,2.8c8,3.3,12.1,8.1,12.1,14.5v15.2c0,6.4-4.1,11.2-12.1,14.5
						c-4.5,1.9-9.4,2.8-14.8,2.8c-5.3,0-10.3-0.9-14.7-2.8c-8-3.3-12.1-8.1-12.1-14.5v-7.9l10.1-4.7h0.5v12.6c0,2.4,2.2,4.4,6.5,6.1
						c3,1.1,6.3,1.7,9.8,1.7c3.6,0,6.8-0.5,9.8-1.7c4.2-1.7,6.4-3.8,6.4-6.1v-15.2c0-2.5-2.2-4.5-6.4-6.2c-3-1.1-6.3-1.7-9.8-1.7
						c-4.5,0-8.5-0.7-12.1-2.1c-6.6-2.6-10-6.2-10-10.8v-15.1c0-4.7,3.3-8.3,10-10.8C606.1,559.5,610.1,558.8,614.6,558.8z"/>
				</g>
				<g>
					<linearGradient id="SVGID_137_" gradientUnits="userSpaceOnUse" x1="695.692" y1="638.9458" x2="695.692" y2="559.8525">
						<stop  offset="0" style="stop-color:#F49E3C"/>
						<stop  offset="0.8765" style="stop-color:#F4C13C"/>
						<stop  offset="0.9715" style="stop-color:#F4E3B7"/>
					</linearGradient>
					<polygon class="st121" points="710.9,559.9 710.9,560.3 706.6,569.4 682.2,569.4 682.2,594.6 710.9,594.6 710.9,595.1 
						706.6,604.1 682.2,604.1 682.2,629.4 719.8,629.4 719.8,629.9 715.5,638.9 671.6,638.9 671.6,562.5 677.2,559.9 					"/>
				</g>
			</g>
		</g>
	</g>
	<g>
		<path class="st1" d="M208.5,560c-13.4,0-14,1.4-14,14c0-13.1-1.5-14-14-14c12.6,0,14-1.3,14-14C194.5,558.9,195.2,560,208.5,560z"
			/>
		<g>
			<radialGradient id="SVGID_138_" cx="193.9978" cy="559.4203" r="11.8555" gradientUnits="userSpaceOnUse">
				<stop  offset="0.188" style="stop-color:#FFFFFF;stop-opacity:0.5"/>
				<stop  offset="1" style="stop-color:#FFFFFF;stop-opacity:0"/>
			</radialGradient>
			<circle class="st122" cx="194" cy="559.4" r="11.9"/>
			<circle class="st1" cx="194" cy="559.8" r="2.3"/>
		</g>
	</g>
	<g>
		<path class="st1" d="M551.3,560c-13.4,0-14,1.4-14,14c0-13.1-1.5-14-14-14c12.6,0,14-1.3,14-14C537.3,558.9,538,560,551.3,560z"/>
		<g>
			<radialGradient id="SVGID_139_" cx="536.8647" cy="559.4203" r="11.8555" gradientUnits="userSpaceOnUse">
				<stop  offset="0.188" style="stop-color:#FFFFFF;stop-opacity:0.5"/>
				<stop  offset="1" style="stop-color:#FFFFFF;stop-opacity:0"/>
			</radialGradient>
			<circle class="st123" cx="536.9" cy="559.4" r="11.9"/>
			<circle class="st1" cx="536.9" cy="559.8" r="2.3"/>
		</g>
	</g>
	<g>
		<path class="st1" d="M724.5,560c-13.4,0-14,1.4-14,14c0-13.1-1.5-14-14-14c12.6,0,14-1.3,14-14C710.5,558.9,711.2,560,724.5,560z"
			/>
		<g>
			<radialGradient id="SVGID_140_" cx="710.0189" cy="559.4203" r="11.8555" gradientUnits="userSpaceOnUse">
				<stop  offset="0.188" style="stop-color:#FFFFFF;stop-opacity:0.5"/>
				<stop  offset="1" style="stop-color:#FFFFFF;stop-opacity:0"/>
			</radialGradient>
			<circle class="st124" cx="710" cy="559.4" r="11.9"/>
			<circle class="st1" cx="710" cy="559.8" r="2.3"/>
		</g>
	</g>
	<g>
		<path class="st1" d="M444.2,515.8c-25.5,0-26.5,2.7-26.5,26.5c0-24.7-2.9-26.5-26.5-26.5c23.8,0,26.5-2.4,26.5-26.5
			C417.7,513.6,419,515.8,444.2,515.8z"/>
		<g>
			<radialGradient id="SVGID_141_" cx="416.8034" cy="514.5978" r="22.4493" gradientUnits="userSpaceOnUse">
				<stop  offset="0.188" style="stop-color:#FFFFFF;stop-opacity:0.5"/>
				<stop  offset="1" style="stop-color:#FFFFFF;stop-opacity:0"/>
			</radialGradient>
			<circle class="st125" cx="416.8" cy="514.6" r="22.4"/>
			<circle class="st1" cx="416.8" cy="515.3" r="4.3"/>
		</g>
	</g>
	<g>
		<path class="st0" d="M467.4,284.7c-11.2-28.4-38.3-90.3-84.6-159.5c-46.3,69.2-73.3,131.2-84.6,159.5c-4.4,11.2-4.8,23.6-1,35
			c21,64.4,85.6,185.8,85.6,185.8s64.6-121.3,85.6-185.8C472.1,308.3,471.8,295.9,467.4,284.7z"/>
		<g>
			<path class="st126" d="M471.8,241.8c-11.8-29.9-40.3-95.1-89.1-168c-48.7,72.9-77.2,138.1-89.1,168c-4.7,11.7-5,24.8-1.1,36.8
				c22.1,67.9,90.2,195.6,90.2,195.6s68-127.8,90.2-195.6C476.9,266.6,476.5,253.5,471.8,241.8z"/>
			
				<ellipse transform="matrix(0.7492 -0.6623 0.6623 0.7492 -79.2639 339.3065)" class="st127" cx="408.4" cy="274.3" rx="63.6" ry="51.5"/>
			
				<ellipse transform="matrix(0.7492 -0.6623 0.6623 0.7492 -79.2639 339.3065)" class="st128" cx="408.4" cy="274.3" rx="63.6" ry="51.5"/>
			<linearGradient id="SVGID_142_" gradientUnits="userSpaceOnUse" x1="340.7571" y1="455.1326" x2="340.7571" y2="92.8408">
				<stop  offset="0" style="stop-color:#FC27ED"/>
				<stop  offset="1" style="stop-color:#781371"/>
			</linearGradient>
			<path class="st129" d="M338.2,295c-1.9-9.3,2.5-17.5,5.6-26.9c0.1-0.7,2.2-12,2.3-12.8l36.7-162.6c-44.1,65.9-69.9,125-80.6,152
				c-4.2,10.6-4.5,22.4-1,33.3c20,61.4,81.6,177,81.6,177l-34.1-142.4C346,308.4,339.3,300.5,338.2,295z"/>
			<linearGradient id="SVGID_143_" gradientUnits="userSpaceOnUse" x1="421.6122" y1="455.1326" x2="421.6122" y2="289.3385">
				<stop  offset="0" style="stop-color:#FC27ED"/>
				<stop  offset="1" style="stop-color:#781371"/>
			</linearGradient>
			<path class="st130" d="M426.7,323.7c-4,13.3-18.4,61.6-24.8,79.3c-7.4,20.6-19.2,52.2-19.2,52.2s54.6-102.6,77.7-165.8
				C453.6,303.5,441.7,316,426.7,323.7z"/>
			<linearGradient id="SVGID_144_" gradientUnits="userSpaceOnUse" x1="427.0136" y1="240.1657" x2="427.0136" y2="107.8504">
				<stop  offset="0" style="stop-color:#FC27ED"/>
				<stop  offset="1" style="stop-color:#781371"/>
			</linearGradient>
			<path class="st131" d="M417.2,217.4c19.3-1.1,36,7.4,44.3,22.8c-10.7-26.4-33-76.1-68.9-132.3C397.2,122.3,418,188.2,417.2,217.4
				z"/>
			<g>
				<g>
					<path class="st132" d="M396.4,334.3c-24.8,0-43.8-14.9-48.4-37.8c-6.1-30.5,15.9-65.3,48.9-77.7c7.9-2.9,15.8-4.4,23.6-4.4
						c24.8,0,43.8,14.9,48.4,37.8c6.1,30.5-15.9,65.3-48.9,77.7C412.1,332.8,404.1,334.3,396.4,334.3z"/>
					<path class="st126" d="M420.5,217.2c22.6,0,41.2,13.4,45.6,35.5c5.8,29.2-15.3,62.5-47.1,74.4c-7.7,2.9-15.3,4.3-22.6,4.3
						c-22.6,0-41.2-13.4-45.6-35.5c-5.8-29.2,15.3-62.5,47.1-74.4C405.6,218.6,413.2,217.2,420.5,217.2 M420.5,211.4v5.8V211.4
						L420.5,211.4c-8.1,0-16.4,1.6-24.6,4.6c-16.6,6.2-30.9,18-40.5,33.1c-9.7,15.3-13.3,32.3-10.2,47.9
						c2.4,12.1,8.7,22.3,18.1,29.5c9.1,7,20.6,10.6,33.1,10.6c8.1,0,16.4-1.6,24.6-4.6c16.6-6.2,30.9-18,40.5-33.1
						c9.7-15.3,13.3-32.3,10.2-47.9c-2.4-12.1-8.7-22.3-18.1-29.5C444.4,215.1,433,211.4,420.5,211.4L420.5,211.4z"/>
				</g>
				<g>
					<path class="st133" d="M385,312.8c-10.4,0-20.5-2.9-29.4-8.3c-1.3-2.9-2.2-5.9-2.8-9c-5.6-28.2,15-60.6,45.9-72.2
						c7.2-2.7,14.6-4.1,21.7-4.1c3,0,6.1,0.3,9,0.8c8.2,10.1,12.7,22.8,12.7,35.8C442,287.2,416.4,312.8,385,312.8z"/>
					<path class="st126" d="M420.3,221.2c2.7,0,5.3,0.2,7.9,0.6c7.6,9.7,11.8,21.7,11.8,34c0,30.3-24.7,55-55,55
						c-9.8,0-19.4-2.6-27.9-7.7c-1.1-2.6-1.9-5.3-2.4-8c-5.4-27.3,14.6-58.8,44.6-70C406.3,222.5,413.4,221.2,420.3,221.2
						 M420.3,217.3c-7.2,0-14.7,1.3-22.4,4.2c-31.8,11.9-52.9,45.3-47.1,74.4c0.7,3.6,1.8,6.9,3.2,10c9,5.6,19.6,8.9,31,8.9
						c32.6,0,59-26.4,59-59c0-14.3-5.1-27.4-13.6-37.6C427.1,217.6,423.8,217.3,420.3,217.3L420.3,217.3z"/>
				</g>
				<g class="st134">
					<path class="st135" d="M413.2,236.7c8.8-2.7,17.5-4,25.8-4.2c-2.2-5.2-5.2-10-8.7-14.3c-9.9-1.8-21.1-0.9-32.4,3.3
						c-31.8,11.9-52.9,45.3-47.1,74.4c0.7,3.6,1.8,6.9,3.2,10c0.1,0.1,0.2,0.1,0.3,0.2C351.1,278.2,376.3,247.9,413.2,236.7z"/>
				</g>
				<g>
					<path class="st1" d="M368.1,263.3c0,0,3.5-9.5,16.8-9.5c4.9,0,9.2,2.4,9.7,7.6c0.3,3.3-0.7,7.1-3.3,9.4
						c-2.7,2.5-6.8,2.7-10.3,2.8C374.4,273.6,367.7,270.9,368.1,263.3z"/>
					<path class="st1" d="M427.2,262.4c0,0,2.1-9.6-7.4-9.6c-9.5,0-11.8,8.1-11.6,10.9c0.2,2.8,1.2,8.2,7,8.3
						C425.9,272.2,426.5,265.4,427.2,262.4z"/>
					<g>
						<path d="M368.1,263.3c0.8-2.8,2.7-5.2,5.1-7c2.4-1.8,5.3-2.8,8.2-3.2c0.4,0,0.7-0.1,1.1-0.1l1.1,0c0.7,0,1.5-0.1,2.2,0
							c1.5,0.1,3,0.5,4.4,1.2c1.4,0.7,2.6,1.7,3.4,3c0.8,1.3,1.1,2.8,1,4.2c-0.3-1.4-0.9-2.7-1.7-3.7c-0.9-1-2-1.8-3.2-2.3
							c-1.2-0.5-2.6-0.7-3.9-0.8c-0.7,0-1.4,0-2,0.1l-1,0.1l-1,0.1c-2.7,0.4-5.3,1.2-7.7,2.6C371.7,258.9,369.6,260.8,368.1,263.3z"
							/>
					</g>
					<g>
						<path d="M427.2,262.4c0-1.3-0.1-2.7-0.4-3.9c-0.3-1.2-0.9-2.3-1.8-3.1c-0.9-0.8-2-1.3-3.2-1.4c-0.6-0.2-1.2-0.1-1.8-0.2
							c-0.6,0-1.3,0.1-1.9,0.1c-2.5,0.3-4.8,1.3-6.6,3.1c-0.9,0.9-1.6,1.9-2.2,3.1c-0.6,1.2-1,2.4-1.2,3.8c-0.3-1.3-0.1-2.8,0.3-4.1
							c0.4-1.3,1.1-2.6,2-3.7c0.9-1.1,2.1-2,3.3-2.7c1.3-0.7,2.7-1,4.1-1.2c1.4-0.1,2.8-0.1,4.3,0.2c1.4,0.3,2.9,1,3.8,2.2
							c1,1.1,1.5,2.6,1.6,4C427.8,259.8,427.7,261.2,427.2,262.4z"/>
					</g>
					<g>
						<linearGradient id="SVGID_145_" gradientUnits="userSpaceOnUse" x1="387.6466" y1="269.2957" x2="378.8081" y2="253.9133">
							<stop  offset="0" style="stop-color:#8E1686"/>
							<stop  offset="0.9715" style="stop-color:#D490D0"/>
						</linearGradient>
						<path class="st136" d="M382.4,267.8c-4.2,0-7.6-3.4-7.6-7.6c0-1.5,0.4-2.9,1.3-4.2c2.4-1.4,5.2-2.1,8.4-2.1
							c0.9,0,1.7,0.1,2.5,0.3c1.9,1.5,3,3.6,3,6C390,264.4,386.6,267.8,382.4,267.8z"/>
						<path d="M384.5,254.7c0.8,0,1.5,0.1,2.2,0.2c1.6,1.3,2.5,3.2,2.5,5.3c0,3.8-3.1,6.8-6.8,6.8c-3.8,0-6.8-3.1-6.8-6.8
							c0-1.3,0.4-2.5,1.1-3.6C378.9,255.3,381.5,254.7,384.5,254.7 M384.5,253.2c-3.9,0-6.8,1-8.9,2.3c-0.9,1.3-1.5,3-1.5,4.7
							c0,4.6,3.7,8.3,8.3,8.3c4.6,0,8.3-3.7,8.3-8.3c0-2.7-1.3-5.1-3.4-6.7C386.5,253.3,385.5,253.2,384.5,253.2L384.5,253.2z"/>
					</g>
					<g>
						<linearGradient id="SVGID_146_" gradientUnits="userSpaceOnUse" x1="422.666" y1="267.2878" x2="414.6885" y2="253.4039">
							<stop  offset="0" style="stop-color:#8E1686"/>
							<stop  offset="0.9715" style="stop-color:#D490D0"/>
						</linearGradient>
						<path class="st137" d="M418.1,265.9c-3.6,0-6.5-2.9-6.5-6.5c0-3.6,2.9-6.5,6.5-6.5s6.5,2.9,6.5,6.5
							C424.6,263,421.7,265.9,418.1,265.9z"/>
						<g>
							<path d="M418.1,253.7c3.2,0,5.7,2.6,5.7,5.7s-2.6,5.7-5.7,5.7s-5.7-2.6-5.7-5.7S415,253.7,418.1,253.7 M418.1,252.2
								c-4,0-7.2,3.2-7.2,7.2c0,4,3.2,7.2,7.2,7.2c4,0,7.2-3.2,7.2-7.2C425.4,255.4,422.1,252.2,418.1,252.2L418.1,252.2z"/>
						</g>
					</g>
				</g>
			</g>
			<linearGradient id="SVGID_147_" gradientUnits="userSpaceOnUse" x1="355.6607" y1="280.9693" x2="355.6607" y2="92.8451">
				<stop  offset="3.249950e-02" style="stop-color:#FCF7FC"/>
				<stop  offset="1" style="stop-color:#FC27ED"/>
			</linearGradient>
			<path class="st138" d="M382.8,92.8l-29.5,172.4c-0.2,0.7-0.2,1.5-0.3,2.2c-1.5,4.4-2.4,9-2.9,13.5l-21.5-5.2c0-1.8,0-3.5,0.2-5.3
				C331.7,215.4,382.8,92.8,382.8,92.8z"/>
			<path class="st139" d="M382.8,455.1c-19.4-51.1-54.7-124.8-54.2-179.4l21.5,5.2c-0.5,5-0.2,10,0.7,14.9c1.1,5.5,3,10.4,5.7,14.8
				L382.8,455.1z"/>
			<path class="st140" d="M451.9,310.7c-21.7,26.4-68.4,38.5-91.3,11.2c13.4,34.6,55.8,31.2,82,10.8L451.9,310.7z"/>
			<g>
				<path class="st1" d="M400.7,194.5c-52.2,0-54.5,5.5-54.5,54.5c0-50.7-5.9-54.5-54.4-54.5c48.9,0,54.4-4.9,54.4-54.4
					C346.2,190,349,194.5,400.7,194.5z"/>
				<g>
					<radialGradient id="SVGID_148_" cx="344.4056" cy="194.9726" r="28.4357" gradientUnits="userSpaceOnUse">
						<stop  offset="0.188" style="stop-color:#FFFFFF;stop-opacity:0.5"/>
						<stop  offset="1" style="stop-color:#FFFFFF;stop-opacity:0"/>
					</radialGradient>
					<circle class="st141" cx="344.4" cy="195" r="28.4"/>
					<circle class="st1" cx="344.4" cy="195.9" r="5.5"/>
				</g>
			</g>
			<path class="st1" d="M432.9,391.6c-21.7,0-22.6,2.3-22.6,22.6c0-21.1-2.5-22.6-22.6-22.6c20.3,0,22.6-2,22.6-22.6
				C410.3,389.8,411.4,391.6,432.9,391.6z"/>
			<g>
				<radialGradient id="SVGID_149_" cx="409.5471" cy="390.6393" r="19.1204" gradientUnits="userSpaceOnUse">
					<stop  offset="0.188" style="stop-color:#FFFFFF;stop-opacity:0.5"/>
					<stop  offset="1" style="stop-color:#FFFFFF;stop-opacity:0"/>
				</radialGradient>
				<circle class="st142" cx="409.5" cy="390.6" r="19.1"/>
				<circle class="st1" cx="409.5" cy="391.2" r="3.7"/>
			</g>
		</g>
	</g>
</g>
</svg>
